<?xml version="1.0" encoding="UTF-8"?>
<!DOCTYPE svg PUBLIC "-//W3C//DTD SVG 1.1//EN" "http://www.w3.org/Graphics/SVG/1.1/DTD/svg11.dtd">
<!-- Creator: CorelDRAW -->
<svg xmlns="http://www.w3.org/2000/svg" xml:space="preserve" width="299px" height="250px" style="shape-rendering:geometricPrecision; text-rendering:geometricPrecision; image-rendering:optimizeQuality; fill-rule:evenodd; clip-rule:evenodd"
viewBox="0 0 68.0348 57.0556"
 xmlns:xlink="http://www.w3.org/1999/xlink">
 <defs>
  <style type="text/css">
   <![CDATA[
    .str5 {stroke:#5F729D;stroke-width:0.359152}
    .str0 {stroke:#6778A3;stroke-width:0.359152}
    .str2 {stroke:#5873A0;stroke-width:0.244619;stroke-linecap:round;stroke-linejoin:round}
    .str1 {stroke:#6176A3;stroke-width:0.272427;stroke-linecap:round;stroke-linejoin:round}
    .str4 {stroke:#6478AA;stroke-width:0.272427;stroke-linecap:round;stroke-linejoin:round}
    .str3 {stroke:#6478AA;stroke-width:0.272899;stroke-linecap:round;stroke-linejoin:round}
    .fil7 {fill:none}
    .fil11 {fill:#6D7B9E}
    .fil8 {fill:#ACE0F6}
    .fil9 {fill:#BBDFF9}
    .fil6 {fill:#CCCCCC}
    .fil4 {fill:#E4E4E4}
    .fil1 {fill:#E7E5E6}
    .fil3 {fill:#F0F0F0}
    .fil0 {fill:#F9F9F9}
    .fil10 {fill:#FEE17B}
    .fil5 {fill:#FEFEFE}
    .fil2 {fill:white}
   ]]>
  </style>
     <clipPath id="id0">
      <path d="M33.74 11.129c5.57534,0 10.0954,4.49882 10.0954,10.0487 0,5.54941 -4.52003,10.0482 -10.0954,10.0482 -5.57628,0 -10.0968,-4.49882 -10.0968,-10.0482 0,-5.54989 4.52051,-10.0487 10.0968,-10.0487z"/>
     </clipPath>
 </defs>
 <g id="Layer_x0020_1">
  <metadata id="CorelCorpID_0Corel-Layer"/>
  <g id="_480233328">
   <path id="_480244896" class="fil0" d="M6.85216 8.19451c0,0 15.4402,-8.90008 27.0208,-8.14926 11.5805,0.750354 26.1629,15.0118 27.1282,16.8344 0.965279,1.82262 5.68327,3.96575 6.86253,13.6162 1.17973,9.65044 -3.8597,22.6251 -11.902,25.4131 -8.0418,2.7879 -31.8457,-0.536371 -37.9579,0.642891 -6.11218,1.17973 -15.7621,-7.18351 -17.2633,-14.1535 -1.50118,-6.97 -1.28672,-30.9889 6.11171,-34.2038z"/>
   <g>
    <rect id="_480241656" class="fil1" x="3.76463" y="11.3773" width="23.165" height="34.883" rx="1.04211" ry="1.04211"/>
    <rect id="_480237288" class="fil2" x="4.29577" y="11.8821" width="22.1027" height="33.9246" rx="0.994502" ry="0.994502"/>
    <ellipse id="_480233280" class="fil3" cx="15.267" cy="22.6784" rx="7.7943" ry="8.08435"/>
    <g>
     <polygon id="_480251712" class="fil4" points="9.28704,42.8413 8.28641,42.0651 7.22593,42.8263 7.6242,41.5942 6.60236,40.7788 7.85044,40.7934 8.2784,39.5284 8.65122,40.7694 9.93795,40.8024 8.92035,41.5551 "/>
     <polygon id="_480247128" class="fil4" points="12.8578,42.8413 11.8558,42.0651 10.7958,42.8263 11.1945,41.5942 10.1717,40.7788 11.4198,40.7934 11.8487,39.5284 12.2211,40.7694 13.5083,40.8024 12.4902,41.5551 "/>
     <polygon id="_480252840" class="fil4" points="16.3136,42.8413 15.312,42.0651 14.2525,42.8263 14.6503,41.5942 13.628,40.7788 14.876,40.7934 15.3045,39.5284 15.6778,40.7694 16.964,40.8024 15.9464,41.5551 "/>
     <polygon id="_480251688" class="fil4" points="19.9145,42.8413 18.9125,42.0651 17.853,42.8263 18.2512,41.5942 17.2299,40.7788 18.4775,40.7934 18.9054,39.5284 19.2783,40.7694 20.565,40.8024 19.5474,41.5551 "/>
     <polygon id="_480228312" class="fil4" points="23.4387,42.8413 22.4371,42.0651 21.3771,42.8263 21.7753,41.5942 20.753,40.7788 22.0011,40.7934 22.43,39.5284 22.8024,40.7694 24.0891,40.8024 23.0715,41.5551 "/>
    </g>
    <rect id="_480245688" class="fil4" x="6.7499" y="33.2221" width="17.1361" height="2.68501" rx="0.702278" ry="0.702278"/>
    <rect id="_480244488" class="fil5" x="8.59157" y="34.3543" width="13.4733" height="0.431156" rx="0.215397" ry="0.215397"/>
    <rect id="_480253296" class="fil4" x="9.41053" y="37.1567" width="11.7548" height="0.162759" rx="0.0815397" ry="0.0815397"/>
   </g>
   <g>
    <rect id="_480242976" class="fil1" x="41.2941" y="11.3773" width="23.165" height="34.883" rx="1.04211" ry="1.04211"/>
    <rect id="_480227928" class="fil2" x="41.8252" y="11.8821" width="22.1027" height="33.9246" rx="0.994502" ry="0.994502"/>
    <ellipse id="_480243816" class="fil3" cx="52.7965" cy="22.6784" rx="7.7943" ry="8.08435"/>
    <g>
     <polygon id="_480250752" class="fil4" points="46.817,42.8413 45.8154,42.0651 44.7554,42.8263 45.1541,41.5942 44.1314,40.7788 45.3799,40.7934 45.8079,39.5284 46.1807,40.7694 47.4679,40.8024 46.4498,41.5551 "/>
     <polygon id="_480228648" class="fil4" points="50.3878,42.8413 49.3853,42.0651 48.3257,42.8263 48.7245,41.5942 47.7017,40.7788 48.9493,40.7934 49.3782,39.5284 49.7505,40.7694 51.0377,40.8024 50.0197,41.5551 "/>
     <polygon id="_480227448" class="fil4" points="53.8435,42.8413 52.841,42.0651 51.7815,42.8263 52.1802,41.5942 51.1575,40.7788 52.4055,40.7934 52.834,39.5284 53.2073,40.7694 54.494,40.8024 53.4754,41.5551 "/>
     <polygon id="_480229296" class="fil4" points="57.444,42.8413 56.4424,42.0651 55.3824,42.8263 55.7807,41.5942 54.7589,40.7788 56.0069,40.7934 56.4349,39.5284 56.8082,40.7694 58.0945,40.8024 57.0764,41.5551 "/>
     <polygon id="_480239088" class="fil4" points="60.9681,42.8413 59.9666,42.0651 58.9061,42.8263 59.3053,41.5942 58.283,40.7788 59.5306,40.7934 59.9586,39.5284 60.3323,40.7694 61.6186,40.8024 60.601,41.5551 "/>
    </g>
    <rect id="_480243696" class="fil4" x="44.2793" y="33.2221" width="17.1361" height="2.68501" rx="0.702278" ry="0.702278"/>
    <rect id="_480246168" class="fil5" x="46.121" y="34.3543" width="13.4733" height="0.431156" rx="0.215397" ry="0.215397"/>
    <rect id="_480234192" class="fil4" x="46.94" y="37.1567" width="11.7548" height="0.162759" rx="0.0815397" ry="0.0815397"/>
   </g>
   <g>
    <rect id="_480112976" class="fil1" x="18.8403" y="6.74466" width="30.0059" height="43.1995" rx="1.34988" ry="1.34988"/>
    <rect id="_480118064" class="fil2 str0" x="19.5282" y="7.75794" width="28.6299" height="42.1676" rx="1.28814" ry="1.28814"/>
    <path id="_480112568" class="fil0" d="M33.74 11.129c5.57534,0 10.0954,4.49882 10.0954,10.0487 0,5.54941 -4.52003,10.0482 -10.0954,10.0482 -5.57628,0 -10.0968,-4.49882 -10.0968,-10.0482 0,-5.54989 4.52051,-10.0487 10.0968,-10.0487z"/>
    <g style="clip-path:url(#id0)">
     <g>
      <path id="_4801231761" class="fil2" d="M36.0142 14.2605c0,0 0.65656,1.1524 0.549097,1.71563 -0.106991,0.563237 -0.174391,1.33998 -0.174391,1.33998 0,0 0.442577,1.48704 0.335114,2.80063 -0.107463,1.31359 0.0669286,2.23834 -0.24132,3.05609 -0.308248,0.817754 -0.428908,0.991674 -0.428908,0.991674l0.737628 1.0718c0,0 0.431736,0.690495 1.27588,0.830951 0.844619,0.140927 0.958681,0.402043 0.891281,0.690495 -0.0669286,0.287981 -0.722074,0.663158 -0.655146,1.38665 0.0664572,0.72396 0.871014,2.27887 0.871014,2.27887l-6.56607 2.18413 -6.16591 -2.1978c0,0 1.99654,-1.36779 2.04368,-1.68924 0.0471328,-0.321446 0.027337,-0.30165 0.0805971,-0.42231 0.0537314,-0.12066 0.0735271,-0.161194 0.0735271,-0.30165 0,-0.140927 -0.214454,-0.583033 -0.214454,-0.583033 0,0 -0.313904,-0.227651 -0.180047,-0.489238 0.133857,-0.261116 0.690495,-0.247447 1.126,-0.589631 0.435978,-0.342184 1.1194,-1.15994 1.17313,-1.274 0.05326,-0.114061 0.875256,-0.797015 0.875256,-0.797015 0,0 -0.8696,-2.45939 -0.668814,-4.36308 0.201257,-1.90322 0.351139,-3.0971 0.860645,-3.88798 0.509034,-0.790417 0.375177,-0.978005 1.38052,-1.50071 1.00534,-0.523174 3.02168,-0.251218 3.02168,-0.251218z"/>
      <path id="_480125528" class="fil6" d="M30.625 25.915l-0.201257 0.154124 2.23221 1.88343 0.911077 -0.871485c0,0 0.261587,0.944541 1.19953,0.750354 0.938414,-0.194187 2.21194,-1.56151 2.21194,-1.56151l-0.381776 -0.29458c0,0 -0.844619,1.09867 -1.63551,1.35365 -0.790888,0.254517 -0.857817,0.328044 -0.985075,-0.0537314 -0.12773,-0.381776 -0.254517,-0.730558 -0.254517,-0.730558l-0.925217 0.904949c0,0 -0.147526,-0.000471328 -0.576434,-0.342184 -0.428908,-0.341713 -1.59497,-1.19246 -1.59497,-1.19246z"/>
      <g>
       <line id="_480126128" class="fil7 str1" x1="27.4289" y1="28.5182" x2="28.4522" y2= "27.732" />
      </g>
      <g>
       <path id="_480126560" class="fil7 str1" d="M28.373 28.9801c0,0 0.353967,-0.780048 0.100393,-1.3183 -0.254046,-0.537785 -0.271956,-0.591045 -0.201257,-0.745169 0.0711705,-0.153653 1.19434,-0.376591 1.915,-1.32302"/>
      </g>
      <g>
       <line id="_480126680" class="fil7 str1" x1="30.4944" y1="25.2867" x2="31.0624" y2= "24.6123" />
      </g>
      <g>
       <line class="fil7 str1" x1="36.2993" y1="24.5529" x2="36.8904" y2= "25.2985" />
      </g>
      <g>
       <path class="fil7 str1" d="M37.168 25.6709c0,0 0.361037,0.272427 1.04635,0.46143 0.686253,0.188531 1.10008,0.390259 0.6033,0.910134 -0.497251,0.520346 -0.743755,1.389 -0.128672,2.2883"/>
      </g>
      <g>
       <path class="fil7 str1" d="M40.0779 28.1967c0,0 -0.419482,-0.579733 -1.37769,-1.01147"/>
      </g>
      <path class="fil8" d="M29.5659 18.9912c0,0 -1.10385,-3.41854 3.01838,-5.72616 1.94281,-1.08782 3.11453,0.218225 3.51658,0.888453 0.244148,0.406285 0.200786,0.593402 -0.06033,0.992145 -0.692852,1.05719 -2.47211,1.99513 -3.84745,2.47824 -0.345955,0.122074 -0.58586,0.510919 -0.676827,0.527416 -0.00754125,0.000942656 -0.686253,-1.06567 -0.654674,0.238021 0.0216811,0.850275 -0.112647,0.92993 -0.112647,0.92993 0,0 -0.780048,-0.343598 -0.618853,-1.28814 0.161665,-0.944541 -0.386017,-0.266772 -0.564179,0.960095z"/>
      <g>
       <g>
        <path class="fil7 str2" d="M33.3983 28.3084c0,0 -0.569364,3.95491 -0.314847,5.30574 0.25546,1.34988 1.66284,2.19922 1.66284,2.19922 0,0 0.251689,-0.892695 0.493952,-1.19764 0.242734,-0.304006 0.297408,-0.381304 -0.227651,-1.12082 -0.524588,-0.739042 -0.970464,-4.09348 -1.1557,-5.14266 -0.184761,-1.04918 -0.503849,-0.0706992 -0.503849,-0.0706992l0.0452475 0.0268657z"/>
        <path id="1" class="fil9" d="M33.3983 28.3084c0,0 -0.569364,3.95491 -0.314847,5.30574 0.25546,1.34988 1.66284,2.19922 1.66284,2.19922 0,0 0.251689,-0.892695 0.493952,-1.19764 0.242734,-0.304006 0.297408,-0.381304 -0.227651,-1.12082 -0.524588,-0.739042 -0.970464,-4.09348 -1.1557,-5.14266 -0.184761,-1.04918 -0.503849,-0.0706992 -0.503849,-0.0706992l0.0452475 0.0268657z"/>
       </g>
       <g>
        <path class="fil7 str2" d="M33.6863 27.658c0,0 0.549568,0.517518 0.37989,0.806913 -0.169678,0.290338 -1.00581,0.0537314 -1.03551,-0.128201 -0.030165,-0.182875 0.352553,-0.657031 0.655617,-0.678712z"/>
        <path id="1" class="fil9" d="M33.6863 27.658c0,0 0.549568,0.517518 0.37989,0.806913 -0.169678,0.290338 -1.00581,0.0537314 -1.03551,-0.128201 -0.030165,-0.182875 0.352553,-0.657031 0.655617,-0.678712z"/>
       </g>
      </g>
      <path class="fil8" d="M36.6434 14.8473c0,0 -0.0593873,0.579262 0.283739,1.39513 0.342655,0.81634 -0.508563,2.29348 -0.697565,2.45892 -0.189002,0.165907 0.118303,-0.685311 0.0235664,-0.72066 -0.0947369,-0.0353496 -0.543441,0.425138 -0.543441,0.425138 0,0 0.0348783,-0.519875 -0.189474,-0.354439 -0.224823,0.165436 -0.224823,0.224823 -0.224823,0.224823 0,0 -0.283739,-0.638178 -0.484525,-0.815868 -0.200786,-0.177691 -0.212569,-0.591045 0.449175,-1.06379 0.662216,-0.473213 1.348,-1.06426 1.38335,-1.54925z"/>
      <g>
       <path class="fil7 str3" d="M30.7405 20.0413c0.0113119,5.67573 2.6121,6.0641 3.15601,6.07683 0.543912,0.0117832 2.52019,-1.32773 2.80204,-4.1392 0.526002,-5.2619 -1.50306,-7.91218 -3.26442,-7.60959 -1.47337,0.253574 -2.69835,2.77753 -2.69364,5.67196z"/>
      </g>
      <g>
       <path class="fil7 str1" d="M30.5713 25.8566l2.15208 1.72553 0.963394 -1.10432c0,0 0.242734,1.09301 0.680126,1.09301 0.436921,0 1.915,-1.02844 2.26944,-1.61995"/>
      </g>
      <g>
       <path class="fil7 str4" d="M32.827 21.9582c0,0 0.993088,1.55538 2.11061,0.118775"/>
      </g>
     </g>
    </g>
    <path class="fil7 str5" d="M33.74 11.129c5.57534,0 10.0954,4.49882 10.0954,10.0487 0,5.54941 -4.52003,10.0482 -10.0954,10.0482 -5.57628,0 -10.0968,-4.49882 -10.0968,-10.0482 0,-5.54989 4.52051,-10.0487 10.0968,-10.0487z"/>
    <g>
     <polygon class="fil10" points="25.9947,46.2396 24.6966,45.2753 23.3237,46.2217 23.8407,44.6894 22.5158,43.6756 24.1325,43.6935 24.6872,42.1212 25.1698,43.6633 26.8369,43.7053 25.5186,44.6409 "/>
     <polygon class="fil10" points="30.6189,46.2396 29.3208,45.2753 27.9483,46.2217 28.4644,44.6894 27.14,43.6756 28.7562,43.6935 29.3114,42.1212 29.7936,43.6633 31.4616,43.7053 30.1428,44.6409 "/>
     <polygon class="fil10" points="35.0951,46.2396 33.7975,45.2753 32.4245,46.2217 32.9406,44.6894 31.6167,43.6756 33.2333,43.6935 33.7881,42.1212 34.2707,43.6633 35.9378,43.7053 34.6195,44.6409 "/>
     <polygon class="fil10" points="39.7598,46.2396 38.4618,45.2753 37.0893,46.2217 37.6054,44.6894 36.2814,43.6756 37.8976,43.6935 38.4528,42.1212 38.9354,43.6633 40.6025,43.7053 39.2838,44.6409 "/>
     <polygon class="fil10" points="44.3246,46.2396 43.0266,45.2753 41.6541,46.2217 42.1702,44.6894 40.8457,43.6756 42.4624,43.6935 43.0176,42.1212 43.4998,43.6633 45.1669,43.7053 43.8486,44.6409 "/>
    </g>
    <rect class="fil8" x="22.7071" y="34.2831" width="22.1966" height="3.33741" rx="0.872899" ry="0.872899"/>
    <rect class="fil5" x="25.0926" y="35.6905" width="17.4522" height="0.535917" rx="0.268186" ry="0.268186"/>
    <rect class="fil11" x="26.1535" y="39.1738" width="15.2261" height="0.202306" rx="0.101335" ry="0.101335"/>
   </g>
  </g>
 </g>
</svg>
