<?xml version="1.0" encoding="UTF-8"?>
<!DOCTYPE svg PUBLIC "-//W3C//DTD SVG 1.1//EN" "http://www.w3.org/Graphics/SVG/1.1/DTD/svg11.dtd">
<!-- Creator: CorelDRAW -->
<svg xmlns="http://www.w3.org/2000/svg" xml:space="preserve" width="220px" height="250px" style="shape-rendering:geometricPrecision; text-rendering:geometricPrecision; image-rendering:optimizeQuality; fill-rule:evenodd; clip-rule:evenodd"
viewBox="0 0 30.4701 34.6543"
 xmlns:xlink="http://www.w3.org/1999/xlink">
 <defs>
  <style type="text/css">
   <![CDATA[
    .str11 {stroke:#6379A8;stroke-width:0.0715356}
    .str8 {stroke:#6177A9;stroke-width:0.171416}
    .str10 {stroke:#6379A8;stroke-width:0.171416}
    .str12 {stroke:#6379A8;stroke-width:0.171416;stroke-linecap:round;stroke-linejoin:round}
    .str0 {stroke:#6778A3;stroke-width:0.171416}
    .str15 {stroke:#6A7BA9;stroke-width:0.171416}
    .str6 {stroke:#787CA2;stroke-width:0.171416}
    .str7 {stroke:#787CA2;stroke-width:0.0438662;stroke-linecap:round;stroke-linejoin:round}
    .str14 {stroke:#6A7BA9;stroke-width:0.0866076;stroke-linecap:round;stroke-linejoin:round}
    .str9 {stroke:#6379A8;stroke-width:0.105054;stroke-linecap:round;stroke-linejoin:round}
    .str13 {stroke:#6A7BA9;stroke-width:0.12305;stroke-linecap:round;stroke-linejoin:round}
    .str2 {stroke:#5873A0;stroke-width:0.124175;stroke-linecap:round;stroke-linejoin:round}
    .str4 {stroke:#6478AA;stroke-width:0.135198;stroke-linecap:round;stroke-linejoin:round}
    .str5 {stroke:#6176A3;stroke-width:0.135423;stroke-linecap:round;stroke-linejoin:round}
    .str3 {stroke:#6478AA;stroke-width:0.135423;stroke-linecap:round;stroke-linejoin:round}
    .str1 {stroke:#6176A3;stroke-width:0.138347;stroke-linecap:round;stroke-linejoin:round}
    .fil3 {fill:none}
    .fil7 {fill:#6177A9}
    .fil12 {fill:#627AAA}
    .fil9 {fill:#67E697}
    .fil5 {fill:#ACE0F6}
    .fil8 {fill:#B3B3B3}
    .fil6 {fill:#BBDFF9}
    .fil4 {fill:#CCCCCC}
    .fil1 {fill:#E3E4DF}
    .fil0 {fill:#F9F9F9}
    .fil11 {fill:#FCEFA1}
    .fil10 {fill:#FFAC97}
    .fil2 {fill:white}
   ]]>
  </style>
    <clipPath id="id0">
     <path d="M11.5253 5.16924l7.20463 -0.0112477c0.2506,-0.00044991 0.455084,0.204709 0.455084,0.454859l0 12.2848c0,0.250375 -0.204484,0.455084 -0.455084,0.455084l-9.21055 0c-0.249925,0 -0.454859,-0.204709 -0.455084,-0.455084l-0.0114727 -10.2789 2.47248 -2.44953z"/>
    </clipPath>
     <clipPath id="id1">
      <path d="M17.6189 32.5944c-0.0483653,-0.905668 -0.0620875,-1.85363 0.0643371,-2.15304 0.263197,-0.6247 0.729079,-0.710857 1.05571,-2.47068 0.326634,-1.76005 0.370951,-5.62275 0.370951,-5.62275 0,0 0.0362177,-0.3741 -0.32551,-0.592981 -0.361727,-0.218881 -0.911067,-0.0737852 -0.911067,-0.0737852 0,0 0.17479,-1.13557 -0.484553,-1.58053 -0.659118,-0.444736 -1.13377,0.17344 -1.13377,0.17344 0,0 0.185588,-1.17539 -0.462732,-1.49775 -0.64832,-0.32236 -1.18416,0.1244 -1.18416,0.1244l0.0679364 -2.60318c0,0 0.0661367,-0.702309 -0.812087,-0.923665 -0.877999,-0.221131 -1.19046,0.776094 -1.15244,1.53059 0.0377924,0.754499 -0.161518,4.89322 -0.284118,6.03824 -0.12305,1.14457 0.00112477,0.97068 0.00112477,0.97068 0.0125975,-0.0929064 -0.065012,-0.244526 -0.0593881,-0.330234 0.158818,-2.44751 -2.29769,-2.23785 -1.83046,0.141947 0.197735,1.00555 0.413917,3.49467 0.657093,4.03569 0.242951,0.540791 1.41699,1.76005 1.62305,2.44458 0.206059,0.684538 0.143521,2.14809 0.143521,2.14809l4.65657 0.240927z"/>
     </clipPath>
 </defs>
 <g id="Layer_x0020_1">
  <metadata id="CorelCorpID_0Corel-Layer"/>
  <g id="_480125000">
   <path id="_486696592" class="fil0" d="M18.1122 0.712432c5.55638,2.28329 9.05758,5.40409 10.3515,7.15491 1.29417,1.7506 3.57746,7.76432 0.380624,12.1784 -3.19683,4.41406 3.54776,11.9273 -12.912,12.4886 -16.4599,0.561262 -14.261,-7.61742 -15.0985,-14.8484 -0.837282,-7.23095 -0.989576,-11.189 2.43581,-13.7007 3.93334,-2.88437 10.127,-5.21085 14.8425,-3.27287z"/>
   <rect id="_486696448" class="fil1" transform="matrix(0.597583 0.135568 0.135568 -0.597583 16.2056 17.8457)" width="16.942" height="21.4047" rx="0.800839" ry="0.800839"/>
   <rect id="_472108240" class="fil2 str0" transform="matrix(0.597583 0.135568 0.135568 -0.597583 15.9291 18.0729)" width="16.942" height="21.4047" rx="0.800839" ry="0.800839"/>
   <path id="_251793336" class="fil1" d="M11.4412 4.87027l7.20463 -0.0112477c0.250375,-0.00044991 0.455084,0.204934 0.455084,0.455084l0 12.2846c0,0.2506 -0.204709,0.455309 -0.455084,0.455309l-9.21055 0c-0.25015,0 -0.455084,-0.204709 -0.455309,-0.455309l-0.0112477 -10.2786 2.47248 -2.44976z"/>
   <path id="_253187024" class="fil2" d="M11.5253 5.16924l7.20463 -0.0112477c0.2506,-0.00044991 0.455084,0.204709 0.455084,0.454859l0 12.2848c0,0.250375 -0.204484,0.455084 -0.455084,0.455084l-9.21055 0c-0.249925,0 -0.454859,-0.204709 -0.455084,-0.455084l-0.0114727 -10.2789 2.47248 -2.44953z"/>
   <g style="clip-path:url(#id0)">
    <g>
     <path id="_4654327921" class="fil3 str0" d="M7.56861 4.51304l3.99362 0 0 2.04956c0,0.577684 -0.472405,1.05054 -1.05031,1.05054l-2.94331 0 0 -3.1001z"/>
    </g>
   </g>
   <path class="fil3 str0" d="M11.5253 5.16924l7.20463 -0.0112477c0.2506,-0.00044991 0.455084,0.204709 0.455084,0.454859l0 12.2848c0,0.250375 -0.204484,0.455084 -0.455084,0.455084l-9.21055 0c-0.249925,0 -0.454859,-0.204709 -0.455084,-0.455084l-0.0114727 -10.2789 2.47248 -2.44953z"/>
   <path id="_465433080" class="fil2" d="M15.0648 7.98252c0.0391421,0.0852579 0.0805338,0.184913 0.112252,0.284118l-0.00337432 0.00539892 -0.00269946 0.00359928 -0.000899819 0.00134973 -0.00359928 0.00539892 -0.00382423 0.00517396 -0.00044991 0.000674865 -0.00314937 0.0044991 -0.00382423 0.00517396 -0.00224955 0.00292441 -0.00157468 0.00224955 -0.00382423 0.00517396 -0.00382423 0.00539892 -0.000224955 0 -0.00404919 0.00517396 -0.00382423 0.00517396 -0.00179964 0.00224955 -0.0024745 0.00314937 -0.00404919 0.00517396 -0.00337432 0.00427414 -0.000899819 0.000899819 -0.00427414 0.00517396 -0.00427414 0.00539892 -0.000899819 0.00134973 -0.00337432 0.00382423 -0.0044991 0.00539892 -0.00292441 0.00337432 -0.00134973 0.00179964 -0.00472405 0.00517396 -0.00427414 0.00539892 -0.000674865 0.00044991 -0.00404919 0.00472405 -0.0044991 0.00517396 -0.0024745 0.00292441 -0.00224955 0.0024745 -0.00494901 0.00539892 -0.00427414 0.00472405 -0.000224955 0.00044991 -0.00494901 0.00517396 -0.00472405 0.00517396 -0.00179964 0.00202459 -0.00314937 0.00337432 -0.00494901 0.00539892 -0.00404919 0.00404919 -0.000899819 0.00112477 -0.00517396 0.00517396 -0.00494901 0.00517396 -0.000899819 0.00112477 -0.00427414 0.00427414 -0.00517396 0.00539892 -0.00314937 0.00314937 -0.00202459 0.00202459 -0.00517396 0.00517396 -0.00517396 0.00517396 -0.000224955 0.00044991 -0.00517396 0.00494901 -0.00539892 0.00539892 -0.0024745 0.00224955 -0.00269946 0.00292441 -0.00539892 0.00517396 -0.00494901 0.0044991 -0.00044991 0.000899819 -0.00562387 0.00517396 -0.00539892 0.00517396 -0.00179964 0.00157468 -0.00382423 0.00359928 -0.00562387 0.00539892 -0.00404919 0.00382423 -0.00134973 0.00134973 -0.00584883 0.00517396 -0.00562387 0.00517396 -0.000674865 0.000899819 -0.00494901 0.0044991 -0.00584883 0.00517396 -0.00314937 0.00292441 -0.0024745 0.00224955 -0.00584883 0.00517396 -0.00584883 0.00517396 -0.00562387 0.00539892 -0.00607378 0.00494901 -0.0024745 0.00224955 -0.00337432 0.00314937 -0.00607378 0.00517396 -0.00494901 0.00427414 -0.000899819 0.000899819 -0.00584883 0.00517396 -0.00607378 0.00494901 -0.00157468 0.00157468 -0.0044991 0.00382423 -0.00584883 0.00494901 -0.00157468 -0.00269946 -0.00157468 -0.0024745 -0.00157468 -0.00269946 -0.00134973 -0.00269946 -0.00157468 -0.00269946 -0.00899819 -0.0159718 -0.00157468 -0.00269946 -0.00134973 -0.0024745 -0.00179964 -0.00269946 -0.00764847 -0.0130474 -0.00134973 -0.00269946 -0.00157468 -0.00269946 -0.00157468 -0.0024745 -0.00157468 -0.00269946 -0.00157468 -0.0024745 -0.00157468 -0.0024745 -0.00134973 -0.00269946 -0.00157468 -0.00269946 -0.00157468 -0.0024745 -0.00157468 -0.0024745 -0.00157468 -0.0024745 -0.00157468 -0.00269946 -0.00134973 -0.0024745 -0.00179964 -0.00269946 -0.00157468 -0.0024745 -0.00134973 -0.0024745 -0.00314937 -0.00517396 -0.00157468 -0.0024745 -0.000674865 -0.00134973 -0.000899819 -0.00112477 -0.00314937 -0.00517396 -0.00157468 -0.0024745 -0.00157468 -0.0024745 -0.00157468 -0.0024745 -0.00157468 -0.0024745 -0.00157468 -0.0024745 -0.00157468 -0.0024745 -0.00157468 -0.0024745 -0.00157468 -0.0024745 -0.00157468 -0.0024745 -0.00157468 -0.0024745 -0.00157468 -0.0024745 -0.00157468 -0.0024745 -0.00157468 -0.0024745 -0.00157468 -0.0024745 -0.00157468 -0.0024745 -0.00157468 -0.0024745 -0.00157468 -0.0024745 -0.00787342 -0.0121476 -0.00179964 -0.00224955 0.00359928 -0.00382423 0.00359928 -0.00359928 0.00359928 -0.00382423 0.00359928 -0.00359928 0.00359928 -0.00359928 0.000899819 -0.000899819 0.0024745 -0.00292441 0.00359928 -0.00359928 0.00359928 -0.00382423 0.00337432 -0.00359928 0.00359928 -0.00382423 0.00337432 -0.00359928 0.00269946 -0.00292441 0.000674865 -0.000899819 0.00337432 -0.00382423 0.00337432 -0.00359928 0.00359928 -0.00382423 0.00314937 -0.00382423 0.00359928 -0.00359928 0.00337432 -0.00382423 0.000899819 -0.000899819 0.00224955 -0.00269946 0.00337432 -0.00382423 0.00337432 -0.00382423 0.00314937 -0.00382423 0.00314937 -0.00359928 0.00337432 -0.00382423 0.00269946 -0.00292441 0.00044991 -0.000899819 0.00337432 -0.00359928 0.00314937 -0.00382423 0.00314937 -0.00382423 0.00314937 -0.00382423 0.00314937 -0.00359928 0.00314937 -0.00382423 0.00112477 -0.00134973 0.00202459 -0.0024745 0.00292441 -0.00382423 0.00314937 -0.00382423 0.00314937 -0.00382423 0.00292441 -0.00359928 0.00314937 -0.00404919 0.00269946 -0.00314937 0.000224955 -0.00044991 0.00314937 -0.00382423 0.00292441 -0.00382423 0.00292441 -0.00382423 0.00292441 -0.00359928 0.00292441 -0.00404919 0.00292441 -0.00382423 0.00112477 -0.00157468 0.00179964 -0.00202459 0.00292441 -0.00404919 0.00269946 -0.00382423 0.00292441 -0.00359928 0.00292441 -0.00382423 0.00269946 -0.00404919 0.0024745 -0.00337432 0.000224955 -0.00044991 0.00269946 -0.00359928 0.00292441 -0.00382423 0.00269946 -0.00404919 0.0024745 -0.00382423 0.00292441 -0.00382423 0.0024745 -0.00382423 0.00134973 -0.00179964 0.00922315 -0.0134973 0.00269946 -0.00382423 0.0024745 -0.00382423 0.0024745 -0.00382423 0.00269946 -0.00404919 0.0024745 -0.00382423 0.00112477 -0.00157468 0.00157468 -0.0024745 0.0024745 -0.00382423 0.00179964 -0.00314937 0.000674865 -0.000899819 0.00224955 -0.00359928 0.0024745 -0.00382423 0.00044991 -0.000674865 0.00179964 -0.00314937 0.0024745 -0.00382423 0.00134973 -0.00202459 0.000899819 -0.00157468 0.0024745 -0.00382423 0.00224955 -0.00337432 0 -0.000224955 0.00202459 -0.00359928 0.0024745 -0.00359928 0.000674865 -0.00134973 0.00134973 -0.00224955 0.00224955 -0.00382423 0.00157468 -0.00269946 0.00044991 -0.000674865 0.00224955 -0.00359928 0.00202459 -0.00359928 0.000224955 -0.00044991 0.00179964 -0.00292441 0.00202459 -0.00359928 0.00112477 -0.00179964 0.000674865 -0.00179964 0.00202459 -0.00337432 0.00179964 -0.00292441 0 -0.00044991 0.00202459 -0.00337432 0.00179964 -0.00337432 0.000674865 -0.00112477 0.00134973 -0.00224955 0.00179964 -0.00337432 0.00112477 -0.0024745 0.00044991 -0.000899819 0.00179964 -0.00337432 0.00157468 -0.00314937 0.000224955 -0.00044991 0.00157468 -0.00292441 0.00179964 -0.00337432 0.000674865 -0.00157468 0.000674865 -0.00157468 0.00179964 -0.00337432 0.00134973 -0.00269946 0 -0.00044991 0.00157468 -0.00314937 0.00157468 -0.00337432 0.00044991 -0.000674865 0.00112477 -0.0024745 0.00134973 -0.00314937 0.000899819 -0.00202459 0.00044991 -0.00112477 0.00134973 -0.00314937 0.00134973 -0.00292441 0.000224955 -0.000224955 0.00112477 -0.00314937 0.00134973 -0.00314937 0.00044991 -0.00112477 0.000674865 -0.00179964 0.00134973 -0.00314937 0.000899819 -0.0024745 0.000224955 -0.000674865 0.00112477 -0.00292441 0.00112477 -0.00314937 0.000224955 -0.000674865 0.000899819 -0.00224955 0.000899819 -0.00314937 0.000674865 -0.00179964 0.00044991 -0.00112477 0.000899819 -0.00314937 0.00112477 -0.00292441 0.000899819 -0.00314937 0.000899819 -0.00292441 0.00044991 -0.00112477 0.00044991 -0.00179964 0.000899819 -0.00292441 0.000674865 -0.0024745 0 -0.000674865 0.000674865 -0.00292441 0.000899819 -0.00292441 0.000224955 -0.000674865 0.00044991 -0.0024745 0.000674865 -0.00292441zm-2.85805 5.68731l-0.102354 0.0785092 1.13445 0.957183 0.463182 -0.442936c0,0 0.132948,0.480054 0.609628,0.381298 0.476904,-0.0987552 1.1241,-0.793641 1.1241,-0.793641l-0.185588 -0.143296 0.00292441 -0.0044991 0.00899819 -0.0141722 -0.00899819 0.0141722 -0.00292441 0.0044991m0 0l-0.00854828 -0.00652369 -0.000224955 0.00044991 -0.000899819 0.00112477 -0.000899819 0.00112477 -0.000674865 0.000899819 0 0.000224955 -0.00112477 0.00134973 -0.00112477 0.00112477 0 0.000224955 -0.00134973 0.00179964 -0.00112477 0.00157468 -0.00044991 0.000224955 -0.00292441 0.00382423 -0.00044991 0.00044991 -0.00202459 0.0024745 -0.00134973 0.00179964 -0.000674865 0.000674865 -0.00224955 0.00292441 -0.00157468 0.00202459 -0.000674865 0.000899819 -0.0024745 0.00314937 -0.00179964 0.00202459 -0.000899819 0.00112477 -0.00292441 0.00359928 -0.00157468 0.00202459 -0.00134973 0.00157468 -0.00292441 0.00359928 -0.00179964 0.00224955 -0.00134973 0.00157468 -0.00337432 0.00404919 -0.00202459 0.00224955 -0.00157468 0.00202459 -0.00359928 0.00427414 -0.00179964 0.00202459 -0.00202459 0.0024745 -0.00359928 0.0044991 -0.00179964 0.00224955 -0.00224955 0.0024745 -0.00404919 0.00472405 -0.00179964 0.00202459 -0.0024745 0.00292441 -0.00427414 0.00517396 -0.00179964 0.00202459 -0.00269946 0.00314937 -0.00472405 0.00539892 -0.00134973 0.00179964 -0.00314937 0.00359928 -0.00494901 0.00562387 -0.00989801 0.0112477 -0.00134973 0.00179964 -0.00382423 0.00427414 -0.00539892 0.00584883 -0.00112477 0.00134973 -0.00427414 0.00472405 -0.00539892 0.00629874 -0.000899819 0.00112477 -0.00472405 0.00494901 -0.00562387 0.00629874 -0.000674865 0.00112477 -0.00967306 0.0103479 -0.00134973 0.00157468 -0.000674865 0.000674865 -0.00539892 0.00584883 -0.00607378 0.00652369 -0.00044991 0.000674865 -0.00562387 0.00607378 -0.0128224 0.0137222 -0.00629874 0.0069736 0 0 -0.00674865 0.0069736 -0.00629874 0.00674865 -0.00044991 0.000224955 -0.00674865 0.0069736 -0.00607378 0.00674865 -0.000674865 0.00044991 -0.0069736 0.00719856 -0.00607378 0.00652369 -0.000899819 0.000899819 -0.00719856 0.0069736 -0.00607378 0.00652369 -0.00112477 0.000899819 -0.00719856 0.00742351 -0.014847 0.014847 -0.00562387 0.00562387 -0.00179964 0.00179964 -0.00764847 0.00742351 -0.00742351 0.00629874 -0.000899819 0.000899819 -0.00674865 0.00562387 -0.00742351 0.00629874 -0.0152969 0.0128224 -0.00787342 0.00652369 -0.00787342 0.00629874 -0.00764847 0.00652369 -0.00787342 0.00629874 -0.000899819 0.000899819 -0.0069736 0.00562387 -0.0641121 0.0506148 -0.00809837 0.00607378 -0.0575884 0.0431913 -0.00832333 0.00607378 -0.0069736 0.00539892 -0.00134973 0.000674865 -0.00832333 0.00607378 -0.00832333 0.00607378 -0.00427414 0.00314937 -0.00404919 0.00292441 -0.00832333 0.00584883 -0.00832333 0.00584883 -0.00157468 0.00134973 -0.00674865 0.00472405 -0.00832333 0.00562387 -0.00719856 0.00517396 -0.00112477 0.000674865 -0.00854828 0.00607378 -0.00809837 0.00562387 -0.00472405 0.00314937 -0.00382423 0.0024745 -0.00832333 0.00584883 -0.00832333 0.00562387 -0.00179964 0.00112477 -0.00652369 0.0044991 -0.00832333 0.00539892 -0.00742351 0.00494901 -0.000899819 0.000674865 -0.00832333 0.00562387 -0.00832333 0.00539892 -0.0044991 0.00292441 -0.00382423 0.0024745 -0.00809837 0.00539892 -0.00832333 0.00539892 -0.00202459 0.00112477 -0.00629874 0.00404919 -0.00809837 0.00517396 -0.00742351 0.00472405 -0.000899819 0.00044991 -0.00809837 0.00517396 -0.00809837 0.00517396 -0.00494901 0.00292441 -0.00337432 0.00202459 -0.00809837 0.00494901 -0.00809837 0.00517396 -0.00202459 0.00112477 -0.00607378 0.00359928 -0.00112477 0.000899819 -0.0141722 0.00832333 -0.000674865 0.00044991 -0.0157468 0.0094481 -0.00494901 0.00269946 -0.00314937 0.00179964 -0.00787342 0.00472405 -0.000224955 0 -0.000224955 0.000224955 -0.00314937 0.00112477 -0.0339682 0.0116977 -0.00877324 0.00292441 -0.00877324 0.00292441 -0.000899819 0.000224955 -0.00764847 0.0024745 -0.00854828 0.00292441 -0.00202459 0.00044991 -0.00629874 0.00202459 -0.00832333 0.00292441 -0.00269946 0.000899819 -0.00539892 0.00157468 -0.00809837 0.00269946 -0.00359928 0.00112477 -0.00427414 0.00134973 -0.00787342 0.00269946 -0.00427414 0.00134973 -0.00359928 0.00134973 -0.00742351 0.0024745 -0.00494901 0.00157468 -0.0024745 0.000899819 -0.00742351 0.00224955 -0.00584883 0.00202459 -0.00157468 0.00044991 -0.00719856 0.0024745 -0.00607378 0.00202459 -0.000899819 0.000224955 -0.0069736 0.00224955 -0.00674865 0.00224955 -0.00674865 0.00224955 -0.00674865 0.00224955 -0.000674865 0.000224955 -0.00584883 0.00179964 -0.00652369 0.00202459 -0.00134973 0.000674865 -0.00494901 0.00157468 -0.00629874 0.00202459 -0.00202459 0.000674865 -0.00404919 0.00134973 -0.00607378 0.00179964 -0.00269946 0.000899819 -0.00337432 0.00112477 -0.00562387 0.00179964 -0.00337432 0.00112477 -0.0024745 0.000674865 -0.00584883 0.00179964 -0.00359928 0.00112477 -0.00179964 0.000674865 -0.00562387 0.00179964 -0.00427414 0.00112477 -0.00112477 0.00044991 -0.00539892 0.00157468 -0.00472405 0.00157468 -0.00044991 0 -0.00517396 0.00157468 -0.00494901 0.00157468 -0.00494901 0.00157468 -0.00494901 0.00134973 -0.000674865 0 -0.00427414 0.00134973 -0.00472405 0.00112477 -0.00112477 0.00044991 -0.00359928 0.000899819 -0.0044991 0.00134973 -0.00157468 0.00044991 -0.00292441 0.000674865 -0.0044991 0.00112477 -0.00179964 0.000674865 -0.0308188 0.00674865 -0.00337432 0.000899819 -0.00044991 0 -0.00382423 0.000674865 -0.00337432 0.00044991 -0.000224955 0.000224955 -0.00337432 0.00044991 -0.0069736 0.000899819 -0.00337432 0.00044991 -0.000899819 0.000224955 -0.0024745 0.000224955 -0.00337432 0.000224955 -0.00112477 0.000224955 -0.00202459 0.000224955 -0.0024745 -0.00157468 -0.00269946 -0.00112477 -0.00044991 -0.000224955 -0.00472405 -0.00269946 -0.0024745 -0.00157468 -0.00224955 -0.00112477 -0.000224955 -0.000224955 -0.00269946 -0.00179964 -0.0024745 -0.00157468 -0.0024745 -0.00179964 -0.0123725 -0.00899819 -0.0024745 -0.00202459 -0.0024745 -0.00202459 -0.00494901 -0.00404919 -0.00224955 -0.00202459 -0.0024745 -0.00224955 -0.000899819 -0.000674865 -0.00157468 -0.00134973 -0.00224955 -0.00224955 -0.0024745 -0.0024745 -0.00224955 -0.00202459 0 0 -0.00224955 -0.0024745 -0.0024745 -0.0024745 -0.00224955 -0.00224955 -0.00134973 -0.00134973 -0.000899819 -0.00112477 -0.00224955 -0.0024745 -0.00224955 -0.0024745 -0.0024745 -0.0024745 -0.00044991 -0.000674865 -0.00157468 -0.00202459 -0.00224955 -0.00269946 -0.0024745 -0.0024745 -0.00179964 -0.0024745 -0.000224955 -0.000224955 -0.00224955 -0.00269946 -0.00224955 -0.00269946 -0.00202459 -0.00292441 -0.00112477 -0.00134973 -0.00112477 -0.00134973 -0.00224955 -0.00292441 -0.00202459 -0.00269946 -0.00224955 -0.00292441 -0.000224955 -0.00044991 -0.00179964 -0.0024745 -0.00427414 -0.00584883 -0.00157468 -0.0024745 -0.0024745 -0.00337432 -0.00224955 -0.00314937 -0.00202459 -0.00292441 -0.000899819 -0.00157468 -0.00112477 -0.00179964 -0.00404919 -0.00607378 -0.00202459 -0.00314937 0 -0.000224955 -0.00202459 -0.00292441 -0.00202459 -0.00314937 -0.00179964 -0.00314937 -0.00134973 -0.00224955 -0.000674865 -0.00112477 -0.00179964 -0.00314937 -0.00202459 -0.00337432 -0.00202459 -0.00314937 -0.00044991 -0.00112477 -0.00134973 -0.00224955 -0.00382423 -0.00674865 -0.00179964 -0.00314937 0 -0.000224955 0 0.000224955 0.00179964 0.00314937 0.00382423 0.00674865 0.00134973 0.00224955 0.00044991 0.00112477 0.00202459 0.00314937 0.00202459 0.00337432 0.00179964 0.00314937 0.000674865 0.00112477 0.00134973 0.00224955 0.00179964 0.00314937 0.00202459 0.00314937 0.00202459 0.00292441 0 0.000224955 0.00202459 0.00314937 0.00404919 0.00607378 0.00112477 0.00179964 0.000899819 0.00157468 0.00202459 0.00292441 0.00224955 0.00314937 0.0024745 0.00337432 0.00157468 0.0024745 0.00427414 0.00584883 0.00179964 0.0024745 0.000224955 0.00044991 0.00224955 0.00292441 0.00202459 0.00269946 0.00224955 0.00292441 0.00112477 0.00134973 0.00112477 0.00134973 0.00202459 0.00292441 0.00224955 0.00269946 0.00224955 0.00269946 0.000224955 0.000224955 0.00179964 0.0024745 0.0024745 0.0024745 0.00224955 0.00269946 0.00157468 0.00202459 0.00044991 0.000674865 0.0024745 0.0024745 0.00224955 0.0024745 0.00224955 0.0024745 0.000899819 0.00112477 0.00134973 0.00134973 0.00224955 0.00224955 0.0024745 0.0024745 0.00224955 0.0024745 0 0 0.00224955 0.00202459 0.0024745 0.0024745 0.00224955 0.00224955 0.00157468 0.00134973 0.000899819 0.000674865 0.0024745 0.00224955 0.00224955 0.00202459 0.00494901 0.00404919 0.0024745 0.00202459 0.0024745 0.00202459 0.0123725 0.00899819 0.0024745 0.00179964 0.0024745 0.00157468 0.00269946 0.00179964 0.000224955 0.000224955 0.00224955 0.00112477 0.0024745 0.00157468 0.00472405 0.00269946 0.00044991 0.000224955 0.00269946 0.00112477m-0.141047 -0.158818l-0.445186 -0.0276694 0.445186 0.0276694zm-1.58301 -0.583758l-0.138572 -0.111353 0.138572 0.111353zm-0.138572 -0.111353l0.138572 0.111353 -0.138572 -0.111353zm0.138572 0.111353l-0.00404919 -0.00314937 -0.0112477 -0.00809837 -0.0107978 -0.00787342 -0.0103479 -0.00764847 -0.00967306 -0.00719856 -0.00899819 -0.00652369 -0.00854828 -0.00629874 -0.00787342 -0.00584883 -0.00719856 -0.00539892 -0.00674865 -0.00472405 -0.00584883 -0.00427414 -0.00517396 -0.00382423 -0.0044991 -0.00314937 -0.00359928 -0.00269946 -0.00292441 -0.00224955 -0.00224955 -0.00134973 -0.00112477 -0.00112477 -0.00044991 -0.000224955 0.00044991 0.000224955m3.06681 -1.8471c-0.0116977,0.161293 -0.0364427,0.310438 -0.0902069,0.453059 -0.156794,0.415717 -0.217981,0.504124 -0.217981,0.504124l0.135873 0.197735m0 0l0.0740101 0.107303 -0.0852579 -0.107303 0.0852579 0.107303 0.00044991 0.000674865m0 0l0.164442 0.239127c0,0 0.219556,0.350705 0.648545,0.42224 0.428989,0.0715356 0.487027,0.204484 0.453059,0.35093 -0.0341931,0.146446 -0.367126,0.336982 -0.333158,0.704784 0.0139472,0.152519 0.0924564,0.377474 0.179514,0.588707m-5.44998 0c0.114727,-0.094706 0.209658,-0.181988 0.254199,-0.242951l-0.000899819 0.00224955 -0.000899819 0.00224955 0 0.000224955 -0.000674865 0.00202459 -0.000674865 0.00224955 -0.000899819 0.00202459 -0.00044991 0.00157468 -0.000224955 0.000674865 -0.0024745 0.0069736 -0.000674865 0.00112477 -0.000674865 0.00202459 -0.000674865 0.00202459 -0.000674865 0.00202459 -0.000674865 0.00179964 -0.000899819 0.00179964 -0.000674865 0.00179964 -0.000224955 0.00134973 -0.00044991 0.00044991 -0.000674865 0.00179964 -0.000674865 0.00179964 -0.00044991 0.00179964 -0.000224955 0.00044991 -0.00044991 0.00112477 -0.000674865 0.00157468 -0.000674865 0.00179964 -0.00044991 0.00134973 -0.000224955 0 -0.00044991 0.00157468 -0.000674865 0.00157468 -0.000674865 0.00157468 -0.000224955 0.000899819 -0.000224955 0.00044991 -0.000674865 0.00134973 -0.00044991 0.00157468 -0.00157468 0.00382423 -0.00044991 0.00112477 -0.00044991 0.00112477 0 0 -0.000674865 0.00134973 -0.000224955 0.00112477 -0.00044991 0.000899819 -0.00044991 0.000674865 0 0.00044991 -0.00044991 0.000899819 -0.00044991 0.000899819 -0.00044991 0.00112477 0 0 -0.00044991 0.000674865 0 0.000674865 -0.00044991 0.000674865 -0.000224955 0.000674865 -0.00044991 0.000899819 -0.000224955 0.000224955 -0.000224955 0.000674865 -0.000224955 0.000674865 -0.000224955 0.00044991 0 0.00044991 -0.000224955 0.00044991 -0.000224955 0.00044991 -0.000224955 0.00044991 -0.000224955 0.00044991 -0.000224955 0.00044991 0 0.000224955 -0.000224955 0.00044991 0 0 0 0.000224955 -0.000224955 0.000224955 -0.000224955 0.00044991 0 0 0 0.000224955 0 -0.000224955 0 0 0.000224955 -0.00044991 0.000224955 -0.000224955 0 -0.000224955 0 0 0.000224955 -0.00044991 0 -0.000224955 0.000224955 -0.00044991 0.000224955 -0.00044991 0.000224955 -0.00044991 0.000224955 -0.00044991 0.000224955 -0.00044991 0 -0.00044991 0.000224955 -0.00044991 0.000224955 -0.000674865 0.000224955 -0.000674865 0.000224955 -0.000224955 0.00044991 -0.000899819 0.000224955 -0.000674865 0.00044991 -0.000674865 0 -0.000674865 0.00044991 -0.000674865 0 0 0.00044991 -0.00112477 0.00044991 -0.000899819 0.00044991 -0.000899819 0 -0.00044991 0.00044991 -0.000674865 0.00044991 -0.000899819 0.000224955 -0.00112477 0.000674865 -0.00134973 0 0 0.00044991 -0.00112477 0.00044991 -0.00112477 0.00157468 -0.00382423 0.00044991 -0.00157468 0.000674865 -0.00134973 0.000224955 -0.00044991 0.000224955 -0.000899819 0.000674865 -0.00157468 0.000674865 -0.00157468 0.00044991 -0.00157468 0.000224955 0 0.00044991 -0.00134973 0.000674865 -0.00179964 0.000674865 -0.00157468 0.00044991 -0.00112477 0.000224955 -0.00044991 0.00044991 -0.00179964 0.000674865 -0.00179964 0.000674865 -0.00179964 0.00044991 -0.00044991 0.000224955 -0.00134973 0.000674865 -0.00179964 0.000899819 -0.00179964 0.000674865 -0.00179964 0.000674865 -0.00202459 0.000674865 -0.00202459 0.000674865 -0.00202459 0.000674865 -0.00112477 0.0024745 -0.0069736 0.000224955 -0.000674865 0.00044991 -0.00157468 0.000899819 -0.00202459 0.000674865 -0.00224955 0.000674865 -0.00202459 0 -0.000224955 0.000899819 -0.00224955 0.000899819 -0.00224955c0.0152969,-0.0211458 0.024745,-0.0391421 0.0267696,-0.0530893l0.00989801 -0.0717606 0 -0.00044991 0.00044991 -0.00134973 0.00044991 -0.00179964 0.000224955 -0.00044991 0.000224955 -0.00134973 0.00044991 -0.00179964 0.00404919 -0.0182213 0.00044991 -0.00202459 0.000224955 -0.00134973 0.000224955 -0.00044991 0.00044991 -0.00179964 0.000224955 -0.00179964 0.00044991 -0.00202459 0.00044991 -0.00179964 0.00044991 -0.00179964 0.000224955 -0.00202459 0.000224955 -0.000899819 0.000224955 -0.000899819 0.00044991 -0.00202459 0.00044991 -0.00179964 0.000224955 -0.00202459 0.00044991 -0.00179964 0.00044991 -0.00202459 0.000224955 -0.00179964 0 -0.00044991 0.00044991 -0.00157468 0.000224955 -0.00179964 0.00044991 -0.00202459 0.00044991 -0.00202459 0.000674865 -0.00382423 0.000224955 -0.00157468 0 -0.000224955 0.00044991 -0.00202459 0.00044991 -0.00202459 0.000224955 -0.00202459 0.000224955 -0.00179964 0.00044991 -0.00202459 0.000224955 -0.00179964 0.000224955 -0.00112477 0.000224955 -0.00112477 0.000224955 -0.00179964 0.000224955 -0.00202459 0.00044991 -0.00202459 0.000224955 -0.00202459 0.00044991 -0.00179964 0.000224955 -0.00202459 0.000224955 -0.00044991 0.000224955 -0.00157468 0.000224955 -0.00202459 0.000899819 -0.00584883 0.000224955 -0.00224955 0.000674865 -0.00382423 0.000224955 -0.00224955 0.000224955 -0.00179964 0.00044991 -0.00202459 0.000224955 -0.00224955 0.000224955 -0.00202459 0.000224955 -0.00112477 0 -0.000674865 0.000224955 -0.00224955 0.000224955 0 0.00832333 -0.0195711c0.0272195,-0.0611877 0.0373425,-0.0818836 0.0373425,-0.153419 0,-0.0715356 -0.109103,-0.296041 -0.109103,-0.296041 0,0 -0.0323935,-0.0236203 -0.0618626,-0.0618626l-0.000224955 -0.000224955m0.341032 -0.37275c0.0681613,-0.0278944 0.137447,-0.0632123 0.202009,-0.113827l0.00764847 -0.00607378 0.00607378 -0.00382423 0.000674865 -0.00044991 0.00652369 -0.00427414 0.00652369 -0.0044991 0.00584883 -0.00404919 0.000674865 -0.000224955 0.00674865 -0.0044991 0.00652369 -0.0044991 0.00607378 -0.00427414 0.00044991 -0.000224955 0.00674865 -0.00472405 0.00652369 -0.0044991 0.00607378 -0.00427414 0.00044991 -0.00044991 0.00674865 -0.00472405 0.00652369 -0.00472405 0.00607378 -0.0044991 0.00044991 -0.000224955 0.00652369 -0.00494901 0.00674865 -0.00472405 0.00607378 -0.00472405 0.00044991 -0.000224955 0.00674865 -0.00494901 0.00652369 -0.00517396 0.00607378 -0.00472405 0.00044991 -0.00044991 0.00652369 -0.00494901 0.00674865 -0.00517396 0.00607378 -0.00494901 0.000224955 -0.000224955 0.0132723 -0.0107978 0.00607378 -0.00494901 0.00044991 -0.00044991 0.00652369 -0.00517396 0.00652369 -0.00562387 0.00607378 -0.00517396 0.00044991 -0.000224955 0.00652369 -0.00562387 0.00652369 -0.00562387 0.00607378 -0.00539892 0.00044991 -0.000224955 0.00629874 -0.00562387 0.00629874 -0.00584883 0.00629874 -0.00562387 0.000224955 -0.000224955 0.00652369 -0.00584883 0.00629874 -0.00584883 0.00629874 -0.00584883 0.000224955 -0.000224955 0.00629874 -0.00607378 0.00629874 -0.00607378 0.00607378 -0.00584883 0.00044991 -0.000224955 0.00629874 -0.00607378 0.00607378 -0.00629874 0.00629874 -0.00607378 0.000224955 -0.000224955 0.00629874 -0.00629874 0.00607378 -0.00629874 0.00607378 -0.00652369 0.000224955 0 0.00629874 -0.00652369 0.00607378 -0.00652369 0.00584883 -0.00652369 0.000224955 0 0.00629874 -0.00674865 0.00607378 -0.00674865 0.00607378 -0.00674865 0 0 0.00607378 -0.00674865 0.00584883 -0.0069736 0.00607378 -0.0069736 0 0 0.00607378 -0.0069736 0.00584883 -0.00719856 0.00584883 -0.0069736 0.00607378 -0.00719856 0.00584883 -0.00719856 0.00562387 -0.00719856 0 -0.000224955 0.00607378 -0.00719856 0.00562387 -0.00742351 0.00584883 -0.00742351 -0.00584883 0.00742351 -0.00562387 0.00742351 -0.00607378 0.00719856 0 0.000224955 -0.00562387 0.00719856 -0.00584883 0.00719856 -0.00607378 0.00719856 -0.00584883 0.0069736 -0.00584883 0.00719856 -0.00607378 0.0069736 0 0 -0.00607378 0.0069736 -0.00584883 0.0069736 -0.00607378 0.00674865 0 0 -0.00607378 0.00674865 -0.00607378 0.00674865 -0.00629874 0.00674865 -0.000224955 0 -0.00584883 0.00652369 -0.00607378 0.00652369 -0.00629874 0.00652369 -0.000224955 0 -0.00607378 0.00652369 -0.00607378 0.00629874 -0.00629874 0.00629874 -0.000224955 0.000224955 -0.00629874 0.00607378 -0.00607378 0.00629874 -0.00629874 0.00607378 -0.00044991 0.000224955 -0.00607378 0.00584883 -0.00629874 0.00607378 -0.00629874 0.00607378 -0.000224955 0.000224955 -0.00629874 0.00584883 -0.00629874 0.00584883 -0.00652369 0.00584883 -0.000224955 0.000224955 -0.00629874 0.00562387 -0.00629874 0.00584883 -0.00629874 0.00562387 -0.00044991 0.000224955 -0.00607378 0.00539892 -0.00652369 0.00562387 -0.00652369 0.00562387 -0.00044991 0.000224955 -0.00607378 0.00517396 -0.00652369 0.00562387 -0.00652369 0.00517396 -0.00044991 0.00044991 -0.00607378 0.00494901 -0.0132723 0.0107978 -0.000224955 0.000224955 -0.00607378 0.00494901 -0.00674865 0.00517396 -0.00652369 0.00494901 -0.00044991 0.00044991 -0.00607378 0.00472405 -0.00652369 0.00517396 -0.00674865 0.00494901 -0.00044991 0.000224955 -0.00607378 0.00472405 -0.00674865 0.00472405 -0.00652369 0.00494901 -0.00044991 0.000224955 -0.00607378 0.0044991 -0.00652369 0.00472405 -0.00674865 0.00472405 -0.00044991 0.00044991 -0.00607378 0.00427414 -0.00652369 0.0044991 -0.00674865 0.00472405 -0.00044991 0.000224955 -0.00607378 0.00427414 -0.00652369 0.0044991 -0.00674865 0.0044991 -0.000674865 0.000224955 -0.00584883 0.00404919 -0.00652369 0.0044991 -0.00652369 0.00427414 -0.000674865 0.00044991 -0.00607378 0.00382423m0 0c0.221805,-0.177264 0.561487,-0.583758 0.588482,-0.641121 0.0269946,-0.0580384 0.444736,-0.405369 0.444736,-0.405369 0,0 -0.084808,-0.239127 -0.171416,-0.589607m0.436412 0.957633l0.0164217 0.0213707m1.2485 0.456883l0.0110228 -0.00652369m0 0l0.0366676 -0.0224955 -0.0366676 0.0224955zm0.0368926 -0.0224955c0.0168716,-0.0105729 0.0339682,-0.0220456 0.0515147,-0.0339682m0.726604 0.392096l-0.00472405 0.00472405 -0.00157468 0.00134973 -0.0069736 0.00674865 -0.00674865 0.00674865 -0.000224955 0 -0.0141722 0.0134973 -0.00112477 0.00112477 -0.0204709 0.0193461 -0.00742351 0.00674865 -0.014847 0.0137222 -0.00517396 0.00472405 -0.00224955 0.00202459 -0.00764847 0.00674865 -0.00652369 0.00584883 -0.00112477 0.000899819 -0.00764847 0.00674865 -0.00764847 0.00674865 -0.000224955 0.00044991 -0.00764847 0.00629874 -0.00764847 0.00674865 -0.00157468 0.00157468 -0.00629874 0.00494901 -0.0157468 0.0132723 -0.00787342 0.00674865 -0.0044991 0.00382423 -0.00337432 0.00269946 -0.00809837 0.00652369 -0.00607378 0.00494901 -0.00202459 0.00157468 -0.00809837 0.00629874 -0.00742351 0.00607378 -0.000674865 0.00044991 -0.00809837 0.00629874 -0.00809837 0.00652369 -0.000899819 0.000674865 -0.00742351 0.00562387 -0.00832333 0.00607378 -0.00224955 0.00179964 -0.00607378 0.0044991 -0.00809837 0.00607378 -0.00404919 0.00292441 -0.00427414 0.00314937 -0.00854828 0.00607378 -0.00539892 0.00382423 -0.00292441 0.00202459 -0.00832333 0.00607378 -0.0069736 0.0044991 -0.00157468 0.00112477 -0.00832333 0.00584883 -0.00854828 0.00562387 0 0.000224955 -0.00854828 0.00539892 -0.00832333 0.00562387 -0.00157468 0.000899819 -0.0155219 0.010123 -0.00314937 0.00179964 -0.00539892 0.00337432 -0.00877324 0.00517396 -0.0044991 0.00292441 -0.00404919 0.0024745 -0.00854828 0.00494901 -0.00607378 0.00359928 -0.00269946 0.00134973 -0.00854828 0.00494901 -0.00764847 0.00427414 -0.000899819 0.00044991 -0.00877324 0.00472405 -0.00854828 0.00472405 -0.00044991 0.000224955 -0.0344181 0.0170966 -0.00359928 0.00179964 -0.00494901 0.0024745 -0.00877324 0.00382423 -0.00517396 0.00224955 -0.00359928 0.00157468 -0.00854828 0.00382423 -0.00674865 0.00269946 -0.00202459 0.00112477 -0.00877324 0.00337432 -0.00809837 0.00314937 -0.000224955 0.000224955 -0.000224955 0 -0.000224955 0.000224955c-0.143071,0.0823335 -0.268146,0.135648 -0.339232,0.135648 -0.0222705,0 -0.0434163,-0.00562387 -0.0636622,-0.0155219l0 0 -0.00337432 0.000224955 -0.00112477 0 -0.00224955 0 -0.00337432 0.000224955 -0.0128224 -0.000224955 0 0 -0.00292441 -0.000224955 -0.00269946 -0.000224955 -0.00044991 -0.000224955 -0.00269946 -0.000224955 -0.0024745 -0.000224955 -0.00044991 -0.000224955 -0.00292441 -0.00044991 -0.00179964 -0.000224955 -0.000674865 -0.00044991 -0.00269946 -0.000674865 -0.00269946 -0.000674865 -0.0024745 -0.000674865 -0.00134973 -0.00044991 -0.00112477 -0.00044991 -0.0024745 -0.000899819 -0.0024745 -0.000899819 -0.0024745 -0.00112477 -0.000674865 -0.000224955 -0.00157468 -0.000899819 -0.00224955 -0.00112477 -0.00224955 -0.00134973 -0.00202459 -0.00134973 -0.00044991 -0.000224955 -0.00179964 -0.00134973 -0.00202459 -0.00134973 0 -0.000224955 -0.00224955 -0.00134973 -0.00179964 -0.00157468 -0.000224955 -0.000224955 -0.00179964 -0.00179964 -0.00179964 -0.00134973 -0.000224955 -0.00044991 -0.00202459 -0.00179964 -0.00134973 -0.00134973 -0.00044991 -0.000674865 -0.00202459 -0.00202459 -0.00112477 -0.00112477 -0.000674865 -0.00112477 -0.00179964 -0.00224955 -0.000899819 -0.000899819 -0.000899819 -0.00134973 -0.00179964 -0.00224955 -0.000674865 -0.00112477 -0.00112477 -0.00134973 -0.00157468 -0.0024745 -0.00044991 -0.000674865 -0.00112477 -0.00202459 -0.00179964 -0.00269946 -0.000224955 -0.000674865 -0.00157468 -0.00224955 -0.00134973 -0.00269946 -0.00044991 -0.00044991 -0.00134973 -0.0024745 -0.00157468 -0.00314937 -0.00157468 -0.00314937 -0.00134973 -0.00292441 -0.000224955 -0.000224955 -0.00157468 -0.00337432 -0.00134973 -0.00269946 -0.000224955 -0.000674865 -0.00157468 -0.00337432 -0.00112477 -0.0024745 -0.00044991 -0.00112477 -0.00157468 -0.00359928 -0.000899819 -0.00224955 -0.000674865 -0.00157468 -0.00157468 -0.00382423 -0.000674865 -0.00179964 -0.000674865 -0.00224955 -0.00157468 -0.00382423 -0.000674865 -0.00157468 -0.000899819 -0.0024745 -0.00157468 -0.00427414 -0.00044991 -0.00134973 -0.00112477 -0.00292441 -0.00157468 -0.00427414 -0.000224955 -0.000899819 -0.00134973 -0.00359928 -0.00157468 -0.00472405 0 -0.000224955 -0.00134973 -0.00427414 -0.00179964 -0.00472405 -0.00292441 -0.00922315 -0.00314937 -0.00899819 -0.0024745 -0.00787342 0 0.000224955 0.00179964 0.00314937 0.00382423 0.00674865 0.00134973 0.00224955 0.00044991 0.00112477 0.00202459 0.00314937 0.00202459 0.00337432 0.00179964 0.00314937 0.000674865 0.00112477 0.00134973 0.00224955 0.00179964 0.00314937 0.00202459 0.00314937 0.00202459 0.00292441 0 0.000224955 0.00202459 0.00314937 0.00404919 0.00607378 0.00112477 0.00179964 0.000899819 0.00157468 0.00202459 0.00292441 0.00224955 0.00314937 0.0024745 0.00337432 0.00157468 0.0024745 0.00427414 0.00584883 0.00179964 0.0024745 0.000224955 0.00044991 0.00224955 0.00292441 0.00202459 0.00269946 0.00224955 0.00292441 0.00112477 0.00134973 0.00112477 0.00134973 0.00202459 0.00292441 0.00224955 0.00269946 0.00224955 0.00269946 0.000224955 0.000224955 0.00179964 0.0024745 0.0024745 0.0024745 0.00224955 0.00269946 0.00157468 0.00202459 0.00044991 0.000674865 0.0024745 0.0024745 0.00224955 0.0024745 0.00224955 0.0024745 0.000899819 0.00112477 0.00134973 0.00134973 0.00224955 0.00224955 0.0024745 0.0024745 0.00224955 0.0024745 0 0 0.00224955 0.00202459 0.0024745 0.0024745 0.00224955 0.00224955 0.00157468 0.00134973 0.000899819 0.000674865 0.0024745 0.00224955 0.00224955 0.00202459 0.00494901 0.00404919 0.0024745 0.00202459 0.0024745 0.00202459 0.0123725 0.00899819 0.0024745 0.00179964 0.0024745 0.00157468 0.00269946 0.00179964 0.000224955 0.000224955 0.00224955 0.00112477 0.0024745 0.00157468 0.00472405 0.00269946 0.00044991 0.000224955 0.00269946 0.00112477 -0.00269946 -0.00112477 -0.00044991 -0.000224955 -0.00472405 -0.00269946 -0.0024745 -0.00157468 -0.00224955 -0.00112477 -0.000224955 -0.000224955 -0.00269946 -0.00179964 -0.0024745 -0.00157468 -0.0024745 -0.00179964 -0.0123725 -0.00899819 -0.0024745 -0.00202459 -0.0024745 -0.00202459 -0.00494901 -0.00404919 -0.00224955 -0.00202459 -0.0024745 -0.00224955 -0.000899819 -0.000674865 -0.00157468 -0.00134973 -0.00224955 -0.00224955 -0.0024745 -0.0024745 -0.00224955 -0.00202459 0 0 -0.00224955 -0.0024745 -0.0024745 -0.0024745 -0.00224955 -0.00224955 -0.00134973 -0.00134973 -0.000899819 -0.00112477 -0.00224955 -0.0024745 -0.00224955 -0.0024745 -0.0024745 -0.0024745 -0.00044991 -0.000674865 -0.00157468 -0.00202459 -0.00224955 -0.00269946 -0.0024745 -0.0024745 -0.00179964 -0.0024745 -0.000224955 -0.000224955 -0.00224955 -0.00269946 -0.00224955 -0.00269946 -0.00202459 -0.00292441 -0.00112477 -0.00134973 -0.00112477 -0.00134973 -0.00224955 -0.00292441 -0.00202459 -0.00269946 -0.00224955 -0.00292441 -0.000224955 -0.00044991 -0.00179964 -0.0024745 -0.00427414 -0.00584883 -0.00157468 -0.0024745 -0.0024745 -0.00337432 -0.00224955 -0.00314937 -0.00202459 -0.00292441 -0.000899819 -0.00157468 -0.00112477 -0.00179964 -0.00404919 -0.00607378 -0.00202459 -0.00314937 0 -0.000224955 -0.00202459 -0.00292441 -0.00202459 -0.00314937 -0.00179964 -0.00314937 -0.00134973 -0.00224955 -0.000674865 -0.00112477 -0.00179964 -0.00314937 -0.00202459 -0.00337432 -0.00202459 -0.00314937 -0.00044991 -0.00112477 -0.00134973 -0.00224955 -0.00382423 -0.00674865 -0.00179964 -0.00314937 0 -0.000224955m0.546865 0.040042l0.00787342 -0.00472405 0.00314937 -0.00179964 0.00494901 -0.00269946 0.0157468 -0.0094481 0.000674865 -0.00044991 0.0141722 -0.00832333 0.00112477 -0.000899819 0.00607378 -0.00359928 0.00202459 -0.00112477 0.00809837 -0.00517396 0.00809837 -0.00494901 0.00337432 -0.00202459 0.00494901 -0.00292441 0.00809837 -0.00517396 0.00809837 -0.00517396 0.000899819 -0.00044991 0.00742351 -0.00472405 0.00809837 -0.00517396 0.00629874 -0.00404919 0.00202459 -0.00112477 0.00832333 -0.00539892 0.00809837 -0.00539892 0.00382423 -0.0024745 -0.00382423 0.0024745 -0.00809837 0.00539892 -0.00832333 0.00539892 -0.00202459 0.00112477 -0.00629874 0.00404919 -0.00809837 0.00517396 -0.00742351 0.00472405 -0.000899819 0.00044991 -0.00809837 0.00517396 -0.00809837 0.00517396 -0.00494901 0.00292441 -0.00337432 0.00202459 -0.00809837 0.00494901 -0.00809837 0.00517396 -0.00202459 0.00112477 -0.00607378 0.00359928 -0.00112477 0.000899819 -0.0141722 0.00832333 -0.000674865 0.00044991 -0.0157468 0.0094481 -0.00494901 0.00269946 -0.00314937 0.00179964m-0.413692 0.1235l0.0024745 0.00157468c0.0202459,0.00989801 0.0413917,0.0155219 0.0636622,0.0155219 0.0710857,0 0.196161,-0.0533143 0.339232,-0.135648l0.000224955 -0.000224955 0.000224955 0 0.000224955 -0.000224955m0.804888 -0.672615l0.00899819 -0.0141722 -0.00899819 0.0141722 -0.00292441 0.0044991 0.00292441 -0.0044991zm0 0l0.00899819 -0.0141722 -0.00899819 0.0141722 -0.00292441 0.0044991 0.00292441 -0.0044991zm0 0l0.00899819 -0.0141722 -0.00899819 0.0141722 -0.00292441 0.0044991 0.00292441 -0.0044991zm-4.22623 0.666991l-0.00179964 -0.00472405 -0.000224955 -0.000224955 -0.00179964 -0.0044991 -0.00112477 -0.0024745 -0.000674865 -0.00224955 -0.00179964 -0.00427414 -0.000224955 -0.000224955 -0.00157468 -0.00472405 -0.000674865 -0.00134973 -0.00112477 -0.00292441 -0.00134973 -0.00359928 -0.00044991 -0.000674865 -0.00134973 -0.00427414 -0.00044991 -0.000899819 -0.00112477 -0.00314937 -0.000899819 -0.00269946 -0.000674865 -0.00134973 -0.00134973 -0.00404919 -0.000224955 -0.000224955 -0.000899819 -0.00359928 -0.000674865 -0.00179964 -0.000899819 -0.00179964 -0.000899819 -0.00359928 0 -0.000224955 -0.00112477 -0.00359928 -0.000674865 -0.00134973 -0.00044991 -0.00224955 -0.000899819 -0.00269946 -0.000224955 -0.000674865 -0.000899819 -0.00337432 -0.000224955 -0.000674865 -0.000674865 -0.0024745 -0.000674865 -0.00224955 -0.000224955 -0.00112477 -0.000674865 -0.00314937 0 -0.000224955 -0.000899819 -0.00292441 -0.000224955 -0.00157468 -0.00044991 -0.00134973 -0.00044991 -0.00292441 0 -0.000224955 -0.00044991 -0.00292441 -0.00044991 -0.000899819 -0.000224955 -0.00179964 -0.000224955 -0.0024745 -0.000224955 -0.00044991 -0.00044991 -0.00292441 0 -0.000674865 -0.000224955 -0.00202459 -0.000224955 -0.00179964 0 -0.000674865 -0.000224955 -0.00269946 0 -0.000224955 -0.000224955 -0.0024745 -0.000224955 -0.00134973 0 -0.00112477 0 -0.0024745 0 0 0 -0.0024745 0 -0.00112477 0 -0.00134973 0 -0.00224955 0 -0.00044991 0.000224955 -0.00224955 0 -0.000674865 0.000224955 -0.00179964 0 -0.00157468 0 -0.000674865 0.00044991 -0.0024745 0 -0.000224955 0.000224955 -0.00202459 0.000224955 -0.00134973 0.000224955 -0.000899819 0.000224955 -0.00224955 0.00044991 -0.0024745 0.00044991 -0.000899819 0.000224955 -0.00134973 0.00044991 -0.00179964 0 -0.00044991 0.000674865 -0.00224955 0 -0.000674865 0.00044991 -0.00157468 0.000674865 -0.00157468 0 -0.000674865 0.000674865 -0.0024745 0.000224955 -0.000224955 0.00044991 -0.00179964 0.00044991 -0.00134973 0.00044991 -0.00112477 0.000899819 -0.00224955 0 0 0.000674865 -0.0024745 0.00044991 -0.000899819 0.00044991 -0.00134973 0.000899819 -0.00202459 0 -0.000224955 0.00112477 -0.0024745 0.000224955 -0.000674865 0.000674865 -0.00157468 0.000674865 -0.00179964 0.00044991 -0.000674865 0.000899819 -0.0024745 0.000224955 -0.00044991 0.000899819 -0.00202459 0.000674865 -0.00134973 0.00044991 -0.00112477 0.00112477 -0.0024745 0.00224955 -0.00382423 0.00112477 -0.00179964 0.00157468 -0.00179964 0 0 0.00157468 -0.00179964 0.00202459 -0.00202459 0 -0.000224955 0.00202459 -0.00179964 0.00224955 -0.00179964 0 -0.000224955 0.00224955 -0.00179964 0.00269946 -0.00179964 0.000224955 -0.00044991 0.00224955 -0.00179964 0.00314937 -0.00202459 0.000224955 0 0.00269946 -0.00179964 0.00314937 -0.00202459 0.000674865 -0.00044991 0.00652369 -0.00382423 0.00044991 -0.00044991 0.00314937 -0.00179964 0.00382423 -0.00202459 0.000899819 -0.00044991 0.00314937 -0.00179964 0.00427414 -0.0024745 0.000899819 -0.00044991 0.00337432 -0.00179964 0.0044991 -0.00224955 0.00112477 -0.00044991 0.00359928 -0.00179964 0.00472405 -0.0024745 0.00134973 -0.00044991 0.00359928 -0.00179964 0.00494901 -0.0024745 0.00134973 -0.000674865 0.00404919 -0.00179964 0.00517396 -0.0024745 0.00157468 -0.000674865 0.00404919 -0.00202459 0.00539892 -0.0024745 0.00179964 -0.000899819 0.00404919 -0.00179964 0.00584883 -0.00269946 0.00179964 -0.000899819 0.00427414 -0.00157468 0.00607378 -0.00292441 0.00224955 -0.000899819 0.00404919 -0.00202459 0.00629874 -0.00269946 0.0024745 -0.00112477 0.00404919 -0.00179964 0.00652369 -0.00292441 0.0024745 -0.00112477 0.00427414 -0.00179964 0.00674865 -0.00314937 0.00292441 -0.00112477 0.00404919 -0.00202459 0.0069736 -0.00292441 0.00314937 -0.00134973 0.00404919 -0.00202459 0.00719856 -0.00314937 0.00337432 -0.00157468 0.00404919 -0.00179964 0.00742351 -0.00314937 0.00359928 -0.00179964 0.00382423 -0.00179964 0.00787342 -0.00337432 0.00359928 -0.00157468 0.00404919 -0.00179964 0.00787342 -0.00359928 0.00382423 -0.00202459 0.00404919 -0.00179964 0.00787342 -0.00359928 0.00427414 -0.00202459 0.00404919 -0.00179964 0.00809837 -0.00359928 0.00427414 -0.00224955 0.00382423 -0.00179964 0.00854828 -0.00382423 0.0044991 -0.00224955 0.00382423 -0.00179964 0.00854828 -0.00404919 0.00494901 -0.0024745 0.00359928 -0.00179964 0.00854828 -0.00404919 0.00517396 -0.00269946 0.00359928 -0.00157468 0.00854828 -0.0044991 0.00562387 -0.00269946 0.00337432 -0.00157468 -0.00337432 0.00157468 -0.00562387 0.00269946 -0.00854828 0.0044991 -0.00359928 0.00157468 -0.00517396 0.00269946 -0.00854828 0.00404919 -0.00359928 0.00179964 -0.00494901 0.0024745 -0.00854828 0.00404919 -0.00382423 0.00179964 -0.0044991 0.00224955 -0.00854828 0.00382423 -0.00382423 0.00179964 -0.00427414 0.00224955 -0.00809837 0.00359928 -0.00404919 0.00179964 -0.00427414 0.00202459 -0.00787342 0.00359928 -0.00404919 0.00179964 -0.00382423 0.00202459 -0.00787342 0.00359928 -0.00404919 0.00179964 -0.00359928 0.00157468 -0.00787342 0.00337432 -0.00382423 0.00179964 -0.00359928 0.00179964 -0.00742351 0.00314937 -0.00404919 0.00179964 -0.00337432 0.00157468 -0.00719856 0.00314937 -0.00404919 0.00202459 -0.00314937 0.00134973 -0.0069736 0.00292441 -0.00404919 0.00202459 -0.00292441 0.00112477 -0.00674865 0.00314937 -0.00427414 0.00179964 -0.0024745 0.00112477 -0.00652369 0.00292441 -0.00404919 0.00179964 -0.0024745 0.00112477 -0.00629874 0.00269946 -0.00404919 0.00202459 -0.00224955 0.000899819 -0.00607378 0.00292441 -0.00427414 0.00157468 -0.00179964 0.000899819 -0.00584883 0.00269946 -0.00404919 0.00179964 -0.00179964 0.000899819 -0.00539892 0.0024745 -0.00404919 0.00202459 -0.00157468 0.000674865 -0.00517396 0.0024745 -0.00404919 0.00179964 -0.00134973 0.000674865 -0.00494901 0.0024745 -0.00359928 0.00179964 -0.00134973 0.00044991 -0.00472405 0.0024745 -0.00359928 0.00179964 -0.00112477 0.00044991 -0.0044991 0.00224955 -0.00337432 0.00179964 -0.000899819 0.00044991 -0.00427414 0.0024745 -0.00314937 0.00179964 -0.000899819 0.00044991 -0.00382423 0.00202459 -0.00314937 0.00179964 -0.00044991 0.00044991 -0.00652369 0.00382423 -0.000674865 0.00044991 -0.00314937 0.00202459 -0.00269946 0.00179964 -0.000224955 0 -0.00314937 0.00202459 -0.00224955 0.00179964 -0.000224955 0.00044991 -0.00269946 0.00179964 -0.00224955 0.00179964 0 0.000224955 -0.00224955 0.00179964 -0.00202459 0.00179964 0 0.000224955 -0.00202459 0.00202459 -0.00157468 0.00179964 0 0 -0.00157468 0.00179964 -0.00112477 0.00179964 -0.00224955 0.00382423 -0.00112477 0.0024745 -0.00044991 0.00112477 -0.000674865 0.00134973 -0.000899819 0.00202459 -0.000224955 0.00044991 -0.000899819 0.0024745 -0.00044991 0.000674865 -0.000674865 0.00179964 -0.000674865 0.00157468 -0.000224955 0.000674865 -0.00112477 0.0024745 0 0.000224955 -0.000899819 0.00202459 -0.00044991 0.00134973 -0.00044991 0.000899819 -0.000674865 0.0024745 0 0 -0.000899819 0.00224955 -0.00044991 0.00112477 -0.00044991 0.00134973 -0.00044991 0.00179964 -0.000224955 0.000224955 -0.000674865 0.0024745 0 0.000674865 -0.000674865 0.00157468 -0.00044991 0.00157468 0 0.000674865 -0.000674865 0.00224955 0 0.00044991 -0.00044991 0.00179964 -0.000224955 0.00134973 -0.00044991 0.000899819 -0.00044991 0.0024745 -0.000224955 0.00224955 -0.000224955 0.000899819 -0.000224955 0.00134973 -0.000224955 0.00202459 0 0.000224955 -0.00044991 0.0024745 0 0.000674865 0 0.00157468 -0.000224955 0.00179964 0 0.000674865 -0.000224955 0.00224955 0 0.00044991 0 0.00224955 0 0.00134973 0 0.00112477 0 0.0024745 0 0 0 0.0024745 0 0.00112477 0.000224955 0.00134973 0.000224955 0.0024745 0 0.000224955 0.000224955 0.00269946 0 0.000674865 0.000224955 0.00179964 0.000224955 0.00202459 0 0.000674865 0.00044991 0.00292441 0.000224955 0.00044991 0.000224955 0.0024745 0.000224955 0.00179964 0.00044991 0.000899819 0.00044991 0.00292441 0 0.000224955 0.00044991 0.00292441 0.00044991 0.00134973 0.000224955 0.00157468 0.000899819 0.00292441 0 0.000224955 0.000674865 0.00314937 0.000224955 0.00112477 0.000674865 0.00224955 0.000674865 0.0024745 0.000224955 0.000674865 0.000899819 0.00337432 0.000224955 0.000674865 0.000899819 0.00269946 0.00044991 0.00224955 0.000674865 0.00134973 0.00112477 0.00359928 0 0.000224955 0.000899819 0.00359928 0.000899819 0.00179964 0.000674865 0.00179964 0.000899819 0.00359928 0.000224955 0.000224955 0.00134973 0.00404919 0.000674865 0.00134973 0.000899819 0.00269946 0.00112477 0.00314937 0.00044991 0.000899819 0.00134973 0.00427414 0.00044991 0.000674865 0.00134973 0.00359928 0.00112477 0.00292441 0.000674865 0.00134973 0.00157468 0.00472405 0.000224955 0.000224955 0.00179964 0.00427414 0.000674865 0.00224955 0.00112477 0.0024745 0.00179964 0.0044991 0.000224955 0.000224955 0.00179964 0.00472405 0.000224955 0.000224955 -0.000224955 -0.000224955zm0.102579 0.654394l0 -0.00044991 0.00044991 -0.00134973 -0.00044991 0.00179964zm0 0l0 -0.00044991 0.00044991 -0.00134973 -0.00044991 0.00179964zm-0.102354 -0.654169l-0.000224955 -0.000224955 -0.00179964 -0.00472405 0.00202459 0.00494901zm0 0l-0.000224955 -0.000224955 -0.00179964 -0.00472405 0.00202459 0.00494901zm0.332033 -0.368476l0.00877324 -0.0044991 -0.000224955 0.000224955 -0.00854828 0.00427414zm0 0l0.00877324 -0.0044991 -0.000224955 0.000224955 -0.00854828 0.00427414zm1.02197 -2.01447c-0.0843581,-0.399295 -0.15162,-0.882498 -0.115402,-1.31644l0 0.0143971 0.00112477 0.133398 0.000224955 0.00922315 0.00269946 0.115402 0.000224955 0.0044991 0.00404919 0.107753 0.000899819 0.0179964 0 0.00427414 0.00607378 0.108878 0.00044991 0.00854828 0.000899819 0.0128224 0.00742351 0.103929 0.000224955 0.00112477 0 0.000224955 0 0.00112477 0.00877324 0.101005 0.00112477 0.0123725 0.000899819 0.00787342 0.000224955 0.000899819 0.00809837 0.0782843 0.00202459 0.0195711 0.00044991 0.00427414 0.00179964 0.0152969 0.00224955 0.0191212 0.00719856 0.0573635 0.00202459 0.0152969 0.00044991 0.00359928 0.0024745 0.0188962 0.00269946 0.0184463 0.0024745 0.0184463 0.00269946 0.0186713 0.00269946 0.0182213 0.00292441 0.0182213 0.00269946 0.0182213 0.00292441 0.0177714 0.00292441 0.0179964 0.00292441 0.0177714 0.00292441 0.0177714 0 0.000224955 0.00292441 0.0170966 0.00314937 0.0175465 0.00314937 0.0173215 0.00314937 0.0173215 0.00314937 0.0173215 0.000224955 0.000899819 0.00314937 0.0159718 0.00337432 0.0168716 0.00314937 0.0168716zm-1.25165 3.03667c0.00989801,-0.0764847 0.0094481,-0.0893071 0.0227204,-0.122825l0.000224955 0 -0.000224955 0 -0.000224955 0.00224955 0 0.000674865 -0.000224955 0.00112477 -0.000224955 0.00202459 -0.000224955 0.00224955 -0.00044991 0.00202459 -0.000224955 0.00179964 -0.000224955 0.00224955 -0.000674865 0.00382423 -0.000224955 0.00224955 -0.000899819 0.00584883 -0.000224955 0.00202459 -0.000224955 0.00157468 -0.000224955 0.00044991 -0.000224955 0.00202459 -0.00044991 0.00179964 -0.000224955 0.00202459 -0.00044991 0.00202459 -0.000224955 0.00202459 -0.000224955 0.00179964 -0.000224955 0.00112477 -0.000224955 0.00112477 -0.000224955 0.00179964 -0.00044991 0.00202459 -0.000224955 0.00179964 -0.000224955 0.00202459 -0.00044991 0.00202459 -0.00044991 0.00202459 0 0.000224955 -0.000224955 0.00157468 -0.000674865 0.00382423 -0.00044991 0.00202459 -0.00044991 0.00202459 -0.000224955 0.00179964 -0.00044991 0.00157468 0 0.00044991 -0.000224955 0.00179964 -0.00044991 0.00202459 -0.00044991 0.00179964 -0.000224955 0.00202459 -0.00044991 0.00179964 -0.00044991 0.00202459 -0.000224955 0.000899819 -0.000224955 0.000899819 -0.000224955 0.00202459 -0.00044991 0.00179964 -0.00044991 0.00179964 -0.00044991 0.00202459 -0.000224955 0.00179964 -0.00044991 0.00179964 -0.000224955 0.00044991 -0.000224955 0.00134973 -0.00044991 0.00202459 -0.00404919 0.0182213 -0.00044991 0.00179964 -0.000224955 0.00134973 -0.000224955 0.00044991 -0.00044991 0.00179964 -0.00044991 0.00134973zm-0.102579 -0.653944c-0.0355429,-0.0461157 -0.0668116,-0.114052 -0.0294691,-0.186713 0.0483653,-0.0940311 0.204709,-0.118101 0.370276,-0.185813l0.000224955 -0.000224955 -0.000224955 0.000224955 -0.00854828 0.00427414 -0.00337432 0.00157468 -0.00562387 0.00269946 -0.00854828 0.0044991 -0.00359928 0.00157468 -0.00517396 0.00269946 -0.00854828 0.00404919 -0.00359928 0.00179964 -0.00494901 0.0024745 -0.00854828 0.00404919 -0.00382423 0.00179964 -0.0044991 0.00224955 -0.00854828 0.00382423 -0.00382423 0.00179964 -0.00427414 0.00224955 -0.00809837 0.00359928 -0.00404919 0.00179964 -0.00427414 0.00202459 -0.00787342 0.00359928 -0.00404919 0.00179964 -0.00382423 0.00202459 -0.00787342 0.00359928 -0.00404919 0.00179964 -0.00359928 0.00157468 -0.00787342 0.00337432 -0.00382423 0.00179964 -0.00359928 0.00179964 -0.00742351 0.00314937 -0.00404919 0.00179964 -0.00337432 0.00157468 -0.00719856 0.00314937 -0.00404919 0.00202459 -0.00314937 0.00134973 -0.0069736 0.00292441 -0.00404919 0.00202459 -0.00292441 0.00112477 -0.00674865 0.00314937 -0.00427414 0.00179964 -0.0024745 0.00112477 -0.00652369 0.00292441 -0.00404919 0.00179964 -0.0024745 0.00112477 -0.00629874 0.00269946 -0.00404919 0.00202459 -0.00224955 0.000899819 -0.00607378 0.00292441 -0.00427414 0.00157468 -0.00179964 0.000899819 -0.00584883 0.00269946 -0.00404919 0.00179964 -0.00179964 0.000899819 -0.00539892 0.0024745 -0.00404919 0.00202459 -0.00157468 0.000674865 -0.00517396 0.0024745 -0.00404919 0.00179964 -0.00134973 0.000674865 -0.00494901 0.0024745 -0.00359928 0.00179964 -0.00134973 0.00044991 -0.00472405 0.0024745 -0.00359928 0.00179964 -0.00112477 0.00044991 -0.0044991 0.00224955 -0.00337432 0.00179964 -0.000899819 0.00044991 -0.00427414 0.0024745 -0.00314937 0.00179964 -0.000899819 0.00044991 -0.00382423 0.00202459 -0.00314937 0.00179964 -0.00044991 0.00044991 -0.00652369 0.00382423 -0.000674865 0.00044991 -0.00314937 0.00202459 -0.00269946 0.00179964 -0.000224955 0 -0.00314937 0.00202459 -0.00224955 0.00179964 -0.000224955 0.00044991 -0.00269946 0.00179964 -0.00224955 0.00179964 0 0.000224955 -0.00224955 0.00179964 -0.00202459 0.00179964 0 0.000224955 -0.00202459 0.00202459 -0.00157468 0.00179964 0 0 -0.00157468 0.00179964 -0.00112477 0.00179964 -0.00224955 0.00382423 -0.00112477 0.0024745 -0.00044991 0.00112477 -0.000674865 0.00134973 -0.000899819 0.00202459 -0.000224955 0.00044991 -0.000899819 0.0024745 -0.00044991 0.000674865 -0.000674865 0.00179964 -0.000674865 0.00157468 -0.000224955 0.000674865 -0.00112477 0.0024745 0 0.000224955 -0.000899819 0.00202459 -0.00044991 0.00134973 -0.00044991 0.000899819 -0.000674865 0.0024745 0 0 -0.000899819 0.00224955 -0.00044991 0.00112477 -0.00044991 0.00134973 -0.00044991 0.00179964 -0.000224955 0.000224955 -0.000674865 0.0024745 0 0.000674865 -0.000674865 0.00157468 -0.00044991 0.00157468 0 0.000674865 -0.000674865 0.00224955 0 0.00044991 -0.00044991 0.00179964 -0.000224955 0.00134973 -0.00044991 0.000899819 -0.00044991 0.0024745 -0.000224955 0.00224955 -0.000224955 0.000899819 -0.000224955 0.00134973 -0.000224955 0.00202459 0 0.000224955 -0.00044991 0.0024745 0 0.000674865 0 0.00157468 -0.000224955 0.00179964 0 0.000674865 -0.000224955 0.00224955 0 0.00044991 0 0.00224955 0 0.00134973 0 0.00112477 0 0.0024745 0 0 0 0.0024745 0 0.00112477 0.000224955 0.00134973 0.000224955 0.0024745 0 0.000224955 0.000224955 0.00269946 0 0.000674865 0.000224955 0.00179964 0.000224955 0.00202459 0 0.000674865 0.00044991 0.00292441 0.000224955 0.00044991 0.000224955 0.0024745 0.000224955 0.00179964 0.00044991 0.000899819 0.00044991 0.00292441 0 0.000224955 0.00044991 0.00292441 0.00044991 0.00134973 0.000224955 0.00157468 0.000899819 0.00292441 0 0.000224955 0.000674865 0.00314937 0.000224955 0.00112477 0.000674865 0.00224955 0.000674865 0.0024745 0.000224955 0.000674865 0.000899819 0.00337432 0.000224955 0.000674865 0.000899819 0.00269946 0.00044991 0.00224955 0.000674865 0.00134973 0.00112477 0.00359928 0 0.000224955 0.000899819 0.00359928 0.000899819 0.00179964 0.000674865 0.00179964 0.000899819 0.00359928 0.000224955 0.000224955 0.00134973 0.00404919 0.000674865 0.00134973 0.000899819 0.00269946 0.00112477 0.00314937 0.00044991 0.000899819 0.00134973 0.00427414 0.00044991 0.000674865 0.00134973 0.00359928 0.00112477 0.00292441 0.000674865 0.00134973 0.00157468 0.00472405 0.000224955 0.000224955 0.00179964 0.00427414 0.000674865 0.00224955 0.00112477 0.0024745 0.00179964 0.0044991 0.000224955 0.000224955 0.00179964 0.00472405zm3.42134 0.00562387l-0.000224955 0.000224955 -0.000224955 0 0.00044991 -0.000224955zm-0.000224955 0.000224955l-0.000224955 0 -0.000224955 0.000224955c-0.143071,0.0823335 -0.268146,0.135648 -0.339232,0.135648 -0.0222705,0 -0.0434163,-0.00562387 -0.0636622,-0.0155219l0 0 0 0c0.0202459,0.00989801 0.0413917,0.0155219 0.0636622,0.0155219 0.0710857,0 0.196161,-0.0533143 0.339232,-0.135648l0.000224955 -0.000224955 0.000224955 0 0.000224955 -0.000224955 -0.000224955 0.000224955zm-0.546865 -0.039817l0.00179964 0.00314937 0.00382423 0.00674865 0.00134973 0.00224955 0.00044991 0.00112477 0.00202459 0.00314937 0.00202459 0.00337432 0.00179964 0.00314937 0.000674865 0.00112477 0.00134973 0.00224955 0.00179964 0.00314937 0.00202459 0.00314937 0.00202459 0.00292441 0 0.000224955 0.00202459 0.00314937 0.00404919 0.00607378 0.00112477 0.00179964 0.000899819 0.00157468 0.00202459 0.00292441 0.00224955 0.00314937 0.0024745 0.00337432 0.00157468 0.0024745 0.00427414 0.00584883 0.00179964 0.0024745 0.000224955 0.00044991 0.00224955 0.00292441 0.00202459 0.00269946 0.00224955 0.00292441 0.00112477 0.00134973 0.00112477 0.00134973 0.00202459 0.00292441 0.00224955 0.00269946 0.00224955 0.00269946 0.000224955 0.000224955 0.00179964 0.0024745 0.0024745 0.0024745 0.00224955 0.00269946 0.00157468 0.00202459 0.00044991 0.000674865 0.0024745 0.0024745 0.00224955 0.0024745 0.00224955 0.0024745 0.000899819 0.00112477 0.00134973 0.00134973 0.00224955 0.00224955 0.0024745 0.0024745 0.00224955 0.0024745 0 0 0.00224955 0.00202459 0.0024745 0.0024745 0.00224955 0.00224955 0.00157468 0.00134973 0.000899819 0.000674865 0.0024745 0.00224955 0.00224955 0.00202459 0.00494901 0.00404919 0.0024745 0.00202459 0.0024745 0.00202459 0.0123725 0.00899819 0.0024745 0.00179964 0.0024745 0.00157468 0.00269946 0.00179964 0.000224955 0.000224955 0.00224955 0.00112477 0.0024745 0.00157468 0.00472405 0.00269946 0.00044991 0.000224955 0.00269946 0.00112477 -0.00269946 -0.00112477 -0.00044991 -0.000224955 -0.00472405 -0.00269946 -0.0024745 -0.00157468 -0.00224955 -0.00112477 -0.000224955 -0.000224955 -0.00269946 -0.00179964 -0.0024745 -0.00157468 -0.0024745 -0.00179964 -0.0123725 -0.00899819 -0.0024745 -0.00202459 -0.0024745 -0.00202459 -0.00494901 -0.00404919 -0.00224955 -0.00202459 -0.0024745 -0.00224955 -0.000899819 -0.000674865 -0.00157468 -0.00134973 -0.00224955 -0.00224955 -0.0024745 -0.0024745 -0.00224955 -0.00202459 0 0 -0.00224955 -0.0024745 -0.0024745 -0.0024745 -0.00224955 -0.00224955 -0.00134973 -0.00134973 -0.000899819 -0.00112477 -0.00224955 -0.0024745 -0.00224955 -0.0024745 -0.0024745 -0.0024745 -0.00044991 -0.000674865 -0.00157468 -0.00202459 -0.00224955 -0.00269946 -0.0024745 -0.0024745 -0.00179964 -0.0024745 -0.000224955 -0.000224955 -0.00224955 -0.00269946 -0.00224955 -0.00269946 -0.00202459 -0.00292441 -0.00112477 -0.00134973 -0.00112477 -0.00134973 -0.00224955 -0.00292441 -0.00202459 -0.00269946 -0.00224955 -0.00292441 -0.000224955 -0.00044991 -0.00179964 -0.0024745 -0.00427414 -0.00584883 -0.00157468 -0.0024745 -0.0024745 -0.00337432 -0.00224955 -0.00314937 -0.00202459 -0.00292441 -0.000899819 -0.00157468 -0.00112477 -0.00179964 -0.00404919 -0.00607378 -0.00202459 -0.00314937 0 -0.000224955 -0.00202459 -0.00292441 -0.00202459 -0.00314937 -0.00179964 -0.00314937 -0.00134973 -0.00224955 -0.000674865 -0.00112477 -0.00179964 -0.00314937 -0.00202459 -0.00337432 -0.00202459 -0.00314937 -0.00044991 -0.00112477 -0.00134973 -0.00224955 -0.00382423 -0.00674865 -0.00179964 -0.00314937 0 -0.000224955 0 0.000224955zm1.05886 -0.32416l0.00742351 -0.00629874 -0.000674865 0.000674865 -0.00674865 0.00562387zm-0.370501 0.276694l0.0044991 -0.00292441 0.00832333 -0.00539892 0.00832333 -0.00562387 0.000899819 -0.000674865 0.00742351 -0.00494901 0.00832333 -0.00539892 0.00652369 -0.0044991 0.00179964 -0.00112477 0.00832333 -0.00562387 0.00832333 -0.00584883 0.00382423 -0.0024745 0.00472405 -0.00314937 0.00809837 -0.00562387 0.00854828 -0.00607378 0.00112477 -0.000674865 0.00719856 -0.00517396 0.00832333 -0.00562387 0.00674865 -0.00472405 0.00157468 -0.00134973 0.00832333 -0.00584883 0.00832333 -0.00584883 0.00404919 -0.00292441 0.00427414 -0.00314937 0.00832333 -0.00607378 0.00832333 -0.00607378 0.00134973 -0.000674865 0.0069736 -0.00539892 0.00832333 -0.00607378 0.0575884 -0.0431913 0.00809837 -0.00607378 0.0641121 -0.0506148 0.0069736 -0.00562387 0.000899819 -0.000899819 0.00787342 -0.00629874 0.00764847 -0.00652369 0.00787342 -0.00629874 0.00787342 -0.00652369 0.0152969 -0.0128224 0.00742351 -0.00629874 0.00674865 -0.00562387 0.000899819 -0.000899819 -0.000899819 0.000899819 -0.00674865 0.00562387 -0.00742351 0.00629874 -0.0152969 0.0128224 -0.00787342 0.00652369 -0.00787342 0.00629874 -0.00764847 0.00652369 -0.00787342 0.00629874 -0.000899819 0.000899819 -0.0069736 0.00562387 -0.0641121 0.0506148 -0.00809837 0.00607378 -0.0575884 0.0431913 -0.00832333 0.00607378 -0.0069736 0.00539892 -0.00134973 0.000674865 -0.00832333 0.00607378 -0.00832333 0.00607378 -0.00427414 0.00314937 -0.00404919 0.00292441 -0.00832333 0.00584883 -0.00832333 0.00584883 -0.00157468 0.00134973 -0.00674865 0.00472405 -0.00832333 0.00562387 -0.00719856 0.00517396 -0.00112477 0.000674865 -0.00854828 0.00607378 -0.00809837 0.00562387 -0.00472405 0.00314937 -0.00382423 0.0024745 -0.00832333 0.00584883 -0.00832333 0.00562387 -0.00179964 0.00112477 -0.00652369 0.0044991 -0.00832333 0.00539892 -0.00742351 0.00494901 -0.000899819 0.000674865 -0.00832333 0.00562387 -0.00832333 0.00539892 -0.00134973 0.000899819 -0.00314937 0.00202459zm-1.13355 0.0195711l0.316961 -0.310438 -0.00112477 -0.00494901 -0.000224955 -0.00044991 -0.00292441 -0.0121476 -0.00134973 -0.00539892 -0.00359928 -0.014847 -0.00044991 -0.00202459 -0.000224955 -0.00112477 -0.000224955 -0.00044991 -0.306838 0.351829z"/>
   <path id="_474274344" class="fil4" d="M12.2067 13.6698l-0.102354 0.0785092 1.13445 0.957183 0.463182 -0.442936c0,0 0.132723,0.479829 0.609628,0.381298 0.476904,-0.0987552 1.1241,-0.793641 1.1241,-0.793641l-0.194136 -0.14982c0,0 -0.429214,0.558563 -0.831208,0.687912 -0.401769,0.129574 -0.435963,0.166917 -0.50075,-0.0269946 -0.064562,-0.194136 -0.129349,-0.3714 -0.129349,-0.3714l-0.469931 0.460033c0,0 -0.0751349,-0.000224955 -0.293116,-0.17389 -0.217981,-0.173665 -0.810512,-0.606253 -0.810512,-0.606253z"/>
   <g>
    <line id="_474274536" class="fil3 str1" x1="10.5821" y1="14.9928" x2="11.1022" y2= "14.5935" />
   </g>
   <g>
    <path class="fil3 str1" d="M11.0622 15.2276c0,0 0.179964,-0.396595 0.0508398,-0.669916 -0.129124,-0.273545 -0.138122,-0.30054 -0.101905,-0.378824 0.0359928,-0.0782843 0.606703,-0.191662 0.97293,-0.67239"/>
   </g>
   <g>
    <line class="fil3 str1" x1="12.1406" y1="13.3504" x2="12.4285" y2= "13.0078" />
   </g>
   <g>
    <line class="fil3 str1" x1="15.0906" y1="12.9779" x2="15.391" y2= "13.3565" />
   </g>
   <path class="fil5" d="M11.7123 10.1569c0,0 -0.54799,-1.69661 1.49775,-2.84185 0.964157,-0.539667 1.54566,0.108203 1.7452,0.440912 0.121026,0.20156 0.09943,0.294466 -0.029919,0.492426 -0.343956,0.52482 -1.2269,0.990251 -1.90942,1.22983 -0.171641,0.0607378 -0.290642,0.253524 -0.335858,0.261847 -0.00382423,0.00044991 -0.340582,-0.528869 -0.324835,0.118101 0.0107978,0.422015 -0.0560138,0.461382 -0.0560138,0.461382 0,0 -0.386922,-0.170516 -0.306838,-0.639322 0.079859,-0.468581 -0.191662,-0.132273 -0.280069,0.476679z"/>
   <g>
    <g>
     <path class="fil3 str2" d="M13.6165 14.8862c0,0 -0.0418416,0.290192 -0.0866076,0.687237l0.427189 0c-0.044766,-0.27647 -0.0814337,-0.516271 -0.107753,-0.664967 -0.0940311,-0.532918 -0.256224,-0.0357678 -0.256224,-0.0357678l0.0233953 0.0134973z"/>
     <path id="1" class="fil6" d="M13.6165 14.8862c0,0 -0.0418416,0.290192 -0.0866076,0.687237l0.427189 0c-0.044766,-0.27647 -0.0814337,-0.516271 -0.107753,-0.664967 -0.0940311,-0.532918 -0.256224,-0.0357678 -0.256224,-0.0357678l0.0233953 0.0134973z"/>
    </g>
    <g>
     <path class="fil3 str2" d="M13.7625 14.5555c0,0 0.279394,0.263422 0.193236,0.410543 -0.0863827,0.14712 -0.511322,0.0269946 -0.526394,-0.0654619 -0.015072,-0.0926814 0.179064,-0.333833 0.333158,-0.345081z"/>
     <path id="1" class="fil6" d="M13.7625 14.5555c0,0 0.279394,0.263422 0.193236,0.410543 -0.0863827,0.14712 -0.511322,0.0269946 -0.526394,-0.0654619 -0.015072,-0.0926814 0.179064,-0.333833 0.333158,-0.345081z"/>
    </g>
   </g>
   <path class="fil5" d="M15.2245 8.1004c0,0 -0.0294691,0.287492 0.140597,0.692411 0.170291,0.404919 -0.252174,1.13805 -0.345981,1.22038 -0.0938062,0.0821085 0.0587132,-0.340357 0.0116977,-0.357903 -0.0470156,-0.0175465 -0.269946,0.211008 -0.269946,0.211008 0,0 0.0175465,-0.258023 -0.0938062,-0.175915 -0.111578,0.0821085 -0.111578,0.111578 -0.111578,0.111578 0,0 -0.140822,-0.316511 -0.240477,-0.404694 -0.099655,-0.0881823 -0.105504,-0.293566 0.22293,-0.528194 0.328659,-0.234628 0.668791,-0.527969 0.686562,-0.768671z"/>
   <g>
    <path class="fil3 str3" d="M12.2951 10.6779c0.00517396,2.81666 1.29641,3.00967 1.56614,3.01552 0.269946,0.00584883 1.25052,-0.658668 1.39022,-2.05384 0.261398,-2.6115 -0.745725,-3.92681 -1.61967,-3.77632 -0.731328,0.12575 -1.33916,1.3783 -1.33668,2.81464z"/>
   </g>
   <g>
    <path class="fil3 str1" d="M12.1793 13.6401l1.09373 0.877099 0.489727 -0.561487c0,0 0.12305,0.555638 0.345531,0.555638 0.222255,0 0.973155,-0.522795 1.15357,-0.82311"/>
   </g>
   <g>
    <path class="fil3 str4" d="M13.3304 11.6293c0,0 0.492651,0.77182 1.04761,0.0587132"/>
   </g>
   <g>
    <path class="fil3 str5" d="M15.615 13.6293c0,0 0.236203,0.202009 0.489727,0.178839 0.253299,-0.0233953 0.259148,-0.0233953 0.259148,-0.0233953 0,0 0.132723,-0.0688362 0.132723,0.259373 0,0.328434 0.137897,0.587582 0.137897,0.587582 0.133623,0.17569 -0.314487,0.0258698 -0.352504,0.345306 -0.0377924,0.319211 0.194586,0.474655 0.194586,0.474655"/>
   </g>
   <path class="fil3 str6" d="M16.6224 14.0709c0,0 1.06674,0.328209 1.72338,-0.264547 0.656418,-0.592756 0.291541,-1.41317 0.0728854,-1.97848 -0.218881,-0.565312 -0.409868,-1.19451 -0.409868,-1.68694 0,-0.492426 0.029694,-0.515147 -0.1253,-0.528644"/>
   <g>
    <path class="fil3 str7" d="M17.7422 9.71962c0,0 0.0686112,0.327984 0.266572,0.204709 0.19841,-0.1226 0.0913317,-0.141272 0.2488,-0.227879"/>
   </g>
   <rect class="fil7" x="11.2504" y="16.3623" width="4.74892" height="0.0670532" rx="0.0335183" ry="0.0335183"/>
   <rect class="fil7" x="11.2504" y="16.7655" width="4.74892" height="0.0670532" rx="0.0335183" ry="0.0335183"/>
   <rect class="fil1" transform="matrix(-0.592024 0.158087 -0.158087 -0.592024 13.2343 17.7833)" width="16.942" height="21.4047" rx="0.800839" ry="0.800839"/>
   <rect class="fil2 str0" transform="matrix(-0.592024 0.158087 -0.158087 -0.592024 13.5193 17.9998)" width="16.942" height="21.4047" rx="0.800839" ry="0.800839"/>
   <g>
    <path class="fil8" d="M5.11862 14.2826c0,0 0.507048,0.393221 1.39629,0.467456 0.889022,0.0740101 1.18551,0.039817 1.32206,-0.108203 0.00044991,-0.00044991 -0.0413917,-0.0690611 -0.0519646,-0.0686112 -0.116077,0.00494901 -0.343281,0.0416166 -0.593431,0.00719856 -0.424715,-0.0582633 -1.14502,-0.169166 -1.54701,-0.365777 -0.401769,-0.196611 -0.410318,-0.228104 -0.410318,-0.228104l-0.115627 0.296041z"/>
    <path class="fil3 str8" d="M0.274445 17.7413c0,0 0.0854828,0.244976 0.450135,0.165117 0.364877,-0.079634 2.30241,-0.438887 3.19728,-1.20801 0.894645,-0.769346 0.959432,-1.30789 0.959432,-1.30789"/>
    <line class="fil3 str8" x1="4.84688" y1="15.3822" x2="4.84688" y2= "17.0806" />
    <path class="fil3 str8" d="M5.506 13.3947c0,0 0.783518,0.390522 1.58143,0.379049 0.797915,-0.0114727 0.923215,-0.923215 0.923215,-0.923215 0,0 0.911067,0.686562 1.34995,1.43611 0.438887,0.749325 0.715581,1.09418 0.715581,1.09418"/>
    <path class="fil3 str8" d="M11.5789 8.87334c0,0 -0.205159,-0.0256449 -0.211008,0.128224 -0.00562387,0.153869 -0.293341,2.01447 -0.743476,2.94331 -0.45036,0.929064 -1.08271,1.65274 -1.50157,1.96611"/>
    <path class="fil3 str8" d="M5.24077 13.9575c0,0 0.860452,0.512897 1.62417,0.586907 0.763722,0.0740101 0.889022,0.0512897 0.889022,0.0512897 0,0 -0.0625374,-0.575435 -0.0454409,-0.632573 0.0170966,-0.0571385 0.59838,0.393221 0.683863,0.387597 0.0854828,-0.00584883 0.193686,-0.780818 0.159493,-1.02579"/>
    <path class="fil3 str8" d="M8.39981 14.4565c0,0 -0.0627624,0.273545 -0.27647,0.313587 -0.213707,0.039817 -0.267696,-0.436187 -0.267696,-0.504574 0,-0.0683863 0.532693,-0.0710857 0.544166,0.190987z"/>
    <path class="fil3 str8" d="M8.28261 14.6389c0,0 0.165342,-0.136773 0.52437,0.114052 0.359028,0.2506 0.951559,0.595456 1.58706,0.792066 0.635722,0.196386 0.912192,0.127999 1.0204,0.176365 0.108203,0.0485902 0.264322,0.584658 0.40087,0.704559 0.136773,0.119676 0.162417,0.151395 -0.211008,0.228329 -0.3732,0.0769346 -0.678014,0.182213 -0.749325,0.150945 -0.0710857,-0.0312687 -0.145996,-0.224955 -0.505024,-0.333158 -0.359253,-0.108203 -0.747075,-0.461607 -0.963707,-0.626724 -0.216407,-0.165342 -1.17381,-0.866301 -1.10363,-1.20643z"/>
    <ellipse class="fil7 str8" cx="7.09243" cy="12.0923" rx="0.117168" ry="0.12248"/>
    <path class="fil9" d="M4.26177 11.6061c0,0 -1.19743,-1.37425 0.264772,-3.27354 0.689037,-0.89487 1.4964,-0.519871 1.81764,-0.287492 0.195036,0.140822 0.212132,0.236877 0.170066,0.47488 -0.112252,0.631448 -0.755173,1.42419 -1.30001,1.92404 -0.136998,0.125975 -0.171191,0.355429 -0.210558,0.381074 -0.00292441,0.00179964 -0.607153,-0.360153 -0.332033,0.241826 0.179739,0.392096 0.0812087,0.470156 0.0812087,0.470156 0,0 -0.306389,-0.0186713 -0.419766,-0.491526 -0.113152,-0.472855 -0.233278,-0.0472405 -0.0713107,0.560588z"/>
    <path class="fil9" d="M6.7203 8.15236c0,0 0.100555,0.270621 0.432138,0.558788 0.331359,0.288167 0.27647,1.13265 0.228554,1.2476 -0.0479154,0.115177 -0.0976304,-0.331134 -0.14757,-0.32596 -0.04994,0.00494901 -0.14892,0.308413 -0.14892,0.308413 0,0 -0.0983053,-0.239127 -0.161967,-0.116302 -0.0636622,0.122825 -0.0506148,0.14937 -0.0506148,0.14937 0,0 -0.266347,-0.221805 -0.394796,-0.256898 -0.128224,-0.035093 -0.22428,-0.216632 -0.0330684,-0.572285 0.190987,-0.355654 0.366676,-0.769121 0.276245,-0.992726z"/>
    <line class="fil3 str8" x1="5.32378" y1="17.6812" x2="10.089" y2= "16.3904" />
    <line class="fil3 str8" x1="10.4705" y1="16.7553" x2="6.17366" y2= "17.8952" />
    <path class="fil3 str8" d="M5.3537 15.6843c0,0 -0.396146,-0.102579 -0.584208,-0.384673 -0.187837,-0.282318 -0.207858,-0.307963 -0.207858,-0.307963 0,0 0.20156,-0.201785 0.378374,-0.387147 0.17659,-0.185138 0.0623125,-0.176365 0.261847,-0.734703 0.199535,-0.558563 0.279394,-0.6238 0.279394,-0.6238 0,0 -0.182663,-0.119901 -0.393446,-0.786442 -0.210783,-0.666541 -0.427639,-0.956958 -0.507498,-2.17666 -0.079859,-1.21948 0.444511,-2.0174 1.36773,-1.86915 0.923215,0.148245 1.5956,2.01762 1.70966,2.78112 0.0758098,0.508848 0.132723,1.03052 0.170966,1.54432"/>
   </g>
   <path class="fil10" d="M24.4011 11.032c0,0 0.974504,-0.469706 0.894645,-1.68379 -0.079634,-1.21386 -0.72413,-1.10565 -0.661367,-1.60708 0.0627624,-0.501424 1.2368,-0.900494 1.78389,0.0740101 0.546865,0.974504 0.273545,2.56471 0.273545,2.56471 0,0 0.974504,-1.40709 0.860452,-3.11675 -0.114052,-1.70966 -1.36773,-2.45066 -2.58721,-2.10873 -1.21948,0.342156 -0.54709,1.97218 -1.15109,2.1202 -0.604229,0.14802 -2.22255,0.239127 -2.43919,1.23073 -0.216407,0.991601 1.20823,1.12837 1.53869,1.09418 0.330459,-0.0341931 1.52159,0.256449 1.48763,1.43251z"/>
   <g>
    <path class="fil3 str9" d="M21.299 14.9343c0,0 0.256898,0.204934 0.040042,0.410318 -0.216632,0.205159 -0.290642,0.945935 0.997,1.28787 1.28809,0.341931 1.88062,-0.860902 1.84643,-1.71528"/>
   </g>
   <g>
    <path class="fil3 str9" d="M23.8407 15.1962c0,0 -0.114277,-0.558563 0.256224,-0.780368 0.370501,-0.22248 0.610078,0.47263 0.245201,0.860227"/>
   </g>
   <path class="fil3 str10" d="M23.5721 12.6947c0,0 0.746625,0.59838 1.05436,1.97735 0.307738,1.37897 0.296266,1.57288 0.296266,1.57288"/>
   <path class="fil3 str10" d="M20.1017 15.5385c0,0 0.695335,-1.77827 1.18529,-2.31389 0.489952,-0.535393 0.42449,-0.502549 0.42449,-0.502549 0,0 -0.305714,-0.759223 -0.180189,-2.44616 0.1253,-1.68671 1.05999,-2.41624 1.70966,-2.22255 0.64967,0.193911 1.00307,1.06021 1.02579,2.27969 0.0227204,1.21948 -0.478479,2.26237 -0.843356,2.54716"/>
   <path class="fil11" d="M21.453 12.7001l0.156569 0.149595c0,0 -0.115627,0.233728 0.0326185,0.527069 0.148245,0.293566 0.359028,0.535842 0.359028,0.535842 0,0 0.64967,-0.0913317 1.12567,-0.390522 0.47578,-0.29919 0.606478,-0.435963 0.700509,-0.604229 0.0940311,-0.168041 0.364877,0.0341931 0.190987,0.327759 -0.17389,0.293566 -0.800389,0.763722 -1.15964,0.911742 -0.359028,0.148245 -0.789367,0.202459 -0.789367,0.202459l-0.0542141 -0.344856 -0.330459 0.099655c0,0 -0.208083,-0.222255 -0.307963,-0.515821 -0.099655,-0.293341 -0.0454409,-0.635048 0.0762597,-0.898695z"/>
   <path class="fil3 str11" d="M19.1842 15.1253c0,0 1.20238,-0.44721 1.43026,-0.769346"/>
   <line class="fil3 str8" x1="19.2017" y1="16.3117" x2="24.1424" y2= "17.3834" />
   <line class="fil3 str8" x1="24.034" y1="17.7822" x2="19.2183" y2= "16.7393" />
   <line class="fil3 str8" x1="19.2183" y1="17.1839" x2="21.2409" y2= "17.629" />
   <path class="fil3 str12" d="M21.4683 12.6947c0,0 -0.210783,0.279169 -0.119676,0.763497 0.0913317,0.484553 0.330684,0.678239 0.330684,0.678239l0.330459 -0.102579 0.0170966 0.313362c0,0 0.752249,0.0627624 1.57873,-0.666766 0.826259,-0.729529 0.330684,-0.894645 0.222255,-0.752249"/>
   <path class="fil3 str10" d="M21.7201 12.7124c0,0 -0.497375,0.488827 0.320561,1.21813"/>
   <path class="fil3 str11" d="M22.0249 13.922c0,0 1.16819,-0.165117 1.77804,-0.957408"/>
   <path class="fil12" d="M22.1515 11.8153c0,0 0.231029,0.361727 0.447435,0.313362 0.216632,-0.0483653 0.384898,-0.330459 0.384898,-0.330459 0,0 -0.367801,0.267696 -0.832333,0.0170966z"/>
   <g>
    <path class="fil2" d="M17.6743 33.7995c-0.0443161,-0.441811 -0.192786,-2.51455 -0.00584883,-3.20696 0.186937,-0.692411 0.425165,-0.726154 0.759673,-1.3594 0.334283,-0.633023 0.716481,-4.53621 0.643371,-5.20501 -0.0731103,-0.668791 0.157468,-1.67119 0.0537642,-1.81089 -0.103929,-0.139922 -0.221131,-0.525719 -0.736502,-0.611877 -0.515597,-0.0861577 -0.471055,0.181539 -0.471055,0.181539 0,0 0.0821085,-0.977654 -0.332708,-1.56231 -0.414817,-0.584658 -1.28292,-0.0573635 -1.28292,-0.0573635 0,0 0.0616376,-0.866976 -0.264547,-1.21813 -0.326185,-0.351155 -1.04064,-0.2506 -1.04064,-0.2506l-0.329334 0.157918 0.0224955 -2.55436c0,0 0.0425165,-0.592306 -0.707708,-0.918491 -0.750224,-0.326409 -1.21948,0.532018 -1.2485,1.29776 -0.0290192,0.765746 -0.307738,6.44451 -0.307738,6.44451 0,0 -0.133398,-0.735377 -0.520321,-1.09351 -0.386697,-0.358128 -0.953584,-0.22473 -1.13535,0.0850329 -0.181764,0.309763 -0.361952,0.836157 -0.264097,1.42419 0.0978554,0.588032 0.355879,2.11683 0.419766,2.93611 0.0641121,0.819286 0.176365,1.08878 0.364652,1.45928 0.188062,0.370501 1.0141,1.33466 1.25075,1.74632 0.236653,0.411892 0.389397,0.434388 0.421115,1.61068 0.0314937,1.17629 -0.105504,1.43274 -0.105504,1.43274 2.04259,-0.327309 5.07026,3.60445 4.81718,1.07281z"/>
    <g style="clip-path:url(#id1)">
     <g>
      <g>
       <line class="fil3 str13" x1="17.6783" y1="24.3734" x2="17.9534" y2= "20.9701" />
      </g>
      <g>
       <line class="fil3 str13" x1="16.0312" y1="24.1732" x2="16.4233" y2= "18.7887" />
      </g>
      <g>
       <line class="fil3 str13" x1="14.2707" y1="24.0956" x2="14.7255" y2= "17.8245" />
      </g>
      <g>
       <path class="fil3 str14" d="M12.7426 26.8124c-0.282993,-0.856403 -0.463857,-1.66782 -0.363302,-2.54784"/>
      </g>
      <path class="fil3 str15" d="M11.7323 22.4516c0,0 0.184913,0.755848 0.152294,0.961907 -0.0326185,0.206059 -0.2506,0.446535 -0.582633,0.461832 -0.332033,0.0155219 -0.47398,-0.259598 -0.530669,-0.487027 -0.0566886,-0.227654 -0.157693,-0.640896 -0.0764847,-0.8744 0.0812087,-0.233503 0.733128,-0.568461 1.03749,-0.0623125z"/>
      <path class="fil3 str15" d="M14.2725 15.8982c0.179064,0.914666 -0.0677114,1.36075 -0.457783,1.42981 -0.390072,0.0690611 -0.762147,-0.374325 -0.721205,-1.04627 0.0411667,-0.67194 0.883398,-0.896445 1.17899,-0.383548z"/>
     </g>
    </g>
    <path class="fil3 str15" d="M17.6189 32.5944c-0.0483653,-0.905668 -0.0620875,-1.85363 0.0643371,-2.15304 0.263197,-0.6247 0.729079,-0.710857 1.05571,-2.47068 0.326634,-1.76005 0.370951,-5.62275 0.370951,-5.62275 0,0 0.0362177,-0.3741 -0.32551,-0.592981 -0.361727,-0.218881 -0.911067,-0.0737852 -0.911067,-0.0737852 0,0 0.17479,-1.13557 -0.484553,-1.58053 -0.659118,-0.444736 -1.13377,0.17344 -1.13377,0.17344 0,0 0.185588,-1.17539 -0.462732,-1.49775 -0.64832,-0.32236 -1.18416,0.1244 -1.18416,0.1244l0.0679364 -2.60318c0,0 0.0661367,-0.702309 -0.812087,-0.923665 -0.877999,-0.221131 -1.19046,0.776094 -1.15244,1.53059 0.0377924,0.754499 -0.161518,4.89322 -0.284118,6.03824 -0.12305,1.14457 0.00112477,0.97068 0.00112477,0.97068 0.0125975,-0.0929064 -0.065012,-0.244526 -0.0593881,-0.330234 0.158818,-2.44751 -2.29769,-2.23785 -1.83046,0.141947 0.197735,1.00555 0.413917,3.49467 0.657093,4.03569 0.242951,0.540791 1.41699,1.76005 1.62305,2.44458 0.206059,0.684538 0.143521,2.14809 0.143521,2.14809"/>
   </g>
  </g>
 </g>
</svg>
