<?xml version="1.0" encoding="UTF-8"?>
<!DOCTYPE svg PUBLIC "-//W3C//DTD SVG 1.1//EN" "http://www.w3.org/Graphics/SVG/1.1/DTD/svg11.dtd">
<!-- Creator: CorelDRAW -->
<svg xmlns="http://www.w3.org/2000/svg" xml:space="preserve" width="279px" height="250px" style="shape-rendering:geometricPrecision; text-rendering:geometricPrecision; image-rendering:optimizeQuality; fill-rule:evenodd; clip-rule:evenodd"
viewBox="0 0 31.4379 27.9314"
 xmlns:xlink="http://www.w3.org/1999/xlink">
 <defs>
  <style type="text/css">
   <![CDATA[
    .str3 {stroke:black;stroke-width:0.0378716}
    .str1 {stroke:#6C7B9A;stroke-width:0.163967}
    .str2 {stroke:#737898;stroke-width:0.163967}
    .str5 {stroke:#DEDFD9;stroke-width:0.163967}
    .str12 {stroke:#5873A0;stroke-width:0.0559467;stroke-linecap:round;stroke-linejoin:round}
    .str10 {stroke:#5E73A0;stroke-width:0.0624021}
    .str7 {stroke:#5E73A0;stroke-width:0.0624021;stroke-linecap:round;stroke-linejoin:round}
    .str11 {stroke:#6176A3;stroke-width:0.0624021;stroke-linecap:round;stroke-linejoin:round}
    .str13 {stroke:#6478AA;stroke-width:0.0624021;stroke-linecap:round;stroke-linejoin:round}
    .str6 {stroke:#5E73A0;stroke-width:0.0639083;stroke-linecap:round;stroke-linejoin:round}
    .str8 {stroke:#6A6F8C;stroke-width:0.0656297;stroke-linecap:round;stroke-linejoin:round}
    .str9 {stroke:#5E73A0;stroke-width:0.0723003;stroke-linecap:round;stroke-linejoin:round}
    .str4 {stroke:#6778A4;stroke-width:0.14417}
    .str0 {stroke:#737898;stroke-width:0.156005;stroke-linecap:round;stroke-linejoin:round}
    .fil6 {fill:none}
    .fil4 {fill:none;fill-rule:nonzero}
    .fil8 {fill:#687CA1}
    .fil12 {fill:#90E9AF}
    .fil9 {fill:#9BF6B9}
    .fil13 {fill:#ACE0F6}
    .fil7 {fill:#B1E1F7}
    .fil14 {fill:#BBDFF9}
    .fil3 {fill:#DEF2FB}
    .fil11 {fill:#E6E6E6}
    .fil2 {fill:#F2FAFC}
    .fil0 {fill:#F9F9F9}
    .fil1 {fill:white}
    .fil10 {fill:#5F729D;fill-rule:nonzero}
    .fil5 {fill:#737898;fill-rule:nonzero}
   ]]>
  </style>
    <clipPath id="id0">
     <path d="M4.76687 7.95884l21.8612 0 0 13.2841 -21.8612 0 0 -13.2841z"/>
    </clipPath>
    <clipPath id="id1">
     <path d="M0.872122 21.621l29.6707 0 0 0.111033c0,0.756571 -0.618856,1.37564 -1.37586,1.37564l-26.9192 0c-0.756786,0 -1.37564,-0.619071 -1.37564,-1.37564l0 -0.111033z"/>
    </clipPath>
    <clipPath id="id2">
     <path d="M23.2198 15.9211c1.26375,0 2.28779,1.02468 2.28779,2.28886 0,1.26418 -1.02404,2.28886 -2.28779,2.28886 -1.26353,0 -2.28779,-1.02468 -2.28779,-2.28886 0,-1.26418 1.02425,-2.28886 2.28779,-2.28886z"/>
    </clipPath>
    <clipPath id="id3">
     <path d="M8.97363 10.4551c1.27472,0 2.30866,1.02899 2.30866,2.29876 0,1.2687 -1.03394,2.29812 -2.30866,2.29812 -1.27623,0 -2.30974,-1.02942 -2.30974,-2.29812 0,-1.26977 1.03351,-2.29876 2.30974,-2.29876z"/>
    </clipPath>
 </defs>
 <g id="Layer_x0020_1">
  <metadata id="CorelCorpID_0Corel-Layer"/>
  <g id="_480120032">
   <path id="_480118544" class="fil0" d="M7.56679 1.91531c0,0 5.97123,-3.90379 13.6271,-0.564416 7.65587,3.33937 9.28629,4.1577 9.70503,7.6322 0.418954,3.47429 1.6472,16.0001 -2.00311,16.9876 -3.65009,0.987459 -11.9603,2.60582 -19.9906,1.68894 -8.03028,-0.916665 -8.59061,-4.11832 -8.83398,-6.37534 -0.243368,-2.25723 0.0920968,-13.8918 1.73456,-16.2897 1.64247,-2.39796 0.529342,-0.258215 5.761,-3.07922z"/>
   <rect id="_480117032" class="fil1 str0" x="3.39972" y="6.8671" width="24.5955" height="15.6202" rx="0.488242" ry="0.488242"/>
   <polygon id="_480114344" class="fil2" points="4.76687,7.95884 26.628,7.95884 26.628,21.2429 4.76687,21.2429 "/>
   <g style="clip-path:url(#id0)">
    <g>
     <rect id="_480113672" class="fil1" transform="matrix(-0.885251 0.894572 -0.894572 -0.885251 12.4889 6.51844)" width="11.5338" height="1.47979"/>
     <rect id="_480113960" class="fil1" transform="matrix(-1.06173 0.675766 -0.675766 -1.06173 25.6851 7.48599)" width="23.8569" height="1.23384"/>
     <rect id="_480117896" class="fil1" transform="matrix(-1.06725 0.667016 -0.667016 -1.06725 29.653 10.8635)" width="22.5583" height="2.0427"/>
     <rect id="_480118640" class="fil3 str1" x="2.25581" y="4.11511" width="26.5835" height="4.94422"/>
    </g>
   </g>
   <g>
    <polygon class="fil4 str2" points="4.76687,7.95884 26.628,7.95884 26.628,21.2429 4.76687,21.2429 "/>
   </g>
   <circle class="fil1" cx="7.76305" cy="8.58974" r="0.295456"/>
   <circle class="fil1" cx="6.79598" cy="8.59407" r="0.295456"/>
   <path class="fil1" d="M0.872122 21.621l29.6707 0 0 0.111033c0,0.756571 -0.618856,1.37564 -1.37586,1.37564l-26.9192 0c-0.756786,0 -1.37564,-0.619071 -1.37564,-1.37564l0 -0.111033z"/>
   <g style="clip-path:url(#id1)">
    <g id="_480116024">
     <g>
      <path id="_4801143681" class="fil5" d="M18.7675 21.3198l-6.09819 0 0 -0.207433 6.09819 0 0 0 0 0.207433zm0.487812 0.28124l-0.206142 0 0 0 -0.000430359 -0.0146322 -0.0010759 -0.0135563 -0.00172144 -0.0137715 -0.00258215 -0.0142018 -0.00322769 -0.0135563 -0.00387323 -0.0135563 -0.00430359 -0.0129108 -0.00494913 -0.0124804 -0.00559467 -0.0122652 -0.00624021 -0.0122652 -0.00667056 -0.0116197 -0.00753128 -0.0116197 -0.00817682 -0.0111893 -0.008392 -0.0109742 -0.00882236 -0.0101134 -0.00882236 -0.00925272 -0.0101134 -0.0094679 -0.010759 -0.0094679 -0.0103286 -0.00817682 -0.0109742 -0.00796164 -0.0114045 -0.0073161 -0.0120501 -0.00688574 -0.0122652 -0.00645538 -0.0122652 -0.00559467 -0.0124804 -0.00494913 -0.0129108 -0.00430359 -0.0135563 -0.00387323 -0.0137715 -0.00301251 -0.0142018 -0.00258215 -0.0137715 -0.00193662 -0.0137715 -0.0010759 -0.0146322 -0.000215179 0 -0.207433 0.0249608 0.000645538 0.0249608 0.00193662 0.0245305 0.00322769 0.0236697 0.00430359 0.0232394 0.00559467 0.0230242 0.00645538 0.022809 0.00774646 0.0223787 0.00882236 0.0217331 0.00989826 0.0208724 0.010759 0.0202269 0.0116197 0.0200117 0.0129108 0.019151 0.0135563 0.0185054 0.0146322 0.0172144 0.0150626 0.0169992 0.0159233 0.0165688 0.0174295 0.0152777 0.0178599 0.014417 0.0182903 0.0133411 0.0189358 0.0126956 0.0197965 0.0118349 0.0202269 0.0109742 0.0213028 0.00989826 0.0217331 0.00882236 0.0223787 0.00774646 0.022809 0.00645538 0.0230242 0.00537949 0.0234546 0.00430359 0.0236697 0.00344287 0.0245305 0.00193662 0.025176 0.000430359 0.0249608 0 0zm-0.206142 0.000215179l0 -0.000215179 0.206142 0 0 0.000215179 0 0 -0.206142 0zm-0.28167 0.488888l0 -0.207433 0 0 0.0146322 -0.000215179 0.0137715 -0.0010759 0.0137715 -0.00193662 0.0142018 -0.00258215 0.0137715 -0.00301251 0.0135563 -0.00387323 0.0129108 -0.00430359 0.0124804 -0.00494913 0.0122652 -0.00559467 0.0122652 -0.00645538 0.0120501 -0.00688574 0.0114045 -0.0073161 0.0109742 -0.00796164 0.0103286 -0.00817682 0.010759 -0.0094679 0.0101134 -0.0094679 0.00882236 -0.00925272 0.00882236 -0.0101134 0.008392 -0.0109742 0.00817682 -0.0111893 0.0073161 -0.0114045 0.00688574 -0.0120501 0.00624021 -0.0122652 0.00559467 -0.0120501 0.00494913 -0.0124804 0.00430359 -0.0129108 0.00387323 -0.0133411 0.00322769 -0.0139867 0.00258215 -0.0139867 0.00172144 -0.0139867 0.0010759 -0.0135563 0.000430359 -0.0146322 0.206142 0 -0.000430359 0.0249608 -0.00193662 0.025176 -0.00344287 0.0247456 -0.00430359 0.0234546 -0.00537949 0.0234546 -0.00645538 0.0232394 -0.00774646 0.022809 -0.00882236 0.0223787 -0.00989826 0.0219483 -0.0109742 0.0208724 -0.0116197 0.0202269 -0.0129108 0.0200117 -0.0133411 0.0189358 -0.014417 0.0182903 -0.0152777 0.0178599 -0.0165688 0.0174295 -0.0169992 0.0159233 -0.0172144 0.0150626 -0.0185054 0.0146322 -0.019151 0.0135563 -0.0200117 0.0129108 -0.0202269 0.0116197 -0.0208724 0.010759 -0.0217331 0.00989826 -0.0223787 0.00882236 -0.022809 0.00774646 -0.0230242 0.00645538 -0.0232394 0.00559467 -0.0236697 0.00430359 -0.0245305 0.00322769 -0.0249608 0.00193662 -0.0249608 0.000645538 0 0zm-6.09819 -0.207433l6.09819 0 0 0.207433 -6.09819 0 0 0 0 -0.207433zm-0.487812 -0.281455l0.206142 0 0 0 0.000430359 0.0146322 0.0010759 0.0135563 0.00172144 0.0139867 0.00258215 0.0139867 0.00322769 0.0139867 0.00387323 0.0133411 0.00430359 0.0129108 0.00494913 0.0124804 0.00559467 0.0120501 0.00624021 0.0122652 0.00688574 0.0120501 0.0073161 0.0114045 0.00817682 0.0111893 0.008392 0.0109742 0.00882236 0.0101134 0.00882236 0.00925272 0.0101134 0.0094679 0.010759 0.0094679 0.0103286 0.00817682 0.0109742 0.00796164 0.0114045 0.0073161 0.0120501 0.00688574 0.0122652 0.00645538 0.0122652 0.00559467 0.0124804 0.00494913 0.0129108 0.00430359 0.0135563 0.00387323 0.0137715 0.00301251 0.0142018 0.00258215 0.0137715 0.00193662 0.0137715 0.0010759 0.0146322 0.000215179 0 0.207433 -0.0249608 -0.000645538 -0.0249608 -0.00193662 -0.0245305 -0.00322769 -0.0236697 -0.00430359 -0.0232394 -0.00559467 -0.0230242 -0.00645538 -0.022809 -0.00774646 -0.0223787 -0.00882236 -0.0217331 -0.00989826 -0.0208724 -0.010759 -0.0202269 -0.0116197 -0.0200117 -0.0129108 -0.019151 -0.0135563 -0.0185054 -0.0146322 -0.0172144 -0.0150626 -0.0169992 -0.0159233 -0.0165688 -0.0174295 -0.0152777 -0.0178599 -0.014417 -0.0182903 -0.0133411 -0.0189358 -0.0129108 -0.0200117 -0.0116197 -0.0202269 -0.0109742 -0.0208724 -0.00989826 -0.0219483 -0.00882236 -0.0223787 -0.00774646 -0.022809 -0.00645538 -0.0232394 -0.00537949 -0.0234546 -0.00430359 -0.0234546 -0.00344287 -0.0247456 -0.00193662 -0.025176 -0.000430359 -0.0249608 0 0zm0.206142 -0.000215179l0 0.000215179 -0.206142 0 0 -0.000215179 0 0 0.206142 0zm0.28167 -0.488673l0 0.207433 0 0 -0.0146322 0.000215179 -0.0137715 0.0010759 -0.0137715 0.00193662 -0.0142018 0.00258215 -0.0137715 0.00301251 -0.0135563 0.00387323 -0.0129108 0.00430359 -0.0124804 0.00494913 -0.0122652 0.00559467 -0.0122652 0.00645538 -0.0120501 0.00688574 -0.0114045 0.0073161 -0.0109742 0.00796164 -0.0103286 0.00817682 -0.010759 0.0094679 -0.0101134 0.0094679 -0.00882236 0.00925272 -0.00882236 0.0101134 -0.008392 0.0109742 -0.00817682 0.0111893 -0.00753128 0.0116197 -0.00667056 0.0116197 -0.00624021 0.0122652 -0.00559467 0.0122652 -0.00494913 0.0124804 -0.00430359 0.0129108 -0.00387323 0.0135563 -0.00322769 0.0135563 -0.00258215 0.0142018 -0.00172144 0.0137715 -0.0010759 0.0135563 -0.000430359 0.0146322 -0.206142 0 0.000430359 -0.0249608 0.00193662 -0.025176 0.00344287 -0.0245305 0.00430359 -0.0236697 0.00537949 -0.0234546 0.00645538 -0.0230242 0.00774646 -0.022809 0.00882236 -0.0223787 0.00989826 -0.0217331 0.0109742 -0.0213028 0.0118349 -0.0202269 0.0126956 -0.0197965 0.0133411 -0.0189358 0.014417 -0.0182903 0.0152777 -0.0178599 0.0165688 -0.0174295 0.0169992 -0.0159233 0.0172144 -0.0150626 0.0185054 -0.0146322 0.019151 -0.0135563 0.0200117 -0.0129108 0.0202269 -0.0116197 0.0208724 -0.010759 0.0217331 -0.00989826 0.0223787 -0.00882236 0.022809 -0.00774646 0.0230242 -0.00645538 0.0232394 -0.00559467 0.0236697 -0.00430359 0.0245305 -0.00322769 0.0249608 -0.00193662 0.0249608 -0.000645538 0 0z"/>
     </g>
    </g>
   </g>
   <g>
    <path class="fil4 str2" d="M0.872122 21.621l29.6707 0 0 0.111033c0,0.756571 -0.618856,1.37564 -1.37586,1.37564l-26.9192 0c-0.756786,0 -1.37564,-0.619071 -1.37564,-1.37564l0 -0.111033z"/>
   </g>
   <circle class="fil6 str3" cx="7.63766" cy="8.49117" r="0.295456"/>
   <circle class="fil6 str3" cx="6.70174" cy="8.49117" r="0.295456"/>
   <circle class="fil1" cx="5.86411" cy="8.55833" r="0.295456"/>
   <circle class="fil6 str3" cx="5.77014" cy="8.49117" r="0.295456"/>
   <g>
    <path class="fil6 str4" d="M19.3242 10.5036l-6.58277 0c-0.227445,0 -0.414221,0.18613 -0.414221,0.41379l0 1.34681 -0.483293 0.465218 0.483293 0.535797 0 1.24955c0,0.22723 0.186776,0.412929 0.414221,0.412929l6.58277 0c0.22723,0 0.413145,-0.1857 0.413145,-0.412929l0 -3.59737c0,-0.22766 -0.185915,-0.41379 -0.413145,-0.41379z"/>
    <path id="1" class="fil1" d="M19.3242 10.5036l-6.58277 0c-0.227445,0 -0.414221,0.18613 -0.414221,0.41379l0 1.34681 -0.483293 0.465218 0.483293 0.535797 0 1.24955c0,0.22723 0.186776,0.412929 0.414221,0.412929l6.58277 0c0.22723,0 0.413145,-0.1857 0.413145,-0.412929l0 -3.59737c0,-0.22766 -0.185915,-0.41379 -0.413145,-0.41379z"/>
   </g>
   <rect class="fil7" x="12.8711" y="11.158" width="4.71253" height="0.856771" rx="0.176662" ry="0.176662"/>
   <rect class="fil8" x="13.1182" y="13.1504" width="5.01693" height="0.0783541" rx="0.0391627" ry="0.0391627"/>
   <rect class="fil8" x="13.1182" y="12.6171" width="5.74244" height="0.0783541" rx="0.0391627" ry="0.0391627"/>
   <rect class="fil1" x="13.1343" y="11.5096" width="4.18627" height="0.121212" rx="0.0606806" ry="0.0606806"/>
   <rect class="fil8" x="13.1181" y="13.7073" width="4.26558" height="0.0783541" rx="0.0391627" ry="0.0391627"/>
   <rect class="fil8" x="13.1181" y="14.2699" width="3.64906" height="0.0783541" rx="0.0391627" ry="0.0391627"/>
   <g>
    <path class="fil6 str4" d="M12.8309 15.9926l6.58342 0c0.22723,0 0.413145,0.186561 0.413145,0.41379l0 1.34681 0.483939 0.465648 -0.483939 0.535151 0 1.24955c0,0.227445 -0.185915,0.414005 -0.413145,0.414005l-6.58342 0c-0.227445,0 -0.41336,-0.186561 -0.41336,-0.414005l0 -3.59716c0,-0.22723 0.185915,-0.41379 0.41336,-0.41379z"/>
    <path id="1" class="fil1" d="M12.8309 15.9926l6.58342 0c0.22723,0 0.413145,0.186561 0.413145,0.41379l0 1.34681 0.483939 0.465648 -0.483939 0.535151 0 1.24955c0,0.227445 -0.185915,0.414005 -0.413145,0.414005l-6.58342 0c-0.227445,0 -0.41336,-0.186561 -0.41336,-0.414005l0 -3.59716c0,-0.22723 0.185915,-0.41379 0.41336,-0.41379z"/>
   </g>
   <rect class="fil9" x="14.5717" y="16.6473" width="4.71253" height="0.856771" rx="0.176662" ry="0.176662"/>
   <rect class="fil8" x="14.0202" y="18.6397" width="5.01693" height="0.0783541" rx="0.0391627" ry="0.0391627"/>
   <rect class="fil8" x="13.2946" y="18.1064" width="5.74244" height="0.0783541" rx="0.0391627" ry="0.0391627"/>
   <rect class="fil1" x="14.8347" y="16.9989" width="4.18627" height="0.121212" rx="0.0606806" ry="0.0606806"/>
   <rect class="fil8" x="14.7715" y="19.1966" width="4.26558" height="0.0783541" rx="0.0391627" ry="0.0391627"/>
   <rect class="fil8" x="15.3881" y="19.7592" width="3.64906" height="0.0783541" rx="0.0391627" ry="0.0391627"/>
   <g>
    <path class="fil10" d="M25.5797 18.21l-0.14417 0 0 0 -0.00301251 -0.114045 -0.008392 -0.112754 -0.0139867 -0.110817 -0.0195813 -0.109311 -0.0249608 -0.106944 -0.0296948 -0.105438 -0.0348591 -0.102856 -0.039593 -0.100919 -0.044327 -0.0979067 -0.0488457 -0.0955397 -0.0533645 -0.0929575 -0.0576681 -0.0897298 -0.0617565 -0.0869325 -0.0656297 -0.08392 -0.0699333 -0.0802619 -0.0733762 -0.0772494 -0.0768191 -0.0733762 -0.0804771 -0.069503 -0.0837048 -0.0660601 -0.0869325 -0.0615413 -0.0897298 -0.0576681 -0.0929575 -0.0533645 -0.0955397 -0.0490609 -0.0981218 -0.044327 -0.100489 -0.0398082 -0.102856 -0.0348591 -0.105223 -0.0296948 -0.107159 -0.0249608 -0.109096 -0.0193662 -0.111033 -0.0139867 -0.112539 -0.00860718 -0.114045 -0.00301251 0 -0.14417 0.121361 0.00301251 0.119855 0.00903754 0.117918 0.0152777 0.116412 0.0206572 0.114045 0.0262519 0.112109 0.0318466 0.109742 0.0370109 0.107375 0.0423904 0.104577 0.0473395 0.101565 0.0520734 0.0989826 0.0568074 0.0957549 0.0615413 0.0925272 0.0658449 0.0888691 0.0699333 0.0856414 0.0742369 0.0819834 0.0781102 0.0781102 0.0819834 0.0742369 0.0858566 0.0699333 0.0890843 0.0660601 0.0925272 0.061111 0.0957549 0.0568074 0.0989826 0.0522886 0.101565 0.0473395 0.104792 0.0421752 0.107375 0.0370109 0.109742 0.0318466 0.111893 0.0262519 0.11426 0.0208724 0.116197 0.0148474 0.118134 0.00925272 0.12007 0.00301251 0.121361 0 0zm-2.35987 2.36095l0 -0.14417 0 0 0.114045 -0.00301251 0.112539 -0.00860718 0.111033 -0.0139867 0.109096 -0.0193662 0.107159 -0.0249608 0.105223 -0.0296948 0.102856 -0.0348591 0.100489 -0.0398082 0.0981218 -0.044327 0.0955397 -0.0490609 0.0929575 -0.0533645 0.0897298 -0.0576681 0.0869325 -0.0615413 0.0837048 -0.0660601 0.0804771 -0.069503 0.0768191 -0.0733762 0.0733762 -0.0772494 0.0699333 -0.0802619 0.0656297 -0.08392 0.0617565 -0.0869325 0.0576681 -0.0897298 0.0533645 -0.0929575 0.0488457 -0.0955397 0.044327 -0.0979067 0.039593 -0.100919 0.0348591 -0.102856 0.0296948 -0.105438 0.0249608 -0.106944 0.0195813 -0.109311 0.0139867 -0.110817 0.008392 -0.112754 0.00301251 -0.114045 0.14417 0 -0.00301251 0.121361 -0.00925272 0.12007 -0.0148474 0.118134 -0.0208724 0.116197 -0.0262519 0.11426 -0.0318466 0.111893 -0.0370109 0.109742 -0.0421752 0.107375 -0.0473395 0.104792 -0.0522886 0.101565 -0.0568074 0.0989826 -0.061111 0.0957549 -0.0660601 0.0925272 -0.0699333 0.0890843 -0.0742369 0.0858566 -0.0781102 0.0819834 -0.0819834 0.0781102 -0.0856414 0.0742369 -0.0888691 0.0699333 -0.0925272 0.0658449 -0.0957549 0.0615413 -0.0989826 0.0568074 -0.101565 0.0520734 -0.104577 0.0473395 -0.107375 0.0423904 -0.109742 0.0370109 -0.112109 0.0318466 -0.114045 0.0262519 -0.116412 0.0206572 -0.117918 0.0152777 -0.119855 0.00903754 -0.121361 0.00301251 0 0zm-2.35987 -2.36095l0.14417 0 0 0 0.00301251 0.114045 0.008392 0.112754 0.0142018 0.110817 0.0193662 0.109311 0.0249608 0.106944 0.0296948 0.105438 0.0348591 0.102856 0.0398082 0.100919 0.0441118 0.0981218 0.0488457 0.0953245 0.0533645 0.0929575 0.0578833 0.0897298 0.0615413 0.0869325 0.0658449 0.08392 0.0697182 0.0804771 0.0733762 0.0770343 0.0768191 0.0733762 0.0804771 0.069503 0.08392 0.0658449 0.0869325 0.0617565 0.0897298 0.0578833 0.0927424 0.0531493 0.0955397 0.0490609 0.098337 0.044327 0.100274 0.0398082 0.102856 0.0348591 0.105223 0.0296948 0.107159 0.0249608 0.109096 0.0193662 0.111033 0.0139867 0.112539 0.00860718 0.114045 0.00301251 0 0.14417 -0.121361 -0.00301251 -0.119855 -0.00903754 -0.117918 -0.0152777 -0.116412 -0.0206572 -0.114045 -0.0262519 -0.112109 -0.0318466 -0.109742 -0.0370109 -0.107159 -0.0423904 -0.104362 -0.0473395 -0.101995 -0.0520734 -0.0987674 -0.0570226 -0.0957549 -0.0613262 -0.0925272 -0.0656297 -0.0890843 -0.0701485 -0.0856414 -0.0742369 -0.0819834 -0.0781102 -0.0781102 -0.0821986 -0.0740217 -0.0856414 -0.0701485 -0.0890843 -0.0658449 -0.0925272 -0.0613262 -0.0957549 -0.0568074 -0.0989826 -0.0522886 -0.10178 -0.0471243 -0.104577 -0.0423904 -0.107375 -0.0370109 -0.109742 -0.0318466 -0.111893 -0.0262519 -0.11426 -0.0206572 -0.116197 -0.0150626 -0.118134 -0.00925272 -0.12007 -0.00301251 -0.121361 0 0zm2.35987 -2.36095l0 0.14417 0 0 -0.114045 0.00301251 -0.112539 0.00860718 -0.111033 0.0139867 -0.109096 0.0193662 -0.107159 0.0249608 -0.105223 0.0296948 -0.102856 0.0348591 -0.100274 0.0398082 -0.098337 0.044327 -0.0955397 0.0490609 -0.0927424 0.0531493 -0.0897298 0.0578833 -0.0869325 0.0617565 -0.08392 0.0658449 -0.0804771 0.069503 -0.0768191 0.0733762 -0.0733762 0.0770343 -0.0697182 0.0804771 -0.0658449 0.08392 -0.0615413 0.0869325 -0.0578833 0.0897298 -0.0533645 0.0929575 -0.0488457 0.0953245 -0.0441118 0.0981218 -0.0398082 0.100919 -0.0348591 0.102856 -0.0296948 0.105438 -0.0249608 0.106944 -0.0193662 0.109311 -0.0142018 0.110817 -0.008392 0.112754 -0.00301251 0.114045 -0.14417 0 0.00301251 -0.121361 0.00925272 -0.12007 0.0150626 -0.118134 0.0206572 -0.116197 0.0262519 -0.11426 0.0318466 -0.111893 0.0370109 -0.109742 0.0423904 -0.107375 0.0471243 -0.104577 0.0522886 -0.10178 0.0568074 -0.0989826 0.0613262 -0.0957549 0.0658449 -0.0925272 0.0701485 -0.0890843 0.0740217 -0.0856414 0.0781102 -0.0821986 0.0819834 -0.0781102 0.0856414 -0.0742369 0.0890843 -0.0701485 0.0925272 -0.0656297 0.0957549 -0.0613262 0.0987674 -0.0570226 0.101995 -0.0520734 0.104362 -0.0473395 0.107159 -0.0423904 0.109742 -0.0370109 0.112109 -0.0318466 0.114045 -0.0262519 0.116412 -0.0206572 0.117918 -0.0152777 0.119855 -0.00903754 0.121361 -0.00301251 0 0z"/>
   </g>
   <path id="1" class="fil1" d="M23.2198 15.9211c1.26375,0 2.28779,1.02468 2.28779,2.28886 0,1.26418 -1.02404,2.28886 -2.28779,2.28886 -1.26353,0 -2.28779,-1.02468 -2.28779,-2.28886 0,-1.26418 1.02425,-2.28886 2.28779,-2.28886z"/>
   <g style="clip-path:url(#id2)">
    <g>
     <rect class="fil11" x="22.1576" y="19.832" width="0.0784952" height="0.221749"/>
     <rect class="fil11" x="22.3578" y="19.8293" width="0.0784134" height="0.246033"/>
     <rect class="fil11" x="22.593" y="19.8401" width="0.0730169" height="0.248813"/>
     <rect class="fil11" x="22.804" y="19.8374" width="0.0757152" height="0.240637"/>
     <rect class="fil11" x="23.0122" y="19.8482" width="0.0757152" height="0.221749"/>
     <rect class="fil11" x="23.2448" y="19.8266" width="0.0676203" height="0.243335"/>
     <rect class="fil11" x="23.4287" y="19.8482" width="0.0757152" height="0.227145"/>
     <rect class="fil11" x="23.6504" y="19.8482" width="0.0973831" height="0.243417"/>
     <rect class="fil11" x="23.8695" y="19.8563" width="0.0757969" height="0.221749"/>
     <rect class="fil11" x="24.0777" y="19.8726" width="0.0757152" height="0.227145"/>
     <rect class="fil11" x="22.2577" y="20.1701" width="0.105478" height="0.262305"/>
     <rect class="fil11" x="22.4957" y="20.1728" width="0.0757152" height="0.124366"/>
     <rect class="fil11" x="22.6985" y="20.2106" width="0.0811935" height="0.148732"/>
     <rect class="fil11" x="22.9149" y="20.2052" width="0.0838917" height="0.18659"/>
     <rect class="fil11" x="23.1366" y="20.2133" width="0.0730169" height="0.178495"/>
     <rect class="fil11" x="23.3097" y="20.1944" width="0.0811117" height="0.197383"/>
     <rect class="fil11" x="23.545" y="20.2106" width="0.0919048" height="0.311037"/>
     <rect class="fil11" x="23.7668" y="20.2106" width="0.0865082" height="0.240719"/>
     <rect class="fil11" x="23.9588" y="20.216" width="0.0784134" height="0.289369"/>
     <path class="fil6 str5" d="M22.2876 19.6293c0,0 -0.00279733,-0.173219 0.0675664,-0.22723 0.0703637,-0.0540101 0.41379,0.408411 0.576035,0.427346 0.162245,0.0189358 0.229812,-0.294796 0.229812,-0.294796 0,0 0.0540101,0.343426 0.267683,0.297378 0.213673,-0.0458332 0.489533,-0.38388 0.524608,-0.397437 0.0352894,-0.0135563 0.094679,0.146107 0.0703637,0.224432"/>
     <path class="fil12" d="M23.5406 17.4917c0.0585288,-0.0215179 0.145461,-0.214104 0.276936,-0.174295 0.131259,0.0400234 0.365375,-0.151056 0.100058,-0.565061 -0.265531,-0.414005 -1.25041,-0.317175 -1.53294,-0.0316314 -0.282746,0.285758 -0.0914513,0.72537 0.276721,0.770988 0.368387,0.0454029 0.565277,0.0884388 0.879223,0z"/>
     <g>
      <path class="fil6 str6" d="M22.6272 17.7489c0.116197,-0.04196 0.244444,0.0182903 0.286404,0.134702 0.04196,0.116412 -0.0182903,0.244444 -0.134702,0.286619 -0.116412,0.04196 -0.244444,-0.0185054 -0.286404,-0.134702 -0.0421752,-0.116412 0.0185054,-0.244874 0.134702,-0.286619z"/>
     </g>
     <g>
      <path class="fil6 str6" d="M23.3267 17.7495c0.116627,-0.0417448 0.244874,0.0185054 0.286619,0.134702 0.04196,0.116627 -0.0182903,0.244659 -0.134702,0.286619 -0.116412,0.04196 -0.244444,-0.0182903 -0.286619,-0.134702 -0.0417448,-0.116412 0.0185054,-0.244444 0.134702,-0.286619z"/>
     </g>
     <g>
      <path class="fil6 str6" d="M22.9259 17.944c-0.0234546,-0.00451877 0.13836,-0.122652 0.254988,0.00236697"/>
     </g>
     <g>
      <path class="fil6 str7" d="M22.4652 19.3253c0,0 0.462636,0.430144 0.492331,0.430144 0.0294796,0 0.22142,-0.292214 0.22142,-0.292214 0,0 0.0989826,0.302973 0.197535,0.294796 0.0987674,-0.00817682 0.438321,-0.25176 0.535582,-0.381298"/>
     </g>
     <g>
      <path class="fil6 str8" d="M23.3244 18.6188c-0.10135,0.117918 -0.322984,0.186345 -0.427777,-0.0260367"/>
     </g>
     <g>
      <path class="fil6 str9" d="M23.62 17.9118c0,0 0.189358,-0.180966 0.38926,-0.190434 0.200332,-0.00968308 0.129968,0.140512 0.0436814,0.160739"/>
     </g>
     <g>
      <path class="fil6 str10" d="M23.2418 16.6394c0.403246,0 0.692232,0.64769 0.692232,1.44665 0,0.531493 -0.0415296,0.875996 -0.247241,1.10366 -0.103717,0.114475 -0.299315,0.253912 -0.450371,0.262089 -0.450586,0.0243153 -0.757217,-0.555809 -0.713966,-1.44665 0.0432511,-0.891058 0.316099,-1.36574 0.719345,-1.36574z"/>
     </g>
     <g>
      <path class="fil6 str7" d="M21.9649 20.0095c0,0 0.247241,-0.734408 0.570441,-1.00209"/>
     </g>
     <g>
      <path class="fil6 str7" d="M23.9024 19.0834c0,0 0.308352,0.443485 0.432726,1.00596"/>
     </g>
     <g>
      <path class="fil6 str7" d="M24.646 19.8839c0,0 -0.29329,-0.408626 -0.505672,-0.369248"/>
     </g>
     <g>
      <path class="fil6 str7" d="M21.742 19.8189c0,0 0.163752,-0.261013 0.426055,-0.285113"/>
     </g>
    </g>
   </g>
   <g>
    <path class="fil10" d="M11.3548 12.7539l-0.145031 0 0 0 -0.00279733 -0.114691 -0.00860718 -0.112969 -0.014417 -0.111463 -0.0195813 -0.109742 -0.0249608 -0.107805 -0.0301251 -0.105653 -0.0350743 -0.103501 -0.0400234 -0.100919 -0.0447573 -0.0987674 -0.0494913 -0.0959701 -0.0540101 -0.0931727 -0.0580985 -0.0901602 -0.0624021 -0.0875781 -0.0662753 -0.0841352 -0.0703637 -0.0804771 -0.0740217 -0.0774646 -0.077895 -0.0738066 -0.0809075 -0.0701485 -0.0845655 -0.0660601 -0.0877932 -0.0619717 -0.0905906 -0.0580985 -0.0938183 -0.0533645 -0.0961852 -0.0492761 -0.0989826 -0.0445422 -0.10178 -0.0398082 -0.103717 -0.0350743 -0.106083 -0.0299099 -0.10802 -0.0249608 -0.110172 -0.0195813 -0.111893 -0.0142018 -0.113615 -0.008392 -0.115121 -0.00301251 0 -0.14417 0.122437 0.00301251 0.120931 0.00925272 0.119209 0.0150626 0.117058 0.0208724 0.115336 0.0262519 0.112969 0.0320617 0.110602 0.0372261 0.108235 0.0423904 0.105438 0.0475547 0.102641 0.0522886 0.0998433 0.0572377 0.0966156 0.0615413 0.0933879 0.0662753 0.0897298 0.0703637 0.0865022 0.0744521 0.0826289 0.0785405 0.0787557 0.0821986 0.0750976 0.0860718 0.0705789 0.0897298 0.0662753 0.0927424 0.0619717 0.0961852 0.0574529 0.0991977 0.0525038 0.102425 0.0477698 0.104792 0.0426055 0.107805 0.0376564 0.110387 0.0318466 0.112539 0.0266823 0.114691 0.0208724 0.116627 0.0152777 0.118779 0.00903754 0.120285 0.00322769 0.122007 0 0zm-2.38118 2.3702l0 -0.14417 0 0 0.115121 -0.00301251 0.113615 -0.008392 0.111893 -0.0142018 0.110172 -0.0195813 0.10802 -0.0249608 0.106083 -0.0299099 0.103717 -0.0350743 0.10178 -0.0400234 0.0989826 -0.0445422 0.0961852 -0.0492761 0.0938183 -0.0533645 0.0908057 -0.0580985 0.0875781 -0.0617565 0.0845655 -0.0662753 0.0811227 -0.0699333 0.0776798 -0.0738066 0.0740217 -0.0772494 0.0703637 -0.0809075 0.0662753 -0.0841352 0.0624021 -0.0873629 0.0580985 -0.0901602 0.0540101 -0.0931727 0.0494913 -0.0959701 0.0447573 -0.0987674 0.0400234 -0.100919 0.0350743 -0.103286 0.0301251 -0.105653 0.0249608 -0.10759 0.0195813 -0.109742 0.014417 -0.111248 0.00860718 -0.113184 0.00279733 -0.114475 0.145031 0 -0.00322769 0.121792 -0.00903754 0.120501 -0.0152777 0.118564 -0.0208724 0.116627 -0.0266823 0.114475 -0.0318466 0.112539 -0.0376564 0.110172 -0.0426055 0.107805 -0.0477698 0.104792 -0.0525038 0.102425 -0.0574529 0.0991977 -0.0619717 0.0961852 -0.0662753 0.0929575 -0.0705789 0.0892995 -0.0750976 0.0860718 -0.0787557 0.0824137 -0.0828441 0.0785405 -0.086287 0.0742369 -0.0897298 0.0705789 -0.0936031 0.0660601 -0.0964004 0.0615413 -0.0998433 0.0572377 -0.102641 0.0522886 -0.105438 0.0475547 -0.108235 0.0426055 -0.110602 0.0372261 -0.112969 0.0320617 -0.115336 0.0262519 -0.117058 0.0208724 -0.119209 0.0150626 -0.120931 0.00925272 -0.122437 0.00301251 0 0zm-2.38225 -2.3702l0.145031 0 0 0 0.00279733 0.114475 0.00860718 0.113184 0.014417 0.111248 0.0195813 0.109742 0.0249608 0.10759 0.0301251 0.105653 0.0350743 0.103286 0.0400234 0.100919 0.0447573 0.0987674 0.0494913 0.0959701 0.0537949 0.0931727 0.0580985 0.0901602 0.0626172 0.0873629 0.0662753 0.0841352 0.0703637 0.0809075 0.0740217 0.0772494 0.0776798 0.0738066 0.0811227 0.0699333 0.0845655 0.0662753 0.0875781 0.0617565 0.0910209 0.0580985 0.0936031 0.0533645 0.0964004 0.0492761 0.0991977 0.0445422 0.101565 0.0400234 0.103932 0.0350743 0.106083 0.0299099 0.108235 0.0249608 0.110387 0.0195813 0.111893 0.0142018 0.113615 0.008392 0.115336 0.00301251 0 0.14417 -0.122652 -0.00301251 -0.120931 -0.00925272 -0.119209 -0.0150626 -0.117273 -0.0208724 -0.115551 -0.0262519 -0.112969 -0.0320617 -0.110817 -0.0372261 -0.10802 -0.0426055 -0.105653 -0.0475547 -0.102856 -0.0522886 -0.0996281 -0.0572377 -0.0966156 -0.0615413 -0.0936031 -0.0660601 -0.0897298 -0.0705789 -0.086287 -0.0742369 -0.0828441 -0.0785405 -0.0787557 -0.0824137 -0.0750976 -0.0860718 -0.0705789 -0.0892995 -0.0664905 -0.0929575 -0.0619717 -0.0961852 -0.0572377 -0.0991977 -0.0525038 -0.102425 -0.0477698 -0.104792 -0.0426055 -0.107805 -0.0376564 -0.110172 -0.0318466 -0.112539 -0.0266823 -0.114475 -0.0208724 -0.116627 -0.0152777 -0.118564 -0.00903754 -0.120501 -0.00322769 -0.121792 0 0zm2.38225 -2.37085l0 0.14417 0 0 -0.115336 0.00301251 -0.113615 0.008392 -0.111893 0.0142018 -0.110387 0.0195813 -0.108235 0.0249608 -0.106083 0.0299099 -0.103932 0.0350743 -0.101565 0.0398082 -0.0991977 0.0445422 -0.0964004 0.0492761 -0.0936031 0.0533645 -0.0910209 0.0580985 -0.0875781 0.0619717 -0.0845655 0.0660601 -0.0809075 0.0701485 -0.077895 0.0738066 -0.0740217 0.0774646 -0.0703637 0.0804771 -0.0662753 0.0843504 -0.0626172 0.0873629 -0.0580985 0.0901602 -0.0537949 0.0931727 -0.0494913 0.0959701 -0.0447573 0.0987674 -0.0400234 0.100919 -0.0350743 0.103501 -0.0301251 0.105653 -0.0249608 0.107805 -0.0195813 0.109742 -0.014417 0.111463 -0.00860718 0.112969 -0.00279733 0.114691 -0.145031 0 0.00322769 -0.122007 0.00903754 -0.120285 0.0152777 -0.118779 0.0208724 -0.116627 0.0266823 -0.114691 0.0318466 -0.112539 0.0376564 -0.110387 0.0426055 -0.107805 0.0477698 -0.104792 0.0525038 -0.102425 0.0572377 -0.0991977 0.0619717 -0.0961852 0.0664905 -0.0929575 0.0705789 -0.0895147 0.0750976 -0.0860718 0.0787557 -0.0821986 0.0826289 -0.0785405 0.0865022 -0.0744521 0.0897298 -0.0703637 0.0936031 -0.0662753 0.0966156 -0.0615413 0.0996281 -0.0572377 0.102856 -0.0522886 0.105653 -0.0475547 0.10802 -0.0423904 0.110817 -0.0372261 0.112969 -0.0320617 0.115551 -0.0262519 0.117273 -0.0208724 0.119209 -0.0150626 0.120931 -0.00925272 0.122652 -0.00301251 0 0z"/>
   </g>
   <path id="1" class="fil1" d="M8.97363 10.4551c1.27472,0 2.30866,1.02899 2.30866,2.29876 0,1.2687 -1.03394,2.29812 -2.30866,2.29812 -1.27623,0 -2.30974,-1.02942 -2.30974,-2.29812 0,-1.26977 1.03351,-2.29876 2.30974,-2.29876z"/>
   <g style="clip-path:url(#id3)">
    <g>
     <g>
      <line id="2" class="fil6 str11" x1="7.56033" y1="14.4114" x2="7.79423" y2= "14.2315" />
     </g>
     <g>
      <path class="fil6 str11" d="M7.7456 14.5386c0,0 0.0811227,-0.178599 0.0230242,-0.301682 -0.0583136,-0.123083 -0.0624021,-0.135348 -0.0458332,-0.170422 0.0161385,-0.0352894 0.273063,-0.0865022 0.43789,-0.302758"/>
     </g>
     <g>
      <line class="fil6 str11" x1="8.23083" y1="13.6936" x2="8.3608" y2= "13.5395" />
     </g>
     <g>
      <line class="fil6 str11" x1="9.5587" y1="13.526" x2="9.69384" y2= "13.6962" />
     </g>
     <g>
      <path class="fil6 str11" d="M9.75731 13.7816c0,0 0.0828441,0.0621869 0.239495,0.105438 0.156866,0.0432511 0.251545,0.0892995 0.13793,0.208294 -0.11383,0.118779 -0.170207,0.31782 -0.0294796,0.523317"/>
     </g>
     <g>
      <path class="fil6 str11" d="M10.4229 14.3591c0,0 -0.0959701,-0.132335 -0.314808,-0.231103"/>
     </g>
     <path class="fil13" d="M8.01845 12.2536c0,0 -0.252406,-0.781962 0.690511,-1.31001 0.444346,-0.248747 0.712459,0.0499216 0.804341,0.203345 0.0559467,0.0929575 0.0458332,0.135778 -0.0137715,0.227014 -0.158372,0.241862 -0.565492,0.456396 -0.880084,0.566783 -0.0791861,0.0279733 -0.134057,0.116842 -0.154929,0.120716 -0.00172144,0.000215179 -0.156866,-0.243798 -0.14955,0.0544404 0.00494913,0.194522 -0.0258215,0.212597 -0.0258215,0.212597 0,0 -0.178384,-0.0785405 -0.141588,-0.294581 0.0370109,-0.21604 -0.0882236,-0.0608958 -0.129108,0.219698z"/>
     <g>
      <g>
       <path class="fil6 str12" d="M8.8953 14.385c0,0 -0.130614,0.90483 -0.0723003,1.2134 0.0585288,0.308998 0.380437,0.503305 0.380437,0.503305 0,0 0.0576681,-0.204421 0.113184,-0.274139 0.0550859,-0.069503 0.0677815,-0.0869325 -0.0520734,-0.256279 -0.120285,-0.168916 -0.22228,-0.936461 -0.264456,-1.1766 -0.0423904,-0.23971 -0.115121,-0.0159233 -0.115121,-0.0159233l0.0103286 0.00624021z"/>
       <path id="1" class="fil14" d="M8.8953 14.385c0,0 -0.130614,0.90483 -0.0723003,1.2134 0.0585288,0.308998 0.380437,0.503305 0.380437,0.503305 0,0 0.0576681,-0.204421 0.113184,-0.274139 0.0550859,-0.069503 0.0677815,-0.0869325 -0.0520734,-0.256279 -0.120285,-0.168916 -0.22228,-0.936461 -0.264456,-1.1766 -0.0423904,-0.23971 -0.115121,-0.0159233 -0.115121,-0.0159233l0.0103286 0.00624021z"/>
      </g>
      <g>
       <path class="fil6 str12" d="M8.96093 14.2361c0,0 0.12588,0.118349 0.0869325,0.184624 -0.0389475,0.0662753 -0.230242,0.0122652 -0.236913,-0.0294796 -0.00688574,-0.0417448 0.0806923,-0.150195 0.14998,-0.155144z"/>
       <path id="1" class="fil14" d="M8.96093 14.2361c0,0 0.12588,0.118349 0.0869325,0.184624 -0.0389475,0.0662753 -0.230242,0.0122652 -0.236913,-0.0294796 -0.00688574,-0.0417448 0.0806923,-0.150195 0.14998,-0.155144z"/>
      </g>
     </g>
     <path class="fil13" d="M9.63746 11.3057c0,0 -0.0135563,0.132335 0.064769,0.319111 0.0785405,0.186561 -0.116197,0.524608 -0.159448,0.562479 -0.0432511,0.0378716 0.0271126,-0.156866 0.00537949,-0.165043 -0.0217331,-0.00796164 -0.124374,0.0974763 -0.124374,0.0974763 0,0 0.00796164,-0.118994 -0.0432511,-0.0811227 -0.0514279,0.0378716 -0.0514279,0.0514279 -0.0514279,0.0514279 0,0 -0.0649842,-0.146107 -0.110817,-0.186561 -0.0460484,-0.0406689 -0.0486306,-0.135348 0.102641,-0.243583 0.151486,-0.10802 0.308352,-0.243368 0.316529,-0.354185z"/>
     <g>
      <path class="fil6 str13" d="M8.28721 12.4938c0.00236697,1.29818 0.597553,1.38726 0.721712,1.38984 0.124589,0.00279733 0.576681,-0.303403 0.64102,-0.946575 0.120501,-1.2035 -0.343642,-1.80987 -0.746458,-1.74059 -0.337186,0.0578833 -0.61735,0.63521 -0.616274,1.29732z"/>
     </g>
     <g>
      <path class="fil6 str11" d="M8.24869 13.824l0.492115 0.394854 0.220344 -0.252836c0,0 0.0553011,0.250039 0.15536,0.250039 0.100058,0 0.438105,-0.235191 0.519443,-0.370324"/>
     </g>
     <g>
      <path class="fil6 str13" d="M8.76448 12.9323c0,0 0.22723,0.355477 0.482648,0.0271126"/>
     </g>
    </g>
   </g>
  </g>
 </g>
</svg>
