<?xml version="1.0" encoding="UTF-8"?>
<!DOCTYPE svg PUBLIC "-//W3C//DTD SVG 1.1//EN" "http://www.w3.org/Graphics/SVG/1.1/DTD/svg11.dtd">
<!-- Creator: CorelDRAW -->
<svg xmlns="http://www.w3.org/2000/svg" xml:space="preserve" width="266px" height="250px" style="shape-rendering:geometricPrecision; text-rendering:geometricPrecision; image-rendering:optimizeQuality; fill-rule:evenodd; clip-rule:evenodd"
viewBox="0 0 19.1264 17.9604"
 xmlns:xlink="http://www.w3.org/1999/xlink">
 <defs>
  <style type="text/css">
   <![CDATA[
    .str4 {stroke:#657AA9;stroke-width:0.0428137}
    .str13 {stroke:#697CA6;stroke-width:0.0428137}
    .str0 {stroke:#6B7DAD;stroke-width:0.0428137}
    .str2 {stroke:#7386A7;stroke-width:0.0428137}
    .str9 {stroke:#7482A7;stroke-width:0.0428137}
    .str10 {stroke:#7482A7;stroke-width:0.0428137;stroke-linecap:round;stroke-linejoin:round}
    .str8 {stroke:#69789F;stroke-width:0.0308313;stroke-linecap:round;stroke-linejoin:round}
    .str7 {stroke:#697BA9;stroke-width:0.0557386;stroke-linecap:round;stroke-linejoin:round}
    .str3 {stroke:#7386A7;stroke-width:0.0557386;stroke-linecap:round;stroke-linejoin:round}
    .str11 {stroke:#7482A7;stroke-width:0.0557386;stroke-linecap:round;stroke-linejoin:round}
    .str5 {stroke:#657AA9;stroke-width:0.0795689;stroke-linecap:round;stroke-linejoin:round}
    .str6 {stroke:#697BA9;stroke-width:0.0798382;stroke-linecap:round;stroke-linejoin:round}
    .str12 {stroke:#7482A7;stroke-width:0.0848196;stroke-linecap:round;stroke-linejoin:round}
    .str1 {stroke:#697BA9;stroke-width:0.133557;stroke-linecap:round;stroke-linejoin:round}
    .fil6 {fill:none}
    .fil23 {fill:#5F75A6}
    .fil22 {fill:#61DB92}
    .fil19 {fill:#64E394}
    .fil8 {fill:#677AA5}
    .fil21 {fill:#697BA1}
    .fil10 {fill:#697BA9}
    .fil12 {fill:#9BF6B9}
    .fil4 {fill:#9DF8BB}
    .fil3 {fill:#ACE0F6}
    .fil9 {fill:#BBDFF9}
    .fil7 {fill:#CFD0D4}
    .fil17 {fill:#D0D1D3}
    .fil14 {fill:#E2E4E3}
    .fil11 {fill:#E3E3E3}
    .fil1 {fill:#E4E4E4}
    .fil16 {fill:#E6E6E6}
    .fil18 {fill:#E7E7E7}
    .fil13 {fill:#E8E6E9}
    .fil15 {fill:#E8EAE9}
    .fil0 {fill:#F9F9F9}
    .fil20 {fill:#FAFEFD}
    .fil2 {fill:white}
    .fil5 {fill:#6B7DAD;fill-rule:nonzero}
   ]]>
  </style>
     <clipPath id="id0">
      <path d="M2.94715 6.83188c0.162638,0.0669133 0.446717,0.347357 0.97583,0.405384 0.529248,0.0577581 0.550924,-0.521843 0.550924,-0.521843 0,0 0.493031,0.431503 1.02228,1.63486 0.529248,1.20336 0.757722,2.38666 0.757722,2.38666 0,0 0.177583,0.779533 0.108381,2.60706 -0.0690674,1.82712 -0.0799728,2.37131 -0.475932,2.17138 -0.396498,-0.199797 -0.438235,-1.81702 -1.0931,-2.75098 -1.24887,-1.78027 -1.94924,1.8072 -2.44806,2.3767 -0.537864,0.613394 -0.608278,-0.0675864 -0.477413,-1.16378 0.13073,-1.09646 0.371591,-2.92332 0.371591,-2.92332 0,0 -0.0601815,-2.24812 0.222551,-2.92978l0.485222 -1.29235z"/>
     </clipPath>
      <clipPath id="id1">
       <path d="M2.23722 10.9481c0.50259,0.0389093 1.81474,0.128172 2.594,0.0702791 0.604508,-0.0448332 1.05701,-0.153348 1.42214,-0.284348l0.000538537 0.00296196c0,0 0.177583,0.779533 0.108381,2.60706 -0.0690674,1.82712 -0.0799728,2.37131 -0.475932,2.17138 -0.396498,-0.199797 -0.438235,-1.81702 -1.0931,-2.75098 -1.24887,-1.78027 -1.94924,1.8072 -2.44806,2.3767 -0.537864,0.613394 -0.608278,-0.0675864 -0.477413,-1.16378 0.13073,-1.09646 0.371591,-2.92332 0.371591,-2.92332l-0.00215415 -0.105957z"/>
      </clipPath>
      <clipPath id="id2">
       <path d="M2.94715 6.83188c0.162638,0.0669133 0.446717,0.347357 0.97583,0.405384 0.529248,0.0577581 0.550924,-0.521843 0.550924,-0.521843 0,0 0.493031,0.431503 1.02228,1.63486 0.529248,1.20336 0.757722,2.38666 0.757722,2.38666 0,0 0.177583,0.779533 0.108381,2.60706 -0.0690674,1.82712 -0.0799728,2.37131 -0.475932,2.17138 -0.396498,-0.199797 -0.438235,-1.81702 -1.0931,-2.75098 -1.24887,-1.78027 -1.94924,1.8072 -2.44806,2.3767 -0.537864,0.613394 -0.608278,-0.0675864 -0.477413,-1.16378 0.13073,-1.09646 0.371591,-2.92332 0.371591,-2.92332 0,0 -0.0601815,-2.24812 0.222551,-2.92978l0.485222 -1.29235z"/>
      </clipPath>
     <clipPath id="id3">
      <path d="M14.1196 6.76861c0,0 -0.179737,-0.176775 -0.145001,-1.20323 0.0350049,-1.02659 0.244092,-1.44745 0.557117,-1.73746 0.313429,-0.289868 0.829482,-0.0463142 1.06725,0.643687 0.237764,0.69027 0.168428,1.50198 0.122113,1.82106 -0.0463142,0.318949 -0.110266,0.347895 -0.110266,0.347895 0,0 0.231975,0.185526 0.382631,0.504744 0.15106,0.318949 0.485491,0.390036 0.485491,0.390036 0,0 -0.0156176,0.341029 -0.392728,0.552943l-1.9666 -1.31969z"/>
     </clipPath>
     <clipPath id="id4">
      <path d="M16.3359 7.90263c0,0 0.203029,0.376572 0.382765,1.13039 0.179737,0.754087 0.24315,1.6319 0.24315,1.6319l-0.113093 0.0407942c0,0 0.0234264,0.681384 -0.846715,2.76875 -0.869872,2.08764 -0.924669,2.05183 -1.04947,2.13032 -0.124671,0.0783572 -0.199932,-0.0188488 -0.207202,-0.220396 -0.00740489,-0.201682 0.0158869,-2.94486 0.0158869,-2.94486 0,0 0.0119825,-0.0725679 -0.0329854,-0.0740489 -0.0451025,-0.00148098 -0.0306966,0.0546615 -0.0192527,0.169639 0.0117132,0.115247 0.0118478,3.00935 -0.0518342,3.07626 -0.063682,0.066644 -0.145136,0.0405249 -0.246515,-0.203163 -0.101649,-0.243553 -0.338875,-0.733488 -0.524401,-1.07559 -0.185526,-0.34224 -0.956577,-2.15765 -1.05513,-2.68528 -0.0985523,-0.527632 -0.0403903,-1.65937 0.365532,-3.07437 0.405922,-1.41501 0.823827,-1.81541 0.840926,-1.75994 0.197105,0.626857 0.97556,0.342914 1.39764,0.124671l0.900704 0.964924z"/>
     </clipPath>
     <clipPath id="id5">
      <path d="M10.634 9.03464l-1.45459 3.13483c-0.0605854,0.13073 0.00673172,0.261729 0.119286,0.351934l1.99676 1.6008c0.112689,0.090205 0.292695,0.0123864 0.351934,-0.11969l1.64335 -3.65667c0.0592391,-0.131807 -0.00592391,-0.26321 -0.11969,-0.351799l-1.61077 -1.25573 -0.926284 0.29633z"/>
     </clipPath>
 </defs>
 <g id="Layer_x0020_1">
  <metadata id="CorelCorpID_0Corel-Layer"/>
  <g id="_480136400">
   <path id="_474282384" class="fil0" d="M1.85836 2.5734c0,0 4.34842,-2.79487 7.60967,-2.55913 3.26125,0.23561 6.88022,1.74957 8.00576,3.65465 1.12554,1.90521 1.2346,2.87754 1.56674,5.90816 0.332143,3.03062 -0.25769,6.94188 -2.52251,7.81741 -2.26482,0.875527 -6.74895,0.51161 -11.519,0.365128 -4.77009,-0.146348 -4.34694,-1.72022 -4.76969,-3.90897 -0.422752,-2.18888 -0.454256,-10.2675 1.62908,-11.2772z"/>
   <ellipse id="_480118808" class="fil1" transform="matrix(1.1994 0.0281642 -0.0281642 1.1994 4.06784 15.3683)" rx="2.32379" ry="0.367282"/>
   <path id="_480127952" class="fil2" d="M3.83425 4.08534c0,0 0.394209,0.336586 0.521843,1.13685 0.127633,0.800266 0.116593,1.40343 0.116593,1.40343 0,0 -0.0312352,0.370648 -0.211107,0.486703 -0.179871,0.116055 -0.406192,0.107169 -0.577177,0.0550654 -0.170986,-0.0521035 -0.77132,-0.371187 -0.77132,-0.371187 0,0 0.00592391,-0.139077 -0.0724333,-0.226051 -0.0784918,-0.0869738 -0.254997,-0.701445 -0.278155,-1.14816 -0.0231571,-0.446582 0.0701445,-0.957519 0.151329,-1.07923 0.0811845,-0.121709 0.0522381,-0.347895 0.452371,-0.440658 0.400133,-0.0927631 0.668056,0.183237 0.668056,0.183237z"/>
   <g>
    <path id="_480116768" class="fil3" d="M4.04078 3.76101c0.177313,0.532344 0.441197,0.434734 0.214742,1.06428l-0.0608547 -0.127633 -0.107304 0.17691c0,0 -0.0521035,-0.153752 -0.0927631,-0.101514 -0.0407942,0.0522381 -0.0553347,0.162369 -0.0900704,0.0985523 -0.034601,-0.0638167 -0.19697,-0.133423 -0.2173,-0.237764 -0.0204644,-0.104342 0.283944,-0.521977 0.35355,-0.872834z"/>
    <ellipse id="_474288000" class="fil1" transform="matrix(1.1994 0.0281642 -0.0281642 1.1994 4.03295 15.4032)" rx="2.32379" ry="0.367282"/>
    <g>
     <g>
      <path id="_480124832" class="fil2 str0" d="M9.93332 2.95051c0,0 0.233321,0.363782 0.659708,0.809825 0.426387,0.445909 0.47849,0.553616 0.47849,0.553616 0,0 -0.886836,0.697675 -1.5386,1.42147 -0.65163,0.723929 -1.07977,1.1421 -1.07977,1.1421 0,0 -0.569503,-0.634801 -0.959808,-1.02012 -0.39017,-0.385323 -0.440793,-0.403095 -0.440793,-0.403095 0,0 1.13456,-0.928842 1.65169,-1.39454 0.516996,-0.4657 1.22908,-1.10925 1.22908,-1.10925z"/>
      <path id="_480120488" class="fil4" d="M9.90397 3.15031c0,0 0.255805,0.384112 0.583774,0.718543 0.327835,0.334432 0.381823,0.440793 0.381823,0.440793 0,0 -0.771724,0.643687 -1.32938,1.22571 -0.557655,0.582024 -1.08677,1.1417 -1.08677,1.1417 0,0 -0.688924,-0.764858 -0.930862,-0.990101 -0.242073,-0.225109 -0.242073,-0.225109 -0.242073,-0.225109 0.905012,-0.735507 1.76075,-1.52743 2.62348,-2.31154z"/>
      <path id="_253729056" class="fil2 str0" d="M9.87947 3.33274c0,0 0.186603,0.272231 0.47122,0.589833 0.284617,0.317602 0.338605,0.382361 0.338605,0.382361 0,0 -0.799863,0.71437 -1.27943,1.18599 -0.473374,0.465565 -0.946614,1.00612 -0.954961,0.987677 -0.0313698,-0.0685289 -0.879162,-0.975695 -0.987004,-1.01353 0,0 0.968963,-0.815749 1.32601,-1.13739 0.357185,-0.321641 1.08556,-0.994948 1.08556,-0.994948z"/>
      <circle id="_480134768" class="fil4 str0" transform="matrix(0.388109 -0.266814 0.247168 0.360124 9.82275 4.25548)" r="0.447524"/>
      <circle id="_480135176" class="fil4 str0" transform="matrix(0.388109 -0.266814 0.247168 0.360124 8.42993 5.53706)" r="0.447524"/>
      <circle id="_480140120" class="fil4 str0" transform="matrix(0.373238 -0.256591 0.258379 0.376459 9.12654 4.88975)" r="0.973002"/>
      <path id="_480131408" class="fil5" d="M9.10613 5.04394l0.0231571 -0.0508918c0.0133288,0.00888587 0.0271961,0.0130595 0.0407942,0.012521 0.0137327,-0.000807806 0.0278693,-0.00605854 0.0422752,-0.0161561l-0.081723 -0.0934362c-0.037563,0.0127903 -0.0687981,0.018041 -0.0933016,0.0153483 -0.0246381,-0.00282732 -0.0449679,-0.0133288 -0.061124,-0.0317737 -0.0189834,-0.0216761 -0.0274654,-0.0459103 -0.0257152,-0.072164 0.00161561,-0.0263883 0.0135981,-0.0519688 0.0355435,-0.0767416l-0.0200605 -0.0228878 0.0212722 -0.0187142 0.0204644 0.0232917c0.0207337,-0.0152137 0.0409288,-0.0243688 0.0601815,-0.0273308 0.0193873,-0.00296196 0.0378322,0.000269269 0.0553347,0.00955904l-0.0208683 0.0515649c-0.0109054,-0.00323122 -0.0211376,-0.00417366 -0.0306966,-0.00309659 -0.00955904,0.00094244 -0.0189834,0.0043083 -0.0285425,0.00996294l0.0720294 0.0822616c0.0467181,-0.0134634 0.0813191,-0.0187142 0.103938,-0.0158869 0.0224839,0.00296196 0.0421405,0.0137327 0.0587006,0.0327161 0.0215415,0.0246381 0.0316391,0.0510264 0.0304274,0.0788957 -0.00121171,0.0280039 -0.0137327,0.0552001 -0.037563,0.0821269l0.0302927 0.0347357 -0.0212722 0.0187142 -0.0296196 -0.0339279c-0.0254459,0.019522 -0.0502186,0.0301581 -0.0743181,0.0321776 -0.0240995,0.00175025 -0.0473913,-0.0051161 -0.0696059,-0.0208683zm-0.0830694 -0.270884c-0.00727025,0.0115786 -0.0106361,0.02208 -0.0103668,0.0312352 0.000134634,0.0094244 0.00417366,0.0184449 0.0118478,0.0271961 0.00740489,0.0086166 0.0160215,0.0138673 0.0259844,0.0162908 0.00996294,0.00228878 0.02208,0.00188488 0.0366205,-0.00134634l-0.0640859 -0.0733757zm0.209491 0.196431c0.0086166,-0.012521 0.0127903,-0.0247727 0.0122517,-0.0368898 -0.000269269,-0.0122517 -0.00498147,-0.023561 -0.0141366,-0.0339279 -0.00794343,-0.0090205 -0.0175025,-0.0145405 -0.0286771,-0.01656 -0.0111746,-0.00188488 -0.0253113,-0.000538537 -0.0424098,0.00403903l0.0729718 0.0833386z"/>
     </g>
     <g>
      <path id="_480112328" class="fil2 str0" d="M10.3679 3.26596c0,0 0.148906,0.397171 0.465969,0.912955 0.317198,0.515784 0.344933,0.629819 0.344933,0.629819 0,0 -0.994678,0.486568 -1.76923,1.04665 -0.774417,0.560213 -1.27135,0.873238 -1.27135,0.873238 0,0 -0.415616,-0.726487 -0.7106,-1.1767 -0.294984,-0.450083 -0.339817,-0.477548 -0.339817,-0.477548 0,0 1.27997,-0.657285 1.87209,-0.997506 0.592122,-0.340356 1.40801,-0.810903 1.40801,-0.810903z"/>
      <path id="_480136328" class="fil4" d="M10.2984 3.45162c0,0 0.166273,0.421271 0.411981,0.809691 0.245708,0.388555 0.275596,0.501647 0.275596,0.501647 0,0 -0.873238,0.458565 -1.52823,0.901915 -0.654996,0.443485 -1.27808,0.871353 -1.27808,0.871353 0,0 -0.503128,-0.875796 -0.688924,-1.1417 -0.185795,-0.266037 -0.185795,-0.266037 -0.185795,-0.266037 1.01986,-0.519015 2.00417,-1.10239 2.99346,-1.67687z"/>
      <path id="_480131048" class="fil2 str0" d="M10.2375 3.62153c0,0 0.122787,0.299696 0.330393,0.663074 0.207606,0.363378 0.246112,0.436619 0.246112,0.436619 0,0 -0.914706,0.520631 -1.47196,0.874181 -0.55025,0.349107 -1.11558,0.770243 -1.11989,0.750856 -0.0158869,-0.072164 -0.64234,-1.11746 -0.738065,-1.1759 0,0 1.09781,-0.582967 1.50669,-0.817904 0.409019,-0.235072 1.24671,-0.73093 1.24671,-0.73093z"/>
      <circle id="_480135320" class="fil4 str0" transform="matrix(0.427369 -0.175988 0.162907 0.396469 9.99278 4.49519)" r="0.447524"/>
      <circle id="_480140024" class="fil4 str0" transform="matrix(0.427369 -0.175988 0.162907 0.396469 8.39227 5.43767)" r="0.447524"/>
      <circle id="_480131624" class="fil4 str0" transform="matrix(0.410994 -0.169245 0.170296 0.414453 9.19406 4.96022)" r="0.973002"/>
      <path id="_464477912" class="fil5" d="M9.14261 5.10385l0.0327161 -0.0437562c0.01104,0.01104 0.0234264,0.0179064 0.0367552,0.0201951 0.0131942,0.00215415 0.0278693,0 0.0437562,-0.00673172l-0.0591045 -0.106496c-0.0387747,0.0047122 -0.0696059,0.00309659 -0.0926284,-0.00457757 -0.0230225,-0.00767416 -0.0403903,-0.0219454 -0.0521035,-0.043083 -0.0137327,-0.0246381 -0.0169639,-0.0495454 -0.00982831,-0.0744528 0.00700098,-0.0249074 0.0236956,-0.0469874 0.0499493,-0.0663747l-0.0145405 -0.0261191 0.0242342 -0.0134634 0.0148098 0.026523c0.0230225,-0.0102322 0.0442947,-0.0148098 0.0634128,-0.0137327 0.0191181,0.00107707 0.0362166,0.00807806 0.0510264,0.0205991l-0.030562 0.0451025c-0.00982831,-0.0051161 -0.019522,-0.00834733 -0.0288117,-0.00928977 -0.00928977,-0.00094244 -0.0192527,0.000269269 -0.0293503,0.00376976l0.0519688 0.0935709c0.0476606,-0.00323122 0.0818577,-0.00107707 0.102995,0.00632781 0.0211376,0.00740489 0.0374283,0.0218108 0.0494108,0.0433523 0.0157522,0.0282732 0.0201951,0.055604 0.0131942,0.0821269 -0.00700098,0.026523 -0.0246381,0.050084 -0.0530459,0.0709523l0.02208 0.0395825 -0.0243688 0.0135981 -0.0214069 -0.0387747c-0.0284078,0.0135981 -0.0543923,0.0187142 -0.0780879,0.0156176 -0.0234264,-0.00323122 -0.0442947,-0.0146751 -0.0624703,-0.0344664zm-0.0236956 -0.276943c-0.00928977,0.00969367 -0.0149444,0.0191181 -0.01656,0.0280039 -0.00175025,0.0090205 0.000269269,0.0185795 0.00578928,0.0285425 0.00538537,0.00969367 0.012521,0.01656 0.0216761,0.0208683 0.0090205,0.00444293 0.0208683,0.00632781 0.0354088,0.00605854l-0.0463142 -0.0834733zm0.160349 0.231706c0.0109054,-0.0102322 0.0172332,-0.0212722 0.019522,-0.0329854 0.00215415,-0.0117132 -0.000134634,-0.023561 -0.00673172,-0.0354088 -0.00565464,-0.0102322 -0.0137327,-0.0176371 -0.0240995,-0.0216761 -0.0103668,-0.00417366 -0.0242342,-0.00592391 -0.0413327,-0.00498147l0.052642 0.0950518z"/>
     </g>
    </g>
    <path id="_480114224" class="fil3" d="M2.16748 5.72115c0,0 0.188623,-0.313159 0.316121,-0.333489 0.127499,-0.0203298 0.066644,0.226186 0.110131,0.260921 0.0434869,0.0347357 0.0434869,-0.527632 0.17112,-0.530594 0.127633,-0.00296196 0.113093,0.130461 0.113093,0.130461 0,0 0.00565464,-0.211511 0.260921,-0.336317 0.255267,-0.124806 0.664151,-0.704407 0.725006,-0.910397 0.0608547,-0.205991 0.148098,-0.348434 -0.269673,-0.493435 -0.417636,-0.145001 -0.840926,0.063682 -1.13672,0.487107 -0.295792,0.423425 -0.545134,0.655535 -0.62053,0.655535 -0.0753952,0 0.124537,0.0838772 0.208683,-0.0262537 0.0841465,-0.109996 -0.0899357,0.310197 -0.194277,0.345202 -0.104342,0.0348703 0.118882,0.116189 0.272635,-0.0521035 0.153752,-0.168428 -0.110535,0.545 -0.180141,0.608816 -0.0696059,0.0638167 0.208818,-0.0753952 0.208818,-0.0753952 0,0 -0.0261191,0.350857 0.0148098,0.269942z"/>
    <g>
     <path id="_480134480" class="fil6 str1" d="M2.94715 6.83188c0.162638,0.0669133 0.446717,0.347357 0.97583,0.405384 0.529248,0.0577581 0.550924,-0.521843 0.550924,-0.521843 0,0 0.493031,0.431503 1.02228,1.63486 0.529248,1.20336 0.757722,2.38666 0.757722,2.38666 0,0 0.177583,0.779533 0.108381,2.60706 -0.0690674,1.82712 -0.0799728,2.37131 -0.475932,2.17138 -0.396498,-0.199797 -0.438235,-1.81702 -1.0931,-2.75098 -1.24887,-1.78027 -1.94924,1.8072 -2.44806,2.3767 -0.537864,0.613394 -0.608278,-0.0675864 -0.477413,-1.16378 0.13073,-1.09646 0.371591,-2.92332 0.371591,-2.92332 0,0 -0.0601815,-2.24812 0.222551,-2.92978"/>
    </g>
    <g style="clip-path:url(#id0)">
     <g>
      <rect id="_487067248" class="fil2" x="-0.369789" y="3.46747" width="6.84301" height="8.02607"/>
      <path id="_487067392" class="fil1" d="M2.03284 10.9315c0,0 1.81958,0.159542 2.79837,0.0868391 0.978388,-0.0725679 1.55826,-0.311813 2.01507,-0.543788 0.456814,-0.23184 0.348164,5.03788 0.348164,5.03788l-2.4937 1.01487 -5.19029 -1.04395 1.65277 -5.65424 0.869603 1.10239z"/>
     </g>
     <g style="clip-path:url(#id1)">
      <g>
       <path id="_4541875201" class="fil7" d="M6.38005 10.7526c0,0 -0.123056,0.201144 -0.405922,0.318949 -0.282732,0.117805 -1.71282,0.192258 -2.42867,0.156041 -0.715716,-0.0363513 -1.15597,-0.0452371 -1.15597,-0.0452371 0,0 -0.108381,1.02914 -0.155637,1.36613 -0.047122,0.33699 -0.347895,2.48225 -0.33322,2.83755 0.0145405,0.3553 -0.848062,-2.54472 -0.848062,-2.54472l1.17455 -2.62429 3.24751 -0.0144059 0.905416 0.549981z"/>
      </g>
     </g>
     <g style="clip-path:url(#id2)">
      <path class="fil6 str2" d="M2.03284 10.9315c0,0 1.81958,0.159542 2.79837,0.0868391 0.978388,-0.0725679 1.55826,-0.311813 2.01507,-0.543788 0.456814,-0.23184 0.348164,5.03788 0.348164,5.03788l-2.4937 1.01487 -5.19029 -1.04395 1.65277 -5.65424 0.869603 1.10239z"/>
      <path id="_454187496" class="fil8" d="M2.84092 12.3116c0.244496,-0.163042 0.260248,-0.290137 0.282732,-0.561964l-0.0744528 -0.00350049c0,0 0.058162,0.233725 -0.208279,0.565464z"/>
      <g>
       <path id="_475287544" class="fil6 str3" d="M2.33025 11.1775c0,0 1.6455,0.101784 2.69659,0.0292156 1.05096,-0.0727025 1.20982,-0.302793 1.20982,-0.302793"/>
      </g>
      <path id="_475287736" class="fil6 str4" d="M4.75771 6.75972c0.0460449,0.220262 0.168831,1.13645 -0.293637,0.768627 -0.159542,-0.12696 -0.257421,-0.199393 -0.279097,-0.0689328 -0.0218108,0.130461 -0.054123,0.347895 -0.181083,0.340625 -0.12696,-0.00713562 -0.989562,-0.25392 -1.33759,-0.645302"/>
     </g>
    </g>
    <g>
     <path class="fil6 str5" d="M4.44212 7.83303c0,0 0.343721,1.25398 0.315852,1.7003 -0.0278693,0.446044 -0.448332,0.777379 -0.448332,0.777379 0,0 -0.117132,-0.278424 -0.207606,-0.366879 -0.0904743,-0.0884548 -0.111208,-0.111208 0.0282732,-0.371052 0.139616,-0.260114 0.148098,-1.36088 0.165466,-1.70716 0.0176371,-0.34601 0.159946,-0.0429484 0.159946,-0.0429484l-0.0135981 0.0103668z"/>
     <path id="1" class="fil9" d="M4.44212 7.83303c0,0 0.343721,1.25398 0.315852,1.7003 -0.0278693,0.446044 -0.448332,0.777379 -0.448332,0.777379 0,0 -0.117132,-0.278424 -0.207606,-0.366879 -0.0904743,-0.0884548 -0.111208,-0.111208 0.0282732,-0.371052 0.139616,-0.260114 0.148098,-1.36088 0.165466,-1.70716 0.0176371,-0.34601 0.159946,-0.0429484 0.159946,-0.0429484l-0.0135981 0.0103668z"/>
    </g>
    <g>
     <path class="fil6 str5" d="M4.32311 7.63471c0,0 -0.15658,0.18943 -0.0903396,0.276135 0.0663747,0.0864352 0.327296,-0.023561 0.329316,-0.0836079 0.00228878,-0.0601815 -0.140424,-0.197912 -0.238976,-0.192527z"/>
     <path id="1" class="fil9" d="M4.32311 7.63471c0,0 -0.15658,0.18943 -0.0903396,0.276135 0.0663747,0.0864352 0.327296,-0.023561 0.329316,-0.0836079 0.00228878,-0.0601815 -0.140424,-0.197912 -0.238976,-0.192527z"/>
    </g>
    <g>
     <path class="fil6 str6" d="M2.74075 8.29644c0,0 -0.172063,-0.101649 -0.335105,-0.261056 -0.163177,-0.159811 -0.11969,-0.184988 -0.11969,-0.184988 0,0 0.158734,-0.155637 0.288925,-0.235072 0.102861,-0.0623357 0.17691,-0.15833 0.233994,-0.349107 0.0119825,-0.0389093 -0.0162908,-0.140154 0.0135981,-0.237495 0.0343318,-0.11242 0.126152,-0.224166 0.103534,-0.264826 -0.0976099,-0.173409 -0.412385,-0.902858 -0.354358,-1.70043 0.0580274,-0.797304 0.218242,-1.24187 0.888721,-1.19098 0.670614,0.0504879 0.986466,1.51154 0.993601,1.95341 0.00713562,0.442139 0.0127903,0.85789 0.0127903,0.85789"/>
    </g>
    <path class="fil10" d="M2.36162 8.50041c0,0 0.290676,0.996833 1.78687,1.10831 1.49619,0.111612 2.04819,-0.440658 2.31652,-0.516323 0.268192,-0.0757991 0.187411,-0.0319083 0.280847,-0.0343318 0.0934362,-0.00255805 0.0363513,-0.11592 -0.24288,-0.0327161 -0.279097,0.0833386 -0.648399,0.388959 -1.18128,0.476067 -0.532883,0.087243 -1.30366,0.139077 -1.93187,-0.126691 -0.639378,-0.27075 -0.938132,-0.578524 -0.928977,-1.2078 0,-0.00578928 0.00646245,-0.0243688 0.00578928,-0.0249074l-0.00969367 -0.00619318c-0.045641,0.119959 -0.0876469,0.229417 -0.0953211,0.36459z"/>
    <g>
     <path class="fil6 str7" d="M5.21196 7.66594c0,0 0.750048,0.0114439 1.649,-0.678961 0.898819,-0.690001 0.725275,-0.971656 0.934093,-1.0006 0.208952,-0.0289464 0.223628,0.00565464 0.223628,0.00565464"/>
    </g>
    <g>
     <path class="fil6 str8" d="M3.54452 6.39271c0,0 0.523728,0.238033 0.604912,-0.0868391"/>
    </g>
   </g>
   <g>
    <path class="fil2 str0" d="M9.96819 2.91564c0,0 0.233456,0.363782 0.659843,0.809691 0.426387,0.446044 0.478356,0.553751 0.478356,0.553751 0,0 -0.886836,0.697675 -1.5386,1.42147 -0.65163,0.723794 -1.07977,1.1421 -1.07977,1.1421 0,0 -0.569503,-0.634801 -0.959808,-1.02012 -0.39017,-0.385323 -0.440658,-0.403095 -0.440658,-0.403095 0,0 1.13443,-0.928842 1.65156,-1.39454 0.516996,-0.465835 1.22908,-1.10925 1.22908,-1.10925z"/>
    <path class="fil4" d="M9.93884 3.11544c0,0 0.255805,0.384112 0.583774,0.718543 0.327835,0.334432 0.381958,0.440793 0.381958,0.440793 0,0 -0.771859,0.643687 -1.32951,1.22571 -0.557655,0.582024 -1.08677,1.1417 -1.08677,1.1417 0,0 -0.688789,-0.764858 -0.930862,-0.990101 -0.242073,-0.225243 -0.242073,-0.225243 -0.242073,-0.225243 0.905012,-0.735373 1.76075,-1.52729 2.62348,-2.3114z"/>
    <path class="fil2 str0" d="M9.91434 3.29787c0,0 0.186603,0.272231 0.47122,0.589833 0.284617,0.317602 0.338605,0.382361 0.338605,0.382361 0,0 -0.799863,0.71437 -1.2793,1.18586 -0.473509,0.4657 -0.946749,1.00626 -0.955096,0.987812 -0.0312352,-0.0685289 -0.879162,-0.975695 -0.987004,-1.01353 0,0 0.968963,-0.815749 1.32601,-1.13739 0.357185,-0.321641 1.08556,-0.994948 1.08556,-0.994948z"/>
    <circle class="fil4 str0" transform="matrix(0.388109 -0.266814 0.247168 0.360124 9.85764 4.22058)" r="0.447524"/>
    <circle class="fil4 str0" transform="matrix(0.388109 -0.266814 0.247168 0.360124 8.46483 5.50217)" r="0.447524"/>
    <circle class="fil4 str0" transform="matrix(0.373238 -0.256591 0.258379 0.376459 9.16143 4.85486)" r="0.973002"/>
    <path class="fil5" d="M9.141 5.00907l0.0231571 -0.0508918c0.0133288,0.00888587 0.0271961,0.0130595 0.0407942,0.012521 0.0137327,-0.000807806 0.0280039,-0.00605854 0.0422752,-0.0161561l-0.081723 -0.0934362c-0.037563,0.0127903 -0.0687981,0.018041 -0.0933016,0.0153483 -0.0245034,-0.00282732 -0.0449679,-0.0133288 -0.061124,-0.0317737 -0.0188488,-0.0216761 -0.0274654,-0.0459103 -0.0257152,-0.072164 0.00175025,-0.0263883 0.0135981,-0.0519688 0.0355435,-0.0767416l-0.0200605 -0.0228878 0.0212722 -0.0187142 0.0204644 0.0232917c0.0207337,-0.0152137 0.0409288,-0.0243688 0.0601815,-0.0273308 0.0193873,-0.00296196 0.0378322,0.000269269 0.0553347,0.00955904l-0.0208683 0.0515649c-0.0107707,-0.00323122 -0.0211376,-0.00417366 -0.0306966,-0.00323122 -0.00955904,0.00107707 -0.0189834,0.00444293 -0.0284078,0.0100976l0.0718947 0.0822616c0.0467181,-0.0134634 0.0814538,-0.0187142 0.103938,-0.0158869 0.0226186,0.00296196 0.0421405,0.0137327 0.0587006,0.0325815 0.0215415,0.0247727 0.0317737,0.051161 0.0304274,0.0790303 -0.00107707,0.0280039 -0.0137327,0.0552001 -0.037563,0.0821269l0.0302927 0.0347357 -0.0212722 0.0187142 -0.0296196 -0.0339279c-0.0254459,0.0193873 -0.0502186,0.0301581 -0.0743181,0.032043 -0.0240995,0.00188488 -0.0473913,-0.00498147 -0.0696059,-0.0207337zm-0.0830694 -0.271019c-0.00727025,0.0115786 -0.0106361,0.0222147 -0.0103668,0.0313698 0.000134634,0.0094244 0.00417366,0.0184449 0.0118478,0.0271961 0.00753952,0.00848196 0.0160215,0.0138673 0.0261191,0.0161561 0.00982831,0.00242342 0.02208,0.00201951 0.0366205,-0.00134634l-0.0642206 -0.0733757zm0.209491 0.196566c0.0086166,-0.012521 0.0127903,-0.0249074 0.0123864,-0.0370244 -0.000403903,-0.0121171 -0.0051161,-0.0234264 -0.0142712,-0.0339279 -0.00794343,-0.0090205 -0.0175025,-0.0145405 -0.0285425,-0.0164254 -0.0113093,-0.00188488 -0.0254459,-0.000538537 -0.0425444,0.00403903l0.0729718 0.0833386z"/>
   </g>
   <path class="fil2 str0" d="M10.4028 3.23109c0,0 0.148906,0.397171 0.466104,0.912955 0.317064,0.515784 0.344799,0.629819 0.344799,0.629819 0,0 -0.994678,0.486568 -1.7691,1.04665 -0.774551,0.560079 -1.27149,0.873238 -1.27149,0.873238 0,0 -0.415616,-0.726487 -0.7106,-1.1767 -0.294984,-0.450083 -0.339682,-0.477548 -0.339682,-0.477548 0,0 1.27997,-0.657419 1.87196,-0.99764 0.592122,-0.340221 1.40801,-0.810768 1.40801,-0.810768z"/>
   <path class="fil4" d="M10.3335 3.41675c0,0 0.166139,0.421136 0.411846,0.809691 0.245708,0.38842 0.275596,0.501647 0.275596,0.501647 0,0 -0.873238,0.458565 -1.52823,0.901915 -0.654996,0.443485 -1.27795,0.871353 -1.27795,0.871353 0,0 -0.503263,-0.875796 -0.689058,-1.1417 -0.185795,-0.266037 -0.185795,-0.266037 -0.185795,-0.266037 1.01999,-0.519015 2.00417,-1.10239 2.99359,-1.67687z"/>
   <path class="fil2 str0" d="M10.2723 3.58666c0,0 0.122921,0.299696 0.330393,0.663074 0.207606,0.363378 0.246112,0.436619 0.246112,0.436619 0,0 -0.914706,0.520631 -1.47196,0.874181 -0.55025,0.349107 -1.11558,0.770243 -1.11989,0.750856 -0.0158869,-0.0722986 -0.64234,-1.11746 -0.738065,-1.1759 0,0 1.09781,-0.582967 1.50683,-0.818038 0.408884,-0.234937 1.24658,-0.730795 1.24658,-0.730795z"/>
   <circle class="fil4 str0" transform="matrix(0.427369 -0.175988 0.162907 0.396469 10.4301 4.58025)" r="0.447524"/>
   <circle class="fil4 str0" transform="matrix(0.427369 -0.175988 0.162907 0.396469 7.95406 5.21631)" r="0.447524"/>
   <circle class="fil4 str0" transform="matrix(0.410994 -0.169245 0.170296 0.414453 9.22895 4.92533)" r="0.973002"/>
   <g>
    <path class="fil6 str5" d="M4.35784 7.59984c0,0 -0.15658,0.18943 -0.090205,0.275866 0.0665094,0.0868391 0.327161,-0.0232917 0.32945,-0.0834733 0.00215415,-0.0600469 -0.140424,-0.197912 -0.239245,-0.192392z"/>
    <path id="1" class="fil9" d="M4.35784 7.59984c0,0 -0.15658,0.18943 -0.090205,0.275866 0.0665094,0.0868391 0.327161,-0.0232917 0.32945,-0.0834733 0.00215415,-0.0600469 -0.140424,-0.197912 -0.239245,-0.192392z"/>
   </g>
   <g>
    <path class="fil6 str7" d="M5.2467 7.63121c0,0 0.750182,0.0111746 1.64914,-0.678961 0.898684,-0.690136 0.725275,-0.971925 0.934228,-1.00087 0.208818,-0.0289464 0.223358,0.00592391 0.223358,0.00592391"/>
   </g>
   <ellipse class="fil11" cx="14.913" cy="15.5127" rx="2.19208" ry="0.411798"/>
   <g>
    <path class="fil12" d="M14.0918 3.71456c-0.177313,0.532344 -0.441197,0.4346 -0.214607,1.06428l0.0608547 -0.127633 0.107304 0.17691c0,0 0.0521035,-0.153752 0.0927631,-0.101514 0.0406596,0.0522381 0.0552001,0.162369 0.0899357,0.0985523 0.0347357,-0.0638167 0.197105,-0.133423 0.217434,-0.237764 0.0203298,-0.104342 -0.284078,-0.521977 -0.353684,-0.872834z"/>
    <path class="fil12" d="M16.1995 5.45565c0,0 -0.218512,-0.293234 -0.347357,-0.300908 -0.128845,-0.00780879 -0.0441601,0.231571 -0.0840118,0.27048 -0.0398518,0.0387747 -0.0834733,-0.480241 -0.210703,-0.470682 -0.127364,0.00955904 -0.111343,0.100303 -0.111343,0.100303 -0.0337932,-0.269942 -0.865699,-0.557925 -1.1036,-1.14399 -0.080646,-0.199124 -0.181352,-0.332143 0.219992,-0.517534 0.40148,-0.185257 0.843215,-0.0191181 1.17913,0.373341 0.335913,0.392324 0.606797,0.598719 0.681788,0.591314 0.075126,-0.00740489 -0.115651,0.0958596 -0.210164,-0.00552001 -0.0945133,-0.101245 0.119959,0.299831 0.227128,0.324334 0.107304,0.0245034 -0.1069,0.127364 -0.276404,-0.025042 -0.169505,-0.152406 0.163446,0.531536 0.238976,0.588217 0.0755299,0.0566811 -0.21528,-0.0545269 -0.21528,-0.0545269 0,0 0.0604508,0.346549 0.0118478,0.270211z"/>
    <path class="fil2" d="M14.0724 6.66117c0,0 0.00875123,0.15106 -0.0231571,0.159542 -0.0319083,0.0086166 0.0261191,0.42908 0.0261191,0.42908l1.97172 0.921841 0.287175 -0.247996c0,0 0.0712216,-0.17691 0.0988216,-0.224705 0.0274654,-0.0479298 0.0623357,-0.162638 0.0406596,-0.169774 -0.0218108,-0.00713562 -0.233456,-0.0347357 -0.318949,-0.163715 -0.0856274,-0.129114 -0.296061,-0.497474 -0.407673,-0.593064 -0.111746,-0.0955904 -0.126152,-0.13625 -0.126152,-0.13625 0,0 0.139616,-0.455603 0.138135,-0.561291 -0.00134634,-0.105688 0.0204644,-1.05419 -0.0896665,-1.44853 -0.110131,-0.394344 -0.533421,-0.864083 -0.904608,-0.858294 -0.371187,0.00578928 -0.736719,0.597373 -0.759876,1.25264 -0.0230225,0.655265 -0.0577581,1.13685 -0.00552001,1.36883 0.0522381,0.231975 0.0729718,0.271692 0.0729718,0.271692z"/>
    <g style="clip-path:url(#id3)">
     <g>
      <path class="fil13" d="M15.7914 7.40166c0,0 0.166947,-0.164119 0.195893,-0.252439 0.0289464,-0.0884548 -0.0811845,-0.108785 -0.0811845,-0.108785l-0.177179 0.19872 0.0624703 0.162504z"/>
      <path class="fil6 str9" d="M15.7148 7.23996c0,0 0.10138,-0.0946479 0.206394,-0.217569"/>
      <path class="fil12" d="M16.1995 5.45565c0,0 -0.218512,-0.293234 -0.347357,-0.300908 -0.128845,-0.00780879 -0.0441601,0.231571 -0.0840118,0.27048 -0.0398518,0.0387747 -0.0834733,-0.480241 -0.210703,-0.470682 -0.127364,0.00955904 -0.111343,0.100303 -0.111343,0.100303 -0.0337932,-0.269942 -0.865699,-0.557925 -1.1036,-1.14399 -0.080646,-0.199124 -0.181352,-0.332143 0.219992,-0.517534 0.40148,-0.185257 0.843215,-0.0191181 1.17913,0.373341 0.335913,0.392324 0.606797,0.598719 0.681788,0.591314 0.075126,-0.00740489 -0.115651,0.0958596 -0.210164,-0.00552001 -0.0945133,-0.101245 0.119959,0.299831 0.227128,0.324334 0.107304,0.0245034 -0.1069,0.127364 -0.276404,-0.025042 -0.169505,-0.152406 0.163446,0.531536 0.238976,0.588217 0.0755299,0.0566811 -0.21528,-0.0545269 -0.21528,-0.0545269 0,0 0.0604508,0.346549 0.0118478,0.270211z"/>
      <path class="fil12" d="M14.0918 3.71456c-0.177313,0.532344 -0.441197,0.4346 -0.214607,1.06428l0.0608547 -0.127633 0.107304 0.17691c0,0 0.0521035,-0.153752 0.0927631,-0.101514 0.0406596,0.0522381 0.0552001,0.162369 0.0899357,0.0985523 0.0347357,-0.0638167 0.197105,-0.133423 0.217434,-0.237764 0.0203298,-0.104342 -0.284078,-0.521977 -0.353684,-0.872834z"/>
     </g>
    </g>
    <path class="fil6 str10" d="M14.1196 6.76861c0,0 -0.179737,-0.176775 -0.145001,-1.20323 0.0350049,-1.02659 0.244092,-1.44745 0.557117,-1.73746 0.313429,-0.289868 0.829482,-0.0463142 1.06725,0.643687 0.237764,0.69027 0.168428,1.50198 0.122113,1.82106 -0.0463142,0.318949 -0.110266,0.347895 -0.110266,0.347895 0,0 0.231975,0.185526 0.382631,0.504744 0.15106,0.318949 0.485491,0.390036 0.485491,0.390036 0,0 -0.0156176,0.341029 -0.392728,0.552943"/>
    <g>
     <path class="fil6 str11" d="M13.4586 7.76894c0,0 -1.62679,1.09606 -1.77192,1.06711"/>
    </g>
    <path class="fil14" d="M14.1758 8.55776c0,0 0.0811845,1.14251 0.162369,1.25843 0.0811845,0.11592 0.110131,0.313025 -0.0115786,0.446447 -0.121709,0.133423 -0.197105,0.330527 -0.197105,0.330527 0,0 -0.249343,-0.260921 -0.249343,-0.672633 0,-0.411712 0.295657,-1.36277 0.295657,-1.36277z"/>
    <g style="clip-path:url(#id4)">
     <g>
      <rect class="fil2" x="12.4388" y="3.69104" width="5.38169" height="7.93331"/>
      <path class="fil13" d="M16.0354 7.02508c0,0 -0.0640859,0.388555 -0.719351,0.684346 -0.655265,0.295792 -0.759607,0.255132 -0.823424,0.231975 -0.0638167,-0.0231571 -0.0539884,-0.0853582 -0.0539884,-0.0853582 0,0 0.538403,-0.0712216 0.964655,-0.39017 0.426252,-0.318949 0.510399,-0.423963 0.571388,-0.612452 0.0609893,-0.188488 0.0607201,0.171659 0.0607201,0.171659z"/>
      <path class="fil15" d="M16.3989 8.52639c0,0 0.307909,1.30488 0.313563,2.32554 0.00578928,1.02066 1.20053,0.42329 1.20053,0.42329l-0.503802 -1.92514c0,0 -1.21184,-2.08764 -1.0103,-0.823693z"/>
      <path class="fil16 str9" d="M17.0395 10.631c-1.30743,0.405384 -3.01608,0.62026 -4.37844,0.486972 -1.3625,-0.133288 0.513361,5.43815 0.513361,5.43815l2.57475 -0.0696059 1.90211 -4.10567 -0.611778 -1.74984z"/>
      <path class="fil17" d="M16.8519 10.6989c0,0 -0.840791,0.202894 -0.982965,0.223224 -0.142174,0.0203298 -0.886702,0.164658 -1.42308,0.193739 -0.536383,0.029081 -1.22679,0.0756645 -1.45297,0.0348703 -0.226186,-0.0406596 -0.492896,-0.0203298 -0.492896,-0.0203298l0.145001 0.173948c0,0 1.70245,0.0899357 2.27653,-0.0608547 0.574081,-0.15079 0.701176,-0.0378322 1.64092,-0.290002 0.939613,-0.25217 0.289464,-0.254594 0.289464,-0.254594z"/>
      <path class="fil6 str9" d="M17.0337 10.8165c-1.30743,0.405384 -3.01608,0.62026 -4.37844,0.486972"/>
      <path class="fil6 str9" d="M16.0444 6.77507c0,0 -0.0722986,0.374014 -0.695925,0.719082 -0.623492,0.345068 -0.887375,0.350857 -0.887375,0.350857l-0.00282732 -0.440927c0,0 -0.336451,0.385862 -0.429214,0.348164 -0.0927631,-0.0376976 -0.307236,-0.429618 -0.23184,-0.899357"/>
      <path class="fil6 str9" d="M17.0395 10.631c-1.30743,0.405384 -3.01608,0.62026 -4.37844,0.486972 -1.3625,-0.133288 0.513361,5.43815 0.513361,5.43815l2.57475 -0.0696059 1.90211 -4.10567 -0.611778 -1.74984z"/>
     </g>
    </g>
    <path class="fil6 str10" d="M16.3359 7.90263c0,0 0.203029,0.376572 0.382765,1.13039 0.179737,0.754087 0.24315,1.6319 0.24315,1.6319l-0.113093 0.0407942c0,0 0.0234264,0.681384 -0.846715,2.76875 -0.869872,2.08764 -0.924669,2.05183 -1.04947,2.13032 -0.124671,0.0783572 -0.199932,-0.0188488 -0.207202,-0.220396 -0.00740489,-0.201682 0.0158869,-2.94486 0.0158869,-2.94486 0,0 0.0119825,-0.0725679 -0.0329854,-0.0740489 -0.0451025,-0.00148098 -0.0306966,0.0546615 -0.0192527,0.169639 0.0117132,0.115247 0.0118478,3.00935 -0.0518342,3.07626 -0.063682,0.066644 -0.145136,0.0405249 -0.246515,-0.203163 -0.101649,-0.243553 -0.338875,-0.733488 -0.524401,-1.07559 -0.185526,-0.34224 -0.956577,-2.15765 -1.05513,-2.68528 -0.0985523,-0.527632 -0.0403903,-1.65937 0.365532,-3.07437 0.405922,-1.41501 0.823827,-1.81541 0.840926,-1.75994 0.197105,0.626857 0.97556,0.342914 1.39764,0.124671"/>
    <g>
     <g>
      <path class="fil6 str12" d="M14.1748 8.02367c0,0 -0.562906,1.17266 -0.601008,1.64779 -0.0376976,0.47499 0.355973,0.887509 0.355973,0.887509 0,0 0.165735,-0.276 0.274519,-0.355704 0.108785,-0.0798382 0.134096,-0.100437 0.0261191,-0.39569 -0.108246,-0.295388 -0.021003,-1.35967 0.0129249,-1.72763 0.0335239,-0.368225 -0.0927631,-0.167889 -0.0927631,-0.167889l0.0242342 0.111612z"/>
      <path id="1" class="fil4" d="M14.1748 8.02367c0,0 -0.562906,1.17266 -0.601008,1.64779 -0.0376976,0.47499 0.355973,0.887509 0.355973,0.887509 0,0 0.165735,-0.276 0.274519,-0.355704 0.108785,-0.0798382 0.134096,-0.100437 0.0261191,-0.39569 -0.108246,-0.295388 -0.021003,-1.35967 0.0129249,-1.72763 0.0335239,-0.368225 -0.0927631,-0.167889 -0.0927631,-0.167889l0.0242342 0.111612z"/>
     </g>
     <g>
      <path class="fil6 str12" d="M14.3189 7.73366c0,0 0.136788,0.223493 0.0535845,0.304677 -0.083204,0.0814538 -0.341567,-0.073645 -0.33497,-0.137596 0.00673172,-0.0635474 0.177987,-0.18768 0.281386,-0.167081z"/>
      <path id="1" class="fil4" d="M14.3189 7.73366c0,0 0.136788,0.223493 0.0535845,0.304677 -0.083204,0.0814538 -0.341567,-0.073645 -0.33497,-0.137596 0.00673172,-0.0635474 0.177987,-0.18768 0.281386,-0.167081z"/>
     </g>
    </g>
    <path class="fil2" d="M10.634 9.03464l-1.45459 3.13483c-0.0605854,0.13073 0.00673172,0.261729 0.119286,0.351934l1.99676 1.6008c0.112689,0.090205 0.292695,0.0123864 0.351934,-0.11969l1.64335 -3.65667c0.0592391,-0.131807 -0.00592391,-0.26321 -0.11969,-0.351799l-1.61077 -1.25573 -0.926284 0.29633z"/>
    <g style="clip-path:url(#id5)">
     <g>
      <path id="1" class="fil18" d="M9.1892 12.5354l1.49633 -3.33758c0,0 0.394075,0.301716 0.50434,0.301716 0.110266,0 0.311005,-0.666978 0.322584,-0.661189 0.0115786,0.00578928 1.90009,1.52446 1.90009,1.52446l0.220262 -0.748028 -1.11935 -1.0208 -1.70461 -1.13672 -2.83015 2.52843c0,0 -0.0464488,3.73476 1.2105,2.5497z"/>
      <path class="fil2 str13" d="M11.6036 8.60354c0,0 -0.31464,0.701849 -0.384246,0.777244 -0.0696059,0.0753952 -0.201682,-0.0521035 -0.201682,-0.0521035l-0.446851 -0.371321 1.03278 -0.353819z"/>
      <g>
       <ellipse class="fil19" cx="10.665" cy="12.4076" rx="0.449409" ry="0.603362"/>
       <path class="fil20" d="M10.5898 12.6331c0,0 0.0565464,0.0788957 0.103534,-0.0296196 0.047122,-0.108515 0.203567,-0.396363 0.203567,-0.396363 0.0315044,-0.0697406 -0.037563,-0.129114 -0.076203,-0.0488723 -0.0240995,0.0502186 -0.204375,0.391247 -0.204375,0.391247l-0.131807 -0.179602c-0.00888587,-0.0122517 -0.0429484,-0.00175025 -0.0421405,0.0460449 0.000403903,0.0227532 0.126691,0.188353 0.147425,0.217165z"/>
      </g>
      <rect class="fil21" transform="matrix(1.03062 0.796254 -0.796254 1.03062 10.7899 9.69678)" width="1.68253" height="0.0670479" rx="0.0436215" ry="0.0436215"/>
      <rect class="fil21" transform="matrix(1.03062 0.796254 -0.796254 1.03062 10.6275 10.0506)" width="1.68253" height="0.0670479" rx="0.0436215" ry="0.0436215"/>
      <rect class="fil21" transform="matrix(1.03062 0.796254 -0.796254 1.03062 10.5579 10.4101)" width="1.68253" height="0.0670479" rx="0.0436215" ry="0.0436215"/>
      <rect class="fil21" transform="matrix(1.03062 0.796254 -0.796254 1.03062 10.3955 10.6768)" width="1.68253" height="0.0670479" rx="0.0436215" ry="0.0436215"/>
      <rect class="fil21" transform="matrix(0.545803 0.421687 -0.421687 0.545803 10.2485 10.9676)" width="1.68253" height="0.0670479" rx="0.0231571" ry="0.0231571"/>
      <path class="fil22" d="M11.4034 9.58973l0.747759 0.582159c0.0615279,0.0479298 0.15079,0.0367552 0.198855,-0.0249074l0 0c0.00228878,-0.00296196 0.00175025,-0.00713562 -0.00107707,-0.00928977l-0.746682 -0.581351c-0.0617972,-0.0480645 -0.151733,-0.0367552 -0.199797,0.0249074l-0.000134634 0.000134634c-0.00201951,0.00269269 -0.00161561,0.00632781 0.00107707,0.00834733z"/>
     </g>
    </g>
    <path class="fil6 str13" d="M10.634 9.03464l-1.45459 3.13483c-0.0605854,0.13073 0.00673172,0.261729 0.119286,0.351934l1.99676 1.6008c0.112689,0.090205 0.292695,0.0123864 0.351934,-0.11969l1.64335 -3.65667c0.0592391,-0.131807 -0.00592391,-0.26321 -0.11969,-0.351799l-1.61077 -1.25573 -0.926284 0.29633z"/>
    <g>
     <path class="fil6 str11" d="M10.5073 9.28546c0,0 -0.249208,0.0523728 -0.23763,0.185795 0.0115786,0.133423 0.188353,0.182699 0.188353,0.182699"/>
    </g>
    <path class="fil6 str9" d="M13.0393 10.2077c0,0 -0.0394479,-0.195489 0.157791,-0.176775 0.197374,0.0188488 0.14527,0.188757 0.542576,0.149444 0.397306,-0.0393132 1.18222,-0.153887 1.87209,-0.586063 0.690001,-0.432042 0.817365,-1.08461 0.765262,-1.37165 -0.0521035,-0.28704 -0.0597776,-0.319353 -0.0597776,-0.319353"/>
    <path class="fil23" d="M14.3515 6.25753c0.00282732,0.0115786 0.0810499,0.205856 0.240592,0.194277 0.159542,-0.0115786 0.212992,-0.114439 0.166677,-0.140558 -0.0461796,-0.0261191 -0.150521,0.0406596 -0.218781,-0.00578928 -0.0682596,-0.0464488 -0.201682,-0.134904 -0.188488,-0.0479298z"/>
   </g>
   <path class="fil5" d="M9.2685 4.57811l-0.00780879 0.0733757 -0.0757991 0.0403903c0.0123864,0.00444293 0.0242342,0.01104 0.0352742,0.019522 0.01104,0.00848196 0.0215415,0.0193873 0.0315044,0.0325815l0.0818577 -0.0434869 -0.00780879 0.0733757 -0.0453718 0.0240995c0.00646245,0.019522 0.0094244,0.0387747 0.0086166,0.0582967 -0.000673172,0.019522 -0.00498147,0.0385054 -0.0134634,0.0569503 -0.00834733,0.0181756 -0.0205991,0.0354088 -0.0366205,0.0516996 -0.0161561,0.0164254 -0.0362166,0.0308313 -0.0601815,0.0436215l0.346953 0.118074 -0.0969367 0.0514303 -0.336182 -0.116055 -0.0285425 -0.0538537 0.0534498 -0.0285425c0.0168293,-0.00888587 0.0313698,-0.0187142 0.0441601,-0.0294849 0.012521,-0.0109054 0.0227532,-0.0223493 0.030562,-0.034601 0.00780879,-0.0122517 0.0131942,-0.025042 0.0154829,-0.0379669 0.00269269,-0.0130595 0.00215415,-0.0263883 -0.00134634,-0.040121l-0.200067 0.106361 0.00767416 -0.0732411 0.163311 -0.0869738c-0.0166947,-0.0179064 -0.0374283,-0.0280039 -0.0623357,-0.0306966 -0.0249074,-0.00269269 -0.0531806,0.00444293 -0.0848196,0.0212722l-0.0888587 0.0473913 0.00767416 -0.0733757 0.319622 -0.170043z"/>
  </g>
 </g>
</svg>
