<?xml version="1.0" encoding="UTF-8"?>
<!DOCTYPE svg PUBLIC "-//W3C//DTD SVG 1.1//EN" "http://www.w3.org/Graphics/SVG/1.1/DTD/svg11.dtd">
<!-- Creator: CorelDRAW -->
<svg xmlns="http://www.w3.org/2000/svg" xml:space="preserve" width="202px" height="25px" style="shape-rendering:geometricPrecision; text-rendering:geometricPrecision; image-rendering:optimizeQuality; fill-rule:evenodd; clip-rule:evenodd"
viewBox="0 0 187.399 23.1635"
 xmlns:xlink="http://www.w3.org/1999/xlink">
 <defs>
  <style type="text/css">
   <![CDATA[
    .str0 {stroke:#4B4B4B;stroke-width:0.609603;stroke-linecap:round;stroke-linejoin:round}
    .fil0 {fill:none}
    .fil3 {fill:#4B4B4B}
    .fil1 {fill:#4B4B4B;fill-rule:nonzero}
    .fil2 {fill:#6C76A7;fill-rule:nonzero}
   ]]>
  </style>
 </defs>
 <g id="Layer_x0020_1">
  <metadata id="CorelCorpID_0Corel-Layer"/>
  <g id="_324125848">
   <g>
    <g>
     <g>
      <path id="_235211032" class="fil0 str0" d="M183.883 0.304802c1.77352,0 3.2109,1.43738 3.2109,3.2109 0,1.77352 -1.43738,3.2109 -3.2109,3.2109 -1.77352,0 -3.2109,-1.43738 -3.2109,-3.2109 0,-1.77352 1.43738,-3.2109 3.2109,-3.2109z"/>
     </g>
    </g>
    <path id="_324425720" class="fil1" d="M182.403 5.2406l0 -3.64748 1.73815 0c0.322081,0 0.568825,0.0294895 0.738504,0.0897356 0.170371,0.0594397 0.307681,0.170025 0.412507,0.332102 0.10448,0.161386 0.156317,0.358482 0.156317,0.590481 0,0.202855 -0.0399721,0.376797 -0.119225,0.523784 -0.0802897,0.146987 -0.19053,0.265866 -0.329222,0.357675 -0.0897356,0.0575967 -0.211495,0.105863 -0.366315,0.143416 0.124294,0.0450406 0.21472,0.0900812 0.271971,0.135122 0.0374378,0.0299503 0.0936522,0.0933066 0.166454,0.190875 0.0731478,0.0987207 0.121759,0.173251 0.146296,0.226931l0.504316 1.05736 -1.17831 0 -0.557305 -1.11496c-0.0706135,-0.143761 -0.133624,-0.237759 -0.189147,-0.281302 -0.0745301,-0.0558688 -0.160349,-0.0839759 -0.255384,-0.0839759l-0.0918091 0 0 1.48023 -1.04757 0 -0.000230387 0zm1.04757 -2.16978l0.439808 0c0.0472293,0 0.139038,-0.0162423 0.276003,-0.0493027 0.069116,-0.0154359 0.125676,-0.0536801 0.16968,-0.114502 0.0428519,-0.0612828 0.0651994,-0.131896 0.0651994,-0.211495 0,-0.118188 -0.034558,-0.20827 -0.103789,-0.270935 -0.069116,-0.0638171 -0.198824,-0.0954953 -0.389008,-0.0954953l-0.457893 0 0 0.74173z"/>
   </g>
   <g id="_235214176">
    <g id="_240796264">
     <polygon id="_243351176" class="fil2" points="126.211,6.52202 120.268,22.9193 115.696,22.9193 112.009,12.7398 108.199,22.9193 103.627,22.9193 97.7145,6.52202 102.195,6.52202 106.065,17.6164 110.088,6.52202 114.111,6.52202 118.012,17.6164 122.006,6.52202 "/>
     <path id="_2433511761" class="fil2" d="M136.239 23.1632c-1.72698,0 -3.27644,-0.360209 -4.64794,-1.08213 -1.37149,-0.721225 -2.44313,-1.72202 -3.21551,-3.00194 -0.772026,-1.27991 -1.15781,-2.73285 -1.15781,-4.35857 0,-1.62538 0.386128,-3.07831 1.15781,-4.35822 0.772371,-1.27991 1.84413,-2.28071 3.21551,-3.00228 1.37149,-0.721225 2.92084,-1.08213 4.64794,-1.08213 1.72732,0 3.27137,0.361016 4.63238,1.08213 1.36135,0.721571 2.42839,1.72202 3.20042,3.00228 0.772371,1.27991 1.15781,2.73285 1.15781,4.35822 0,1.62584 -0.386128,3.07831 -1.15781,4.35857 -0.772026,1.27991 -1.83872,2.28071 -3.20042,3.00194 -1.36135,0.721571 -2.90541,1.08213 -4.63238,1.08213zm0 -3.90114c1.21944,0 2.21989,-0.411355 3.00194,-1.23418 0.782508,-0.823171 1.1737,-1.92511 1.1737,-3.30674 0,-1.38151 -0.391196,-2.48391 -1.1737,-3.30674 -0.782508,-0.823171 -1.78285,-1.23453 -3.00194,-1.23453 -1.21909,0 -2.22484,0.411355 -3.01703,1.23453 -0.79253,0.822826 -1.18845,1.92511 -1.18845,3.30674 0,1.38151 0.395919,2.48391 1.18845,3.30674 0.79253,0.822826 1.79794,1.23418 3.01703,1.23418z"/>
     <path id="_24335117612" class="fil2" d="M152.94 8.68627c0.568825,-0.79253 1.33544,-1.392 2.30087,-1.7984 0.96509,-0.406402 2.07751,-0.609488 3.33727,-0.609488l0 4.38887c-0.528507,-0.0403177 -0.883648,-0.0609373 -1.06634,-0.0609373 -1.36135,0 -2.42839,0.380829 -3.20042,1.14272 -0.772371,0.761889 -1.15815,1.90461 -1.15815,3.42884l0 7.74168 -4.75449 0 0 -16.3973 4.54127 0 0 2.16402z"/>
     <polygon id="_243351176123" class="fil2" points="168.576,16.4882 166.289,18.744 166.289,22.9193 161.535,22.9193 161.535,0.304802 166.289,0.304802 166.289,13.1054 173.238,6.52202 178.907,6.52202 172.08,13.4711 179.517,22.9193 173.756,22.9193 "/>
     <path id="_243346112" class="fil3" d="M17.915 1.58518l9.69202 0c2.31642,0 4.36329,0.441997 6.14107,1.32576 1.77778,0.883993 3.15975,2.12831 4.14535,3.73353 0.985248,1.60522 1.47805,3.47458 1.47805,5.60796 0,2.13303 -0.492797,4.00274 -1.47805,5.60796 -0.985594,1.60522 -2.36722,2.84954 -4.14535,3.73353 -1.77778,0.883648 -3.82476,1.32576 -6.14107,1.32576l-9.69202 0 0 -1.8621c0.74461,-0.593706 1.36677,-1.30376 1.86567,-2.13119 0.772026,-1.27991 1.15781,-2.73285 1.15781,-4.35822 0,-1.62584 -0.385782,-3.07831 -1.15781,-4.35857 -0.498902,-0.826742 -1.12106,-1.53749 -1.86567,-2.13119l0 -6.4931 0 -0.00034558 0 0.00034558 0 -0.000115193zm9.44781 17.2806c2.13373,0 3.83525,-0.594397 5.10502,-1.78285 1.26989,-1.18845 1.90495,-2.79874 1.90495,-4.83052 0,-2.03178 -0.634715,-3.64207 -1.90495,-4.83052 -1.26989,-1.18879 -2.97164,-1.78285 -5.10502,-1.78285l-4.51028 0 0 13.2272 4.51028 0 0 -0.00034558 0 -0.000115193zm31.4527 -4.08372c0,0.0609373 -0.0302958,0.487383 -0.0911179,1.27991l-12.4044 0c0.22336,1.01589 0.751867,1.81856 1.58471,2.40789 0.833193,0.588983 1.86936,0.883648 3.10895,0.883648 0.853006,0 1.60994,-0.126828 2.27023,-0.380829 0.660288,-0.254001 1.27496,-0.655335 1.84413,-1.20389l2.52965 2.74287c-1.5444,1.7681 -3.79954,2.65175 -6.76576,2.65175 -1.84874,0 -3.4846,-0.360209 -4.90724,-1.08213 -1.42229,-0.721225 -2.51951,-1.72202 -3.29153,-3.00194 -0.772026,-1.27991 -1.15781,-2.73285 -1.15781,-4.35857 0,-1.60522 0.381175,-3.05274 1.14306,-4.34313 0.761889,-1.2904 1.80807,-2.2958 3.13913,-3.01737 1.33071,-0.721225 2.81924,-1.08213 4.46524,-1.08213 1.60522,0 3.05815,0.345465 4.35788,1.03639 1.30053,0.690929 2.32138,1.68125 3.06322,2.97164 0.74173,1.2904 1.11242,2.78871 1.11242,4.49553l-0.00034558 0 -0.00034558 0.00034558 -0.000115193 0zm-8.50322 -4.907c-1.07683,0 -1.98063,0.304802 -2.71234,0.914289 -0.731708,0.609488 -1.17831,1.4428 -1.3412,2.49935l8.07632 0c-0.162423,-1.03639 -0.609488,-1.86463 -1.3412,-2.48391 -0.731708,-0.619625 -1.62538,-0.92938 -2.68205,-0.92938l0.00034558 0 0 -0.00034558 0.000115193 0zm17.1891 13.2881c-1.36135,0 -2.69207,-0.167491 -3.9926,-0.502934 -1.30053,-0.335443 -2.33624,-0.75682 -3.10895,-1.26482l1.58471 -3.41364c0.731708,0.467224 1.6157,0.848399 2.65175,1.14306 1.03639,0.294664 2.05194,0.441997 3.04767,0.441997 2.01162,0 3.01737,-0.497866 3.01737,-1.4936 0,-0.467224 -0.274506,-0.802667 -0.822826,-1.00575 -0.548666,-0.202855 -1.392,-0.376106 -2.52999,-0.518024 -1.3412,-0.203201 -2.44855,-0.436928 -3.32218,-0.701067 -0.873626,-0.264023 -1.63045,-0.731708 -2.27023,-1.40202 -0.640129,-0.670771 -0.960021,-1.62538 -0.960021,-2.86463 0,-1.03639 0.299733,-1.95575 0.899199,-2.75842 0.599466,-0.803013 1.47309,-1.42725 2.62111,-1.87431 1.14813,-0.447065 2.50407,-0.670771 4.06897,-0.670771 1.15781,0 2.31135,0.127173 3.45902,0.381175 1.14779,0.254001 2.09802,0.604535 2.84988,1.0516l-1.58506 3.38265c-1.44245,-0.812689 -3.01737,-1.21909 -4.72385,-1.21909 -1.01589,0 -1.77778,0.141918 -2.28613,0.426906 -0.508003,0.284643 -0.761889,0.650266 -0.761889,1.09733 0,0.508003 0.27416,0.863489 0.822826,1.06634 0.548666,0.203201 1.42229,0.396265 2.62111,0.579307 1.3412,0.22336 2.43853,0.462156 3.29153,0.716157 0.853467,0.254001 1.5952,0.716157 2.22484,1.38658 0.630107,0.670771 0.944931,1.60522 0.944931,2.80381 0,1.01589 -0.304802,1.92016 -0.914289,2.71234 -0.609488,0.79253 -1.49867,1.40709 -2.66696,1.84413 -1.16795,0.436928 -2.55487,0.655335 -4.16009,0.655335l0 0.00069116 0.000115193 -0.00034558zm17.7075 -6.67465l-2.28613 2.25514 0 4.17564 -4.75449 0 0 -22.6144 4.75449 0 0 12.8006 6.94915 -6.58307 5.66878 0 -6.82705 6.94915 7.43653 9.44781 -5.76036 0 -5.18105 -6.43078 0.00034558 -0.00034558 -0.00034558 0.00034558 0.000115193 -0.000115193z"/>
     <path id="_240792112" class="fil1" d="M9.02125 23.1261c-1.72732,0 -3.2761,-0.360209 -4.64794,-1.08213 -1.37149,-0.721225 -2.44313,-1.72202 -3.21516,-3.00194 -0.772026,-1.27991 -1.15815,-2.73285 -1.15815,-4.35822 0,-1.62584 0.386128,-3.07831 1.15815,-4.35857 0.772026,-1.27991 1.84413,-2.28037 3.21516,-3.00194 1.37149,-0.721225 2.92084,-1.08213 4.64794,-1.08213 1.72698,0 3.27137,0.360555 4.63238,1.08213 1.36135,0.721571 2.42839,1.72202 3.20042,3.00194 0.772026,1.27991 1.15815,2.73285 1.15815,4.35857 0,1.62538 -0.386128,3.07831 -1.15815,4.35822 -0.772026,1.27991 -1.83872,2.28071 -3.20042,3.00194 -1.36135,0.721571 -2.90541,1.08213 -4.63238,1.08213zm0 -3.90114c1.21909,0 2.21989,-0.411816 3.00194,-1.23453 0.782508,-0.822826 1.1737,-1.92511 1.1737,-3.30674 0,-1.38151 -0.391196,-2.48391 -1.1737,-3.30674 -0.782047,-0.822826 -1.78285,-1.23384 -3.00194,-1.23384 -1.21944,0 -2.22484,0.411355 -3.01737,1.23384 -0.79253,0.823171 -1.18845,1.92511 -1.18845,3.30674 0,1.38151 0.395919,2.48391 1.18845,3.30674 0.792876,0.822826 1.7984,1.23453 3.01737,1.23453z"/>
    </g>
   </g>
  </g>
 </g>
</svg>
